<svg width="663" height="375" viewBox="0 0 663 375" fill="none" xmlns="http://www.w3.org/2000/svg">
<path d="M-30.1587 246.501C-30.1587 217.395 -30.1587 171.293 44.5002 171.293C119.158 171.293 119.158 217.395 119.158 246.501C119.158 275.606 119.158 321.708 44.5002 321.708C-30.1587 321.708 -30.1587 275.606 -30.1587 246.501Z" fill="#5C928D"/>
<path d="M-30.1587 246.501C-30.1587 217.395 -30.1587 171.293 44.5002 171.293C119.158 171.293 119.158 217.395 119.158 246.501C119.158 275.606 119.158 321.708 44.5002 321.708C-30.1587 321.708 -30.1587 275.606 -30.1587 246.501Z" stroke="#5C928D" stroke-width="0.775" stroke-linecap="round" stroke-linejoin="round"/>
<path d="M91.8413 270.501C91.8413 241.395 91.8413 195.293 166.5 195.293C241.158 195.293 241.158 241.395 241.158 270.501C241.158 299.606 241.158 345.708 166.5 345.708C91.8413 345.708 91.8413 299.606 91.8413 270.501Z" fill="#5C928D"/>
<path d="M91.8413 270.501C91.8413 241.395 91.8413 195.293 166.5 195.293C241.158 195.293 241.158 241.395 241.158 270.501C241.158 299.606 241.158 345.708 166.5 345.708C91.8413 345.708 91.8413 299.606 91.8413 270.501Z" stroke="#5C928D" stroke-width="0.775" stroke-linecap="round" stroke-linejoin="round"/>
<path d="M235.841 297.501C235.841 268.395 235.841 222.293 310.5 222.293C385.158 222.293 385.158 268.395 385.158 297.501C385.158 326.606 385.158 372.708 310.5 372.708C235.841 372.708 235.841 326.606 235.841 297.501Z" fill="#5C928D"/>
<path d="M235.841 297.501C235.841 268.395 235.841 222.293 310.5 222.293C385.158 222.293 385.158 268.395 385.158 297.501C385.158 326.606 385.158 372.708 310.5 372.708C235.841 372.708 235.841 326.606 235.841 297.501Z" stroke="#5C928D" stroke-width="0.775" stroke-linecap="round" stroke-linejoin="round"/>
<path d="M526.841 253.501C526.841 224.395 526.841 178.293 601.5 178.293C676.158 178.293 676.158 224.395 676.158 253.501C676.158 282.606 676.158 328.708 601.5 328.708C526.841 328.708 526.841 282.606 526.841 253.501Z" fill="#5C928D"/>
<path d="M526.841 253.501C526.841 224.395 526.841 178.293 601.5 178.293C676.158 178.293 676.158 224.395 676.158 253.501C676.158 282.606 676.158 328.708 601.5 328.708C526.841 328.708 526.841 282.606 526.841 253.501Z" stroke="#5C928D" stroke-width="0.775" stroke-linecap="round" stroke-linejoin="round"/>
<path d="M379.841 234.501C379.841 205.395 379.841 159.293 454.5 159.293C529.158 159.293 529.158 205.395 529.158 234.501C529.158 263.606 529.158 309.708 454.5 309.708C379.841 309.708 379.841 263.606 379.841 234.501Z" fill="#5C928D"/>
<path d="M379.841 234.501C379.841 205.395 379.841 159.293 454.5 159.293C529.158 159.293 529.158 205.395 529.158 234.501C529.158 263.606 529.158 309.708 454.5 309.708C379.841 309.708 379.841 263.606 379.841 234.501Z" stroke="#5C928D" stroke-width="0.775" stroke-linecap="round" stroke-linejoin="round"/>
<path d="M0 24C0 10.7452 10.7452 0 24 0H639C652.255 0 663 10.7452 663 24V258H0V24Z" fill="#5C928D"/>
</svg>
