<svg width="307" height="61" viewBox="0 0 307 61" fill="none" xmlns="http://www.w3.org/2000/svg">
<path d="M54.4207 2.27344H3.77849C2.00477 2.27344 0.566895 3.71132 0.566895 5.48503V55.2179C0.566895 56.9917 2.00477 58.4295 3.77849 58.4295H54.4207C56.1945 58.4295 57.6323 56.9917 57.6323 55.2179V5.48503C57.6323 3.71132 56.1945 2.27344 54.4207 2.27344Z" fill="#3498DB" stroke="white" stroke-width="1.1335"/>
<path d="M29.174 48.0845C26.876 48.0845 24.8077 47.8125 22.9684 47.2691C21.1298 46.6933 19.3737 45.7011 17.6991 44.2933C17.2722 43.9412 16.9434 43.5414 16.7137 43.0933C16.484 42.6452 16.3691 42.1979 16.3691 41.7498C16.3691 41.0137 16.6321 40.3737 17.1573 39.8296C17.7157 39.2538 18.4049 38.9659 19.2255 38.9659C19.8497 38.9659 20.4074 39.1578 20.9001 39.5417C22.1477 40.5339 23.3787 41.2858 24.5938 41.7973C25.8414 42.3097 27.3687 42.5651 29.174 42.5651C30.3891 42.5651 31.5052 42.3898 32.5231 42.0376C33.541 41.6538 34.3616 41.1573 34.9858 40.5497C35.6092 39.9097 35.9213 39.1895 35.9213 38.39C35.9213 37.4303 35.6258 36.6142 35.0349 35.9424C34.444 35.2706 33.5409 34.7107 32.3258 34.2626C31.1115 33.7827 29.5684 33.4147 27.6966 33.1585C25.9238 32.9024 24.3641 32.5185 23.0183 32.0069C21.6717 31.4628 20.5389 30.791 19.62 29.9908C18.7329 29.1588 18.0603 28.1991 17.6001 27.1117C17.1407 25.9918 16.9109 24.7434 16.9109 23.3681C16.9109 21.2885 17.4528 19.5127 18.5364 18.0406C19.6525 16.5686 21.1465 15.4487 23.0183 14.6809C24.8893 13.9132 26.9576 13.5293 29.2231 13.5293C31.3578 13.5293 33.3279 13.8489 35.1331 14.489C36.9717 15.0973 38.4656 15.8809 39.615 16.8406C40.5671 17.5767 41.0432 18.4245 41.0432 19.3842C41.0432 20.0885 40.7644 20.7285 40.206 21.3044C39.6475 21.8802 38.9916 22.1681 38.2359 22.1681C37.7432 22.1681 37.3004 22.0238 36.906 21.7359C36.3808 21.2885 35.675 20.8721 34.7886 20.4883C33.9022 20.0726 32.9666 19.7364 31.9812 19.4802C30.9966 19.1923 30.077 19.0487 29.2231 19.0487C27.8115 19.0487 26.613 19.2248 25.6283 19.5762C24.6762 19.9283 23.9538 20.4081 23.4611 21.0165C22.9684 21.624 22.7228 22.3283 22.7228 23.1278C22.7228 24.0875 23.0017 24.8877 23.5593 25.5278C24.151 26.1354 24.9883 26.6318 26.0712 27.0157C27.1548 27.3671 28.4515 27.6875 29.9621 27.9754C31.9321 28.3276 33.6558 28.7432 35.1331 29.223C36.6437 29.7029 37.8913 30.3271 38.876 31.0948C39.8614 31.8308 40.6004 32.7747 41.0923 33.9263C41.585 35.0462 41.8314 36.4223 41.8314 38.0538C41.8314 40.1341 41.2405 41.9258 40.0586 43.4296C38.876 44.9334 37.317 46.085 35.3795 46.8853C33.4752 47.6848 31.407 48.0845 29.174 48.0845Z" fill="white"/>
<path d="M9.01516 11.7912C8.69929 11.7912 8.42044 11.7338 8.1809 11.6197C7.94588 11.5048 7.74943 11.3522 7.5915 11.161C7.43885 10.9645 7.32398 10.7439 7.24766 10.4983C7.17662 10.2527 7.14111 10.0018 7.14111 9.74487C7.14111 9.48341 7.17437 9.2023 7.23935 8.9023C7.3051 8.59701 7.4056 8.2887 7.54238 7.97736C7.6784 7.66602 7.84541 7.37207 8.04188 7.09323C8.24365 6.81514 8.47562 6.56728 8.73709 6.34889C9.00459 6.12522 9.30458 5.95066 9.63707 5.82522C9.67561 5.81389 9.70811 5.80859 9.73531 5.80859C9.80634 5.80859 9.86681 5.82749 9.91593 5.86603C9.97034 5.90381 9.99752 5.96955 9.99752 6.0625C9.99752 6.11691 9.97863 6.16602 9.9401 6.20985C9.9076 6.24763 9.86149 6.27786 9.80104 6.29977C9.57207 6.39801 9.34538 6.53706 9.1217 6.7169C8.89802 6.89675 8.69097 7.10456 8.49979 7.33882C8.3086 7.57383 8.1454 7.82698 8.00863 8.09978C7.8779 8.36729 7.78492 8.64008 7.73051 8.91892L7.55068 9.02472C7.64892 8.84487 7.77435 8.68693 7.92699 8.55015C8.08493 8.40809 8.26555 8.29625 8.46732 8.21464C8.66908 8.12773 8.88744 8.08391 9.1217 8.08391C9.36729 8.08391 9.59398 8.13529 9.80104 8.23958C10.0081 8.3431 10.1857 8.48517 10.3331 8.66502C10.4857 8.83958 10.6028 9.03832 10.6852 9.26199C10.7721 9.48567 10.8159 9.71767 10.8159 9.95797C10.8159 10.2799 10.7366 10.5799 10.5787 10.858C10.426 11.1368 10.2129 11.3628 9.9401 11.5373C9.67259 11.7066 9.36428 11.7912 9.01516 11.7912ZM9.00759 11.3167C9.25848 11.3167 9.48215 11.2592 9.67863 11.1444C9.8751 11.0303 10.0278 10.8716 10.1366 10.6698C10.2514 10.4628 10.3089 10.2255 10.3089 9.95797C10.3089 9.71238 10.2598 9.48567 10.1615 9.27862C10.0686 9.06552 9.9265 8.89399 9.73531 8.76326C9.55017 8.62649 9.3182 8.55847 9.04011 8.55847C8.75069 8.55847 8.4998 8.62422 8.2867 8.75495C8.07965 8.88568 7.91871 9.06023 7.80385 9.27862C7.69503 9.49172 7.64062 9.72598 7.64062 9.98215C7.64062 10.2119 7.69503 10.4303 7.80385 10.6373C7.91342 10.8391 8.06907 11.0031 8.27083 11.1285C8.47789 11.2539 8.72346 11.3167 9.00759 11.3167Z" fill="white"/>
<path d="M5.48689 11.7098C5.41057 11.7098 5.34788 11.6849 5.29876 11.6358C5.24964 11.5866 5.22469 11.53 5.22469 11.4642V6.53726L5.31536 6.61888L4.22646 7.34734C4.18263 7.38059 4.13652 7.39647 4.0874 7.39647C4.02166 7.39647 3.96198 7.36926 3.90757 7.31485C3.85845 7.26044 3.8335 7.19999 3.8335 7.135C3.8335 7.04734 3.87733 6.97933 3.96499 6.93021L5.33123 6.0219C5.36448 5.99999 5.39697 5.98639 5.42947 5.9811C5.46801 5.97505 5.5005 5.97505 5.52771 5.9811C5.59874 5.98639 5.65313 6.01359 5.69167 6.06271C5.72946 6.10654 5.7491 6.16095 5.7491 6.22594V11.4642C5.7491 11.53 5.72419 11.5866 5.67507 11.6358C5.62595 11.6849 5.56321 11.7098 5.48689 11.7098Z" fill="white"/>
<path d="M115.347 2.27344H64.7048C62.931 2.27344 61.4932 3.71132 61.4932 5.48503V55.2179C61.4932 56.9917 62.931 58.4295 64.7048 58.4295H115.347C117.121 58.4295 118.559 56.9917 118.559 55.2179V5.48503C118.559 3.71132 117.121 2.27344 115.347 2.27344Z" fill="#3498DB" stroke="#F1C40F" stroke-width="1.1335"/>
<path d="M99.5234 14.0787C100.458 14.0787 101.23 14.39 101.842 15.0119C102.452 15.6346 102.758 16.4401 102.758 17.4293V51.0996C102.758 52.0518 102.452 52.8392 101.842 53.4619C101.23 54.1208 100.458 54.4503 99.5234 54.4503C98.5894 54.4503 97.8171 54.1208 97.2057 53.4619C96.5951 52.8392 96.2898 52.0518 96.2898 51.0996V37.4228L97.4755 37.917C97.4755 38.3931 97.2238 38.9787 96.7206 39.6747C96.218 40.3336 95.5349 40.9933 94.6727 41.6523C93.8105 42.3112 92.7858 42.8787 91.6001 43.3548C90.45 43.7946 89.1926 44.0137 87.8271 44.0137C85.3478 44.0137 83.1019 43.3729 81.0895 42.0913C79.0772 40.7734 77.4782 38.9787 76.2926 36.7087C75.1425 34.4016 74.5674 31.7651 74.5674 28.7991C74.5674 25.7961 75.1425 23.1595 76.2926 20.8895C77.4782 18.5824 79.0591 16.7885 81.0359 15.5069C83.012 14.1882 85.2042 13.5293 87.6118 13.5293C89.1571 13.5293 90.5762 13.7673 91.8699 14.2434C93.1636 14.7195 94.2775 15.3232 95.2115 16.0555C96.1818 16.7885 96.9186 17.5389 97.4218 18.3081C97.9606 19.0404 98.2304 19.6631 98.2304 20.1754L96.2898 20.8895V17.4293C96.2898 16.4772 96.5951 15.6897 97.2057 15.0671C97.8171 14.4081 98.5894 14.0787 99.5234 14.0787ZM88.6357 37.9722C90.2165 37.9722 91.6002 37.5694 92.7858 36.7638C93.9722 35.9583 94.8881 34.8596 95.5349 33.4676C96.2181 32.0764 96.5589 30.5198 96.5589 28.7991C96.5589 27.0414 96.2181 25.4666 95.5349 24.0754C94.8881 22.6835 93.9722 21.5855 92.7858 20.7799C91.6002 19.9736 90.2165 19.5709 88.6357 19.5709C87.0903 19.5709 85.7248 19.9736 84.5392 20.7799C83.3535 21.5855 82.4188 22.6835 81.7364 24.0754C81.0896 25.4666 80.7661 27.0414 80.7661 28.7991C80.7661 30.5198 81.0896 32.0764 81.7364 33.4676C82.4188 34.8596 83.3535 35.9583 84.5392 36.7638C85.7248 37.5694 87.0903 37.9722 88.6357 37.9722Z" fill="white"/>
<path d="M175.366 2.27344H124.723C122.95 2.27344 121.512 3.71132 121.512 5.48503V55.2179C121.512 56.9917 122.95 58.4295 124.723 58.4295H175.366C177.139 58.4295 178.577 56.9917 178.577 55.2179V5.48503C178.577 3.71132 177.139 2.27344 175.366 2.27344Z" fill="#3498DB" stroke="#2ECC71" stroke-width="1.1335"/>
<path d="M168.082 30.8069C168.082 33.2069 167.682 35.4467 166.882 37.5263C166.083 39.6059 164.947 41.446 163.475 43.0457C162.035 44.613 160.307 45.8447 158.292 46.7409C156.308 47.6371 154.132 48.0845 151.764 48.0845C149.397 48.0845 147.221 47.6371 145.237 46.7409C143.253 45.8447 141.526 44.613 140.054 43.0457C138.614 41.446 137.494 39.6059 136.695 37.5263C135.894 35.4467 135.495 33.2069 135.495 30.8069C135.495 28.4069 135.894 26.1679 136.695 24.0875C137.494 22.0079 138.614 20.1845 140.054 18.6165C141.526 17.0167 143.253 15.7691 145.237 14.8729C147.221 13.9774 149.397 13.5293 151.764 13.5293C154.132 13.5293 156.308 13.9774 158.292 14.8729C160.307 15.7691 162.035 17.0167 163.475 18.6165C164.947 20.1845 166.083 22.0079 166.882 24.0875C167.682 26.1679 168.082 28.4069 168.082 30.8069ZM161.843 30.8069C161.843 28.6631 161.411 26.7278 160.547 24.9996C159.684 23.2396 158.499 21.8484 156.996 20.8245C155.492 19.8006 153.748 19.2882 151.764 19.2882C149.781 19.2882 148.036 19.8006 146.533 20.8245C145.029 21.8484 143.845 23.2238 142.982 24.952C142.15 26.6794 141.733 28.6313 141.733 30.8069C141.733 32.9507 142.15 34.9026 142.982 36.6626C143.845 38.39 145.029 39.7661 146.533 40.79C148.036 41.8132 149.781 42.3256 151.764 42.3256C153.748 42.3256 155.492 41.8132 156.996 40.79C158.499 39.7661 159.684 38.39 160.547 36.6626C161.411 34.9026 161.843 32.9507 161.843 30.8069Z" fill="white"/>
<path d="M130.29 9.73874L130.265 9.66544C130.45 9.73647 130.62 9.84226 130.772 9.98433C130.925 10.1211 131.048 10.2843 131.14 10.4755C131.233 10.6607 131.279 10.8654 131.279 11.0891C131.279 11.3838 131.201 11.6513 131.042 11.8916C130.889 12.1312 130.679 12.3224 130.412 12.4644C130.145 12.6057 129.847 12.6768 129.52 12.6768C129.187 12.6768 128.887 12.6057 128.62 12.4644C128.358 12.3224 128.148 12.1312 127.99 11.8916C127.837 11.6513 127.76 11.3838 127.76 11.0891C127.76 10.8488 127.807 10.6365 127.899 10.4506C127.998 10.2602 128.123 10.0992 128.276 9.9677C128.434 9.83697 128.598 9.73647 128.767 9.66544L128.743 9.74705C128.595 9.67602 128.456 9.58081 128.326 9.46066C128.2 9.33521 128.096 9.18785 128.014 9.01858C127.933 8.84402 127.892 8.65284 127.892 8.44579C127.892 8.15108 127.962 7.8866 128.104 7.65159C128.251 7.41733 128.448 7.23143 128.694 7.09541C128.944 6.95863 129.22 6.89062 129.52 6.89062C129.82 6.89062 130.09 6.95863 130.33 7.09541C130.576 7.23143 130.769 7.41733 130.911 7.65159C131.059 7.8866 131.132 8.15108 131.132 8.44579C131.132 8.65889 131.091 8.84931 131.01 9.01858C130.928 9.18785 130.822 9.33521 130.691 9.46066C130.559 9.58081 130.426 9.673 130.29 9.73874ZM128.399 8.44579C128.399 8.66418 128.451 8.8546 128.554 9.01858C128.658 9.18256 128.795 9.31027 128.963 9.40322C129.133 9.49617 129.318 9.54227 129.52 9.54227C129.717 9.54227 129.9 9.49617 130.069 9.40322C130.237 9.31027 130.371 9.18256 130.469 9.01858C130.573 8.8546 130.625 8.66418 130.625 8.44579C130.625 8.12388 130.521 7.86165 130.314 7.65989C130.107 7.45812 129.842 7.35688 129.52 7.35688C129.187 7.35688 128.917 7.45812 128.71 7.65989C128.502 7.86165 128.399 8.12388 128.399 8.44579ZM129.52 12.2105C129.891 12.2105 130.191 12.104 130.42 11.8916C130.655 11.6785 130.772 11.411 130.772 11.0891C130.772 10.8707 130.715 10.6743 130.601 10.4997C130.486 10.3251 130.333 10.1891 130.142 10.0909C129.951 9.99265 129.744 9.94352 129.52 9.94352C129.297 9.94352 129.089 9.99265 128.898 10.0909C128.707 10.1891 128.554 10.3251 128.44 10.4997C128.326 10.6743 128.268 10.8707 128.268 11.0891C128.268 11.411 128.382 11.6785 128.612 11.8916C128.841 12.104 129.144 12.2105 129.52 12.2105Z" fill="white"/>
<path d="M237.108 0.575373L186.59 4.108C184.82 4.23173 183.486 5.76641 183.61 7.5358L187.079 57.1476C187.203 58.917 188.737 60.251 190.507 60.1273L241.026 56.5947C242.795 56.471 244.129 54.9363 244.005 53.1669L240.536 3.55511C240.413 1.78572 238.878 0.451645 237.108 0.575373Z" fill="#3498DB" stroke="#2ECC71" stroke-width="1.1335"/>
<path d="M230.925 29.6111C231.091 32.0043 230.85 34.2667 230.2 36.397C229.542 38.528 228.545 40.4421 227.185 42.1408C225.855 43.8056 224.222 45.1544 222.273 46.1889C220.353 47.2212 218.215 47.8197 215.857 47.9844C213.492 48.1499 211.291 47.8552 209.249 47.0995C207.208 46.3438 205.398 45.236 203.821 43.7746C202.272 42.2791 201.027 40.5222 200.084 38.503C199.141 36.4839 198.586 34.2781 198.419 31.8841C198.251 29.4902 198.494 27.2277 199.147 25.0974C199.8 22.9672 200.79 21.0697 202.117 19.405C203.473 17.7063 205.11 16.3415 207.026 15.3093C208.943 14.277 211.081 13.6785 213.444 13.513C215.804 13.3483 218.011 13.643 220.051 14.3987C222.122 15.1513 223.935 16.2758 225.477 17.7712C227.056 19.2327 228.318 20.973 229.263 22.9914C230.207 25.0105 230.759 27.2171 230.925 29.6111ZM224.706 30.0463C224.555 27.9078 223.988 26.0065 223.006 24.3433C222.023 22.6483 220.746 21.3425 219.174 20.4259C217.603 19.5093 215.827 19.1201 213.846 19.2584C211.866 19.3967 210.162 20.0292 208.734 21.1559C207.305 22.2818 206.22 23.7372 205.479 25.5206C204.769 27.3025 204.491 29.2786 204.642 31.4488C204.792 33.5874 205.344 35.5053 206.296 37.2025C207.278 38.8657 208.555 40.1557 210.127 41.0723C211.698 41.9889 213.474 42.3781 215.449 42.2398C217.429 42.1015 219.137 41.469 220.565 40.3423C221.993 39.2164 223.074 37.761 223.822 35.9776C224.555 34.1617 224.85 32.1841 224.706 30.0463Z" fill="white"/>
<path d="M189.942 11.3566L189.913 11.2848C190.102 11.343 190.279 11.4375 190.441 11.5682C190.603 11.6936 190.736 11.8485 190.842 12.0322C190.948 12.2105 191.009 12.4115 191.024 12.6352C191.045 12.9284 190.984 13.2012 190.843 13.4513C190.708 13.7014 190.511 13.907 190.254 14.0672C189.998 14.2274 189.707 14.3188 189.379 14.3415C189.048 14.3649 188.743 14.315 188.466 14.1919C188.195 14.0687 187.973 13.8926 187.798 13.6644C187.629 13.4354 187.534 13.174 187.514 12.88C187.497 12.6405 187.528 12.4251 187.608 12.2339C187.693 12.0367 187.807 11.8674 187.95 11.7261C188.098 11.5841 188.255 11.4722 188.418 11.3899L188.4 11.473C188.248 11.4125 188.102 11.3271 187.963 11.216C187.829 11.0997 187.715 10.9599 187.622 10.7974C187.529 10.6289 187.474 10.4407 187.46 10.2344C187.439 9.94048 187.492 9.67146 187.616 9.42738C187.747 9.1833 187.93 8.98456 188.166 8.83116C188.407 8.67776 188.677 8.5901 188.976 8.56894C189.275 8.54854 189.549 8.59766 189.799 8.71705C190.053 8.83569 190.259 9.00723 190.417 9.23166C190.58 9.45534 190.672 9.71377 190.693 10.0077C190.708 10.2201 190.68 10.4135 190.61 10.5881C190.541 10.7626 190.445 10.9168 190.322 11.0513C190.201 11.1798 190.074 11.2818 189.942 11.3566ZM187.966 10.1989C187.981 10.4166 188.046 10.6032 188.161 10.7596C188.276 10.9153 188.421 11.0339 188.596 11.1148C188.771 11.1956 188.96 11.2289 189.161 11.2145C189.357 11.2009 189.536 11.142 189.698 11.0377C189.861 10.9334 189.985 10.7959 190.071 10.6259C190.164 10.4551 190.202 10.2609 190.186 10.0433C190.164 9.7221 190.043 9.46818 189.821 9.28153C189.601 9.09413 189.329 9.01252 189.008 9.03443C188.677 9.05786 188.414 9.17726 188.222 9.39338C188.029 9.60874 187.944 9.87776 187.966 10.1989ZM189.347 13.876C189.717 13.8503 190.009 13.7234 190.223 13.4951C190.442 13.2662 190.541 12.9911 190.518 12.67C190.503 12.4523 190.432 12.2604 190.306 12.0941C190.179 11.9279 190.017 11.8024 189.82 11.7178C189.623 11.6332 189.412 11.5992 189.189 11.6143C188.966 11.6302 188.763 11.6936 188.579 11.8047C188.395 11.9166 188.252 12.0631 188.15 12.2453C188.048 12.4274 188.005 12.6269 188.02 12.8453C188.043 13.1657 188.175 13.4249 188.419 13.6213C188.662 13.8171 188.971 13.9024 189.347 13.876Z" fill="white"/>
<path d="M302.673 2.27344H252.031C250.257 2.27344 248.819 3.71132 248.819 5.48503V55.2179C248.819 56.9917 250.257 58.4295 252.031 58.4295H302.673C304.447 58.4295 305.885 56.9917 305.885 55.2179V5.48503C305.885 3.71132 304.447 2.27344 302.673 2.27344Z" fill="#3498DB" stroke="#E67E22" stroke-width="1.1335"/>
<path d="M285.507 19.2244C287.331 19.2244 288.81 17.7458 288.81 15.9218C288.81 14.0978 287.331 12.6191 285.507 12.6191C283.683 12.6191 282.204 14.0978 282.204 15.9218C282.204 17.7458 283.683 19.2244 285.507 19.2244Z" fill="white"/>
<path d="M287.797 49.6125C288.416 48.9611 288.718 48.1654 288.718 47.2246V24.8145C288.718 23.8737 288.416 23.0961 287.797 22.481C287.184 21.8296 286.406 21.5039 285.462 21.5039C284.525 21.5039 283.746 21.8296 283.127 22.481C282.514 23.0961 282.205 23.8737 282.205 24.8145V47.2246C282.205 48.1654 282.514 48.9611 283.127 49.6125C283.746 50.2276 284.525 50.5352 285.462 50.5352C286.406 50.5352 287.184 50.2276 287.797 49.6125Z" fill="white"/>
<path d="M275.532 47.5901C275.532 48.506 275.215 49.2813 274.58 49.9153C273.983 50.5138 273.22 50.8138 272.298 50.8138C271.414 50.8138 270.673 50.5138 270.069 49.9153C269.472 49.2813 269.169 48.506 269.169 47.5901V14.9346C269.169 14.0188 269.472 13.2608 270.069 12.6623C270.711 12.0283 271.489 11.7109 272.404 11.7109C273.326 11.7109 274.066 12.0283 274.633 12.6623C275.238 13.2608 275.532 14.0188 275.532 14.9346V47.5901Z" fill="white"/>
<path d="M255.348 12.6852C255.378 12.6852 255.401 12.6905 255.431 12.7018C255.462 12.7124 255.499 12.7373 255.545 12.7751C255.658 12.8953 255.794 12.9882 255.953 13.0532C256.111 13.1136 256.293 13.1439 256.497 13.1439C256.761 13.1439 257.003 13.0834 257.222 12.9633C257.449 12.8431 257.623 12.6769 257.751 12.4645C257.887 12.2461 257.948 11.9975 257.948 11.7194C257.948 11.4028 257.88 11.1497 257.736 10.9585C257.6 10.762 257.426 10.6177 257.207 10.5247C256.995 10.4265 256.776 10.3774 256.55 10.3774C256.489 10.3774 256.429 10.3827 256.368 10.394C256.315 10.3993 256.263 10.4076 256.217 10.4182C256.164 10.4288 256.127 10.4348 256.104 10.4348C256.028 10.4348 255.975 10.4129 255.938 10.3691C255.9 10.3199 255.877 10.2602 255.877 10.1892C255.877 10.1507 255.892 10.1182 255.907 10.091C255.922 10.0585 255.945 10.023 255.968 9.98443L257.63 8.17536L257.729 8.30684H255.25C255.182 8.30684 255.129 8.28493 255.076 8.2411C255.038 8.19198 255.016 8.13456 255.016 8.06957C255.016 8.00382 255.038 7.94941 255.076 7.90558C255.129 7.86175 255.182 7.83984 255.25 7.83984H258.001C258.091 7.83984 258.159 7.87007 258.197 7.93052C258.235 7.98493 258.257 8.03934 258.257 8.09375C258.257 8.127 258.242 8.15948 258.227 8.19198C258.212 8.21918 258.189 8.24941 258.167 8.2819L256.504 10.091L256.323 9.98443C256.338 9.96781 256.391 9.95193 256.489 9.93531C256.587 9.9134 256.663 9.90282 256.716 9.90282C257.018 9.90282 257.298 9.97384 257.562 10.1152C257.827 10.2572 258.038 10.462 258.205 10.7295C258.371 10.991 258.462 11.3159 258.462 11.7028C258.462 12.0852 258.371 12.4207 258.189 12.7101C258.008 12.9935 257.766 13.2142 257.464 13.3728C257.154 13.5308 256.814 13.6101 256.444 13.6101C256.225 13.6101 255.998 13.5716 255.779 13.4953C255.567 13.4189 255.371 13.3048 255.212 13.1514C255.174 13.1189 255.144 13.0864 255.129 13.0532C255.114 13.0207 255.106 12.9882 255.106 12.955C255.106 12.89 255.121 12.8295 255.167 12.7751C255.22 12.7154 255.28 12.6852 255.348 12.6852Z" fill="white"/>
</svg>
