<svg width="437" height="121" viewBox="0 0 437 121" fill="none" xmlns="http://www.w3.org/2000/svg">
<path d="M95.9054 10.692C96.3854 10.692 96.8294 10.872 97.2374 11.232C97.6454 11.568 97.8494 12.036 97.8494 12.636C97.8494 12.804 97.8134 13.008 97.7414 13.248L90.3614 34.848C90.2414 35.208 90.0254 35.484 89.7134 35.676C89.4014 35.868 89.0774 35.976 88.7414 36C88.4054 36 88.0694 35.904 87.7334 35.712C87.3974 35.52 87.1454 35.232 86.9774 34.848L81.2894 21.528L81.6134 21.672L75.9974 34.848C75.8054 35.232 75.5414 35.52 75.2054 35.712C74.8934 35.904 74.5574 36 74.1974 36C73.8854 35.976 73.5734 35.868 73.2614 35.676C72.9494 35.484 72.7334 35.208 72.6134 34.848L65.2334 13.248C65.1614 13.008 65.1254 12.804 65.1254 12.636C65.1254 12.036 65.3414 11.568 65.7734 11.232C66.2054 10.872 66.6494 10.692 67.1054 10.692C67.4894 10.692 67.8374 10.8 68.1494 11.016C68.4854 11.208 68.7134 11.496 68.8334 11.88L75.0614 30.456H74.4134L79.8854 17.064C80.0534 16.704 80.2814 16.416 80.5694 16.2C80.8814 15.984 81.2294 15.888 81.6134 15.912C81.9974 15.888 82.3334 15.984 82.6214 16.2C82.9334 16.416 83.1614 16.704 83.3054 17.064L88.4894 30.06L87.9494 30.348L94.1414 11.88C94.2614 11.496 94.4894 11.208 94.8254 11.016C95.1614 10.8 95.5214 10.692 95.9054 10.692ZM108.704 36.36C106.712 36.36 104.984 35.952 103.52 35.136C102.056 34.296 100.916 33.156 100.1 31.716C99.3082 30.252 98.9122 28.584 98.9122 26.712C98.9122 24.6 99.3322 22.8 100.172 21.312C101.036 19.8 102.152 18.648 103.52 17.856C104.888 17.04 106.34 16.632 107.876 16.632C109.052 16.632 110.168 16.872 111.224 17.352C112.28 17.808 113.216 18.456 114.032 19.296C114.872 20.112 115.532 21.084 116.012 22.212C116.492 23.316 116.744 24.528 116.768 25.848C116.744 26.328 116.552 26.724 116.192 27.036C115.832 27.348 115.412 27.504 114.932 27.504H100.928L100.064 24.444H113.6L112.916 25.092V24.192C112.868 23.352 112.592 22.62 112.088 21.996C111.584 21.348 110.96 20.856 110.216 20.52C109.472 20.16 108.692 19.98 107.876 19.98C107.156 19.98 106.46 20.1 105.788 20.34C105.14 20.556 104.552 20.916 104.024 21.42C103.52 21.924 103.112 22.596 102.8 23.436C102.512 24.252 102.368 25.272 102.368 26.496C102.368 27.816 102.644 28.968 103.196 29.952C103.748 30.936 104.492 31.704 105.428 32.256C106.364 32.784 107.396 33.048 108.524 33.048C109.412 33.048 110.144 32.964 110.72 32.796C111.296 32.604 111.776 32.376 112.16 32.112C112.544 31.848 112.88 31.596 113.168 31.356C113.528 31.14 113.888 31.032 114.248 31.032C114.68 31.032 115.04 31.188 115.328 31.5C115.616 31.788 115.76 32.136 115.76 32.544C115.76 33.072 115.496 33.552 114.968 33.984C114.32 34.608 113.42 35.16 112.268 35.64C111.14 36.12 109.952 36.36 108.704 36.36ZM124.005 34.164C124.005 34.692 123.825 35.136 123.465 35.496C123.129 35.832 122.709 36 122.205 36C121.701 36 121.269 35.832 120.909 35.496C120.573 35.136 120.405 34.692 120.405 34.164V11.196C120.405 10.668 120.585 10.236 120.945 9.9C121.305 9.54 121.737 9.36 122.241 9.36C122.769 9.36 123.189 9.54 123.501 9.9C123.837 10.236 124.005 10.668 124.005 11.196V34.164ZM136.68 16.632C137.976 16.632 139.128 16.776 140.136 17.064C141.144 17.328 141.924 17.712 142.476 18.216C143.052 18.696 143.34 19.26 143.34 19.908C143.34 20.316 143.22 20.7 142.98 21.06C142.74 21.396 142.38 21.564 141.9 21.564C141.564 21.564 141.276 21.504 141.036 21.384C140.82 21.264 140.616 21.12 140.424 20.952C140.232 20.784 139.992 20.616 139.704 20.448C139.44 20.304 139.044 20.184 138.516 20.088C138.012 19.992 137.556 19.944 137.148 19.944C135.876 19.944 134.772 20.232 133.836 20.808C132.924 21.384 132.204 22.164 131.676 23.148C131.172 24.132 130.92 25.248 130.92 26.496C130.92 27.744 131.172 28.86 131.676 29.844C132.204 30.828 132.912 31.608 133.8 32.184C134.712 32.76 135.768 33.048 136.968 33.048C137.688 33.048 138.276 33 138.732 32.904C139.188 32.784 139.584 32.64 139.92 32.472C140.28 32.256 140.58 32.04 140.82 31.824C141.084 31.584 141.444 31.464 141.9 31.464C142.428 31.464 142.824 31.632 143.088 31.968C143.376 32.28 143.52 32.676 143.52 33.156C143.52 33.684 143.196 34.2 142.548 34.704C141.924 35.184 141.084 35.58 140.028 35.892C138.972 36.204 137.808 36.36 136.536 36.36C134.664 36.36 133.032 35.928 131.64 35.064C130.272 34.2 129.204 33.024 128.436 31.536C127.692 30.048 127.32 28.368 127.32 26.496C127.32 24.6 127.716 22.92 128.508 21.456C129.3 19.968 130.404 18.792 131.82 17.928C133.236 17.064 134.856 16.632 136.68 16.632ZM164.384 26.532C164.384 28.452 163.964 30.156 163.124 31.644C162.284 33.108 161.144 34.26 159.704 35.1C158.264 35.94 156.644 36.36 154.844 36.36C153.044 36.36 151.424 35.94 149.984 35.1C148.544 34.26 147.392 33.108 146.528 31.644C145.688 30.156 145.268 28.452 145.268 26.532C145.268 24.588 145.688 22.884 146.528 21.42C147.392 19.932 148.544 18.768 149.984 17.928C151.424 17.064 153.044 16.632 154.844 16.632C156.644 16.632 158.264 17.064 159.704 17.928C161.144 18.768 162.284 19.932 163.124 21.42C163.964 22.884 164.384 24.588 164.384 26.532ZM160.784 26.532C160.784 25.212 160.52 24.072 159.992 23.112C159.464 22.128 158.744 21.36 157.832 20.808C156.944 20.232 155.948 19.944 154.844 19.944C153.74 19.944 152.732 20.232 151.82 20.808C150.908 21.36 150.188 22.128 149.66 23.112C149.132 24.072 148.868 25.212 148.868 26.532C148.868 27.804 149.132 28.932 149.66 29.916C150.188 30.9 150.908 31.668 151.82 32.22C152.732 32.772 153.74 33.048 154.844 33.048C155.948 33.048 156.944 32.772 157.832 32.22C158.744 31.668 159.464 30.9 159.992 29.916C160.52 28.932 160.784 27.804 160.784 26.532ZM177.243 16.74C179.019 16.74 180.387 17.184 181.347 18.072C182.307 18.936 182.943 20.112 183.255 21.6L182.679 21.42L182.931 20.844C183.243 20.22 183.711 19.596 184.335 18.972C184.983 18.324 185.751 17.796 186.639 17.388C187.527 16.956 188.475 16.74 189.483 16.74C191.139 16.74 192.423 17.1 193.335 17.82C194.247 18.516 194.883 19.464 195.243 20.664C195.603 21.84 195.783 23.16 195.783 24.624V34.164C195.783 34.692 195.615 35.136 195.279 35.496C194.943 35.832 194.511 36 193.983 36C193.479 36 193.047 35.832 192.687 35.496C192.351 35.136 192.183 34.692 192.183 34.164V24.66C192.183 23.82 192.063 23.052 191.823 22.356C191.607 21.66 191.211 21.108 190.635 20.7C190.083 20.268 189.315 20.052 188.331 20.052C187.395 20.052 186.555 20.268 185.811 20.7C185.091 21.108 184.527 21.66 184.119 22.356C183.711 23.052 183.507 23.82 183.507 24.66V34.164C183.507 34.692 183.339 35.136 183.003 35.496C182.667 35.832 182.235 36 181.707 36C181.179 36 180.747 35.832 180.411 35.496C180.075 35.136 179.907 34.692 179.907 34.164V24.624C179.907 23.784 179.787 23.016 179.547 22.32C179.331 21.624 178.947 21.072 178.395 20.664C177.843 20.256 177.075 20.052 176.091 20.052C175.155 20.052 174.327 20.256 173.607 20.664C172.887 21.072 172.323 21.624 171.915 22.32C171.531 23.016 171.339 23.784 171.339 24.624V34.164C171.339 34.692 171.159 35.136 170.799 35.496C170.463 35.832 170.043 36 169.539 36C169.011 36 168.579 35.832 168.243 35.496C167.907 35.136 167.739 34.692 167.739 34.164V18.9C167.739 18.372 167.907 17.94 168.243 17.604C168.579 17.244 169.011 17.064 169.539 17.064C170.043 17.064 170.463 17.244 170.799 17.604C171.159 17.94 171.339 18.372 171.339 18.9V21.024L170.655 21.42C170.823 20.892 171.099 20.352 171.483 19.8C171.867 19.248 172.347 18.744 172.923 18.288C173.523 17.832 174.183 17.46 174.903 17.172C175.623 16.884 176.403 16.74 177.243 16.74ZM208.921 36.36C206.929 36.36 205.201 35.952 203.737 35.136C202.273 34.296 201.133 33.156 200.317 31.716C199.525 30.252 199.129 28.584 199.129 26.712C199.129 24.6 199.549 22.8 200.389 21.312C201.253 19.8 202.369 18.648 203.737 17.856C205.105 17.04 206.557 16.632 208.093 16.632C209.269 16.632 210.385 16.872 211.441 17.352C212.497 17.808 213.433 18.456 214.249 19.296C215.089 20.112 215.749 21.084 216.229 22.212C216.709 23.316 216.961 24.528 216.985 25.848C216.961 26.328 216.769 26.724 216.409 27.036C216.049 27.348 215.629 27.504 215.149 27.504H201.145L200.281 24.444H213.817L213.133 25.092V24.192C213.085 23.352 212.809 22.62 212.305 21.996C211.801 21.348 211.177 20.856 210.433 20.52C209.689 20.16 208.909 19.98 208.093 19.98C207.373 19.98 206.677 20.1 206.005 20.34C205.357 20.556 204.769 20.916 204.241 21.42C203.737 21.924 203.329 22.596 203.017 23.436C202.729 24.252 202.585 25.272 202.585 26.496C202.585 27.816 202.861 28.968 203.413 29.952C203.965 30.936 204.709 31.704 205.645 32.256C206.581 32.784 207.613 33.048 208.741 33.048C209.629 33.048 210.361 32.964 210.937 32.796C211.513 32.604 211.993 32.376 212.377 32.112C212.761 31.848 213.097 31.596 213.385 31.356C213.745 31.14 214.105 31.032 214.465 31.032C214.897 31.032 215.257 31.188 215.545 31.5C215.833 31.788 215.977 32.136 215.977 32.544C215.977 33.072 215.713 33.552 215.185 33.984C214.537 34.608 213.637 35.16 212.485 35.64C211.357 36.12 210.169 36.36 208.921 36.36ZM229.381 17.28H237.841C238.321 17.28 238.717 17.448 239.029 17.784C239.365 18.096 239.533 18.492 239.533 18.972C239.533 19.428 239.365 19.812 239.029 20.124C238.717 20.436 238.321 20.592 237.841 20.592H229.381C228.901 20.592 228.493 20.436 228.157 20.124C227.845 19.788 227.689 19.392 227.689 18.936C227.689 18.456 227.845 18.06 228.157 17.748C228.493 17.436 228.901 17.28 229.381 17.28ZM233.161 12.6C233.689 12.6 234.121 12.78 234.457 13.14C234.793 13.476 234.961 13.908 234.961 14.436V31.14C234.961 31.572 235.033 31.92 235.177 32.184C235.321 32.448 235.513 32.628 235.753 32.724C236.017 32.82 236.281 32.868 236.545 32.868C236.809 32.868 237.037 32.82 237.229 32.724C237.445 32.628 237.697 32.58 237.985 32.58C238.273 32.58 238.537 32.712 238.777 32.976C239.017 33.24 239.137 33.6 239.137 34.056C239.137 34.632 238.825 35.1 238.201 35.46C237.577 35.82 236.905 36 236.185 36C235.777 36 235.297 35.964 234.745 35.892C234.193 35.82 233.653 35.64 233.125 35.352C232.621 35.064 232.201 34.608 231.865 33.984C231.529 33.336 231.361 32.436 231.361 31.284V14.436C231.361 13.908 231.529 13.476 231.865 13.14C232.225 12.78 232.657 12.6 233.161 12.6ZM260.768 26.532C260.768 28.452 260.348 30.156 259.508 31.644C258.668 33.108 257.528 34.26 256.088 35.1C254.648 35.94 253.028 36.36 251.228 36.36C249.428 36.36 247.808 35.94 246.368 35.1C244.928 34.26 243.776 33.108 242.912 31.644C242.072 30.156 241.652 28.452 241.652 26.532C241.652 24.588 242.072 22.884 242.912 21.42C243.776 19.932 244.928 18.768 246.368 17.928C247.808 17.064 249.428 16.632 251.228 16.632C253.028 16.632 254.648 17.064 256.088 17.928C257.528 18.768 258.668 19.932 259.508 21.42C260.348 22.884 260.768 24.588 260.768 26.532ZM257.168 26.532C257.168 25.212 256.904 24.072 256.376 23.112C255.848 22.128 255.128 21.36 254.216 20.808C253.328 20.232 252.332 19.944 251.228 19.944C250.124 19.944 249.116 20.232 248.204 20.808C247.292 21.36 246.572 22.128 246.044 23.112C245.516 24.072 245.252 25.212 245.252 26.532C245.252 27.804 245.516 28.932 246.044 29.916C246.572 30.9 247.292 31.668 248.204 32.22C249.116 32.772 250.124 33.048 251.228 33.048C252.332 33.048 253.328 32.772 254.216 32.22C255.128 31.668 255.848 30.9 256.376 29.916C256.904 28.932 257.168 27.804 257.168 26.532ZM281.558 36.36C279.83 36.36 278.294 36.12 276.95 35.64C275.606 35.16 274.322 34.368 273.098 33.264C272.834 33.072 272.63 32.844 272.486 32.58C272.366 32.292 272.306 32.004 272.306 31.716C272.306 31.26 272.474 30.852 272.81 30.492C273.146 30.132 273.566 29.952 274.07 29.952C274.454 29.952 274.814 30.084 275.15 30.348C276.062 31.188 277.01 31.824 277.994 32.256C279.002 32.688 280.178 32.904 281.522 32.904C282.482 32.904 283.358 32.748 284.15 32.436C284.966 32.124 285.614 31.704 286.094 31.176C286.574 30.648 286.814 30.036 286.814 29.34C286.814 28.476 286.562 27.768 286.058 27.216C285.578 26.64 284.87 26.172 283.934 25.812C283.022 25.428 281.918 25.104 280.622 24.84C279.422 24.624 278.342 24.324 277.382 23.94C276.446 23.556 275.642 23.076 274.97 22.5C274.298 21.9 273.782 21.192 273.422 20.376C273.062 19.56 272.882 18.612 272.882 17.532C272.882 16.068 273.266 14.808 274.034 13.752C274.802 12.696 275.846 11.88 277.166 11.304C278.486 10.728 279.974 10.44 281.63 10.44C283.142 10.44 284.558 10.68 285.878 11.16C287.198 11.616 288.266 12.24 289.082 13.032C289.658 13.536 289.946 14.076 289.946 14.652C289.946 15.084 289.766 15.492 289.406 15.876C289.07 16.236 288.674 16.416 288.218 16.416C287.882 16.416 287.594 16.32 287.354 16.128C286.97 15.72 286.454 15.36 285.806 15.048C285.158 14.712 284.462 14.436 283.718 14.22C282.998 14.004 282.302 13.896 281.63 13.896C280.55 13.896 279.626 14.052 278.858 14.364C278.09 14.652 277.502 15.06 277.094 15.588C276.686 16.092 276.482 16.692 276.482 17.388C276.482 18.204 276.71 18.876 277.166 19.404C277.646 19.932 278.306 20.364 279.146 20.7C279.986 21.012 280.946 21.3 282.026 21.564C283.346 21.852 284.522 22.176 285.554 22.536C286.61 22.896 287.498 23.364 288.218 23.94C288.938 24.492 289.49 25.188 289.874 26.028C290.258 26.868 290.45 27.912 290.45 29.16C290.45 30.6 290.042 31.86 289.226 32.94C288.41 34.02 287.33 34.86 285.986 35.46C284.666 36.06 283.19 36.36 281.558 36.36ZM309.277 16.992C309.805 16.992 310.237 17.172 310.573 17.532C310.909 17.868 311.077 18.3 311.077 18.828V41.364C311.077 41.892 310.909 42.324 310.573 42.66C310.237 43.02 309.805 43.2 309.277 43.2C308.773 43.2 308.341 43.02 307.981 42.66C307.645 42.324 307.477 41.892 307.477 41.364V31.572L308.233 31.608C308.233 32.04 308.053 32.532 307.693 33.084C307.357 33.612 306.889 34.128 306.289 34.632C305.689 35.136 304.981 35.556 304.165 35.892C303.349 36.204 302.473 36.36 301.537 36.36C299.881 36.36 298.393 35.94 297.073 35.1C295.753 34.236 294.709 33.072 293.941 31.608C293.173 30.12 292.789 28.416 292.789 26.496C292.789 24.576 293.173 22.884 293.941 21.42C294.709 19.932 295.741 18.768 297.037 17.928C298.357 17.064 299.821 16.632 301.429 16.632C302.437 16.632 303.373 16.8 304.237 17.136C305.125 17.472 305.893 17.904 306.541 18.432C307.189 18.96 307.693 19.524 308.053 20.124C308.413 20.7 308.593 21.252 308.593 21.78L307.477 21.888V18.828C307.477 18.324 307.645 17.892 307.981 17.532C308.341 17.172 308.773 16.992 309.277 16.992ZM301.933 33.048C303.085 33.048 304.081 32.76 304.921 32.184C305.785 31.608 306.457 30.828 306.937 29.844C307.417 28.86 307.657 27.744 307.657 26.496C307.657 25.248 307.417 24.132 306.937 23.148C306.457 22.164 305.785 21.384 304.921 20.808C304.057 20.232 303.061 19.944 301.933 19.944C300.829 19.944 299.845 20.232 298.981 20.808C298.141 21.384 297.469 22.164 296.965 23.148C296.485 24.132 296.245 25.248 296.245 26.496C296.245 27.744 296.485 28.86 296.965 29.844C297.469 30.828 298.141 31.608 298.981 32.184C299.845 32.76 300.829 33.048 301.933 33.048ZM333.544 26.532C333.544 28.452 333.124 30.156 332.284 31.644C331.444 33.108 330.304 34.26 328.864 35.1C327.424 35.94 325.804 36.36 324.004 36.36C322.204 36.36 320.584 35.94 319.144 35.1C317.704 34.26 316.552 33.108 315.688 31.644C314.848 30.156 314.428 28.452 314.428 26.532C314.428 24.588 314.848 22.884 315.688 21.42C316.552 19.932 317.704 18.768 319.144 17.928C320.584 17.064 322.204 16.632 324.004 16.632C325.804 16.632 327.424 17.064 328.864 17.928C330.304 18.768 331.444 19.932 332.284 21.42C333.124 22.884 333.544 24.588 333.544 26.532ZM329.944 26.532C329.944 25.212 329.68 24.072 329.152 23.112C328.624 22.128 327.904 21.36 326.992 20.808C326.104 20.232 325.108 19.944 324.004 19.944C322.9 19.944 321.892 20.232 320.98 20.808C320.068 21.36 319.348 22.128 318.82 23.112C318.292 24.072 318.028 25.212 318.028 26.532C318.028 27.804 318.292 28.932 318.82 29.916C319.348 30.9 320.068 31.668 320.98 32.22C321.892 32.772 322.9 33.048 324.004 33.048C325.108 33.048 326.104 32.772 326.992 32.22C327.904 31.668 328.624 30.9 329.152 29.916C329.68 28.932 329.944 27.804 329.944 26.532ZM355.043 26.532C355.043 28.452 354.623 30.156 353.783 31.644C352.943 33.108 351.803 34.26 350.363 35.1C348.923 35.94 347.303 36.36 345.503 36.36C343.703 36.36 342.083 35.94 340.643 35.1C339.203 34.26 338.051 33.108 337.187 31.644C336.347 30.156 335.927 28.452 335.927 26.532C335.927 24.588 336.347 22.884 337.187 21.42C338.051 19.932 339.203 18.768 340.643 17.928C342.083 17.064 343.703 16.632 345.503 16.632C347.303 16.632 348.923 17.064 350.363 17.928C351.803 18.768 352.943 19.932 353.783 21.42C354.623 22.884 355.043 24.588 355.043 26.532ZM351.443 26.532C351.443 25.212 351.179 24.072 350.651 23.112C350.123 22.128 349.403 21.36 348.491 20.808C347.603 20.232 346.607 19.944 345.503 19.944C344.399 19.944 343.391 20.232 342.479 20.808C341.567 21.36 340.847 22.128 340.319 23.112C339.791 24.072 339.527 25.212 339.527 26.532C339.527 27.804 339.791 28.932 340.319 29.916C340.847 30.9 341.567 31.668 342.479 32.22C343.391 32.772 344.399 33.048 345.503 33.048C346.607 33.048 347.603 32.772 348.491 32.22C349.403 31.668 350.123 30.9 350.651 29.916C351.179 28.932 351.443 27.804 351.443 26.532ZM362.286 34.164C362.286 34.692 362.106 35.136 361.746 35.496C361.41 35.832 360.99 36 360.486 36C359.982 36 359.55 35.832 359.19 35.496C358.854 35.136 358.686 34.692 358.686 34.164V11.196C358.686 10.668 358.866 10.236 359.226 9.9C359.586 9.54 360.018 9.36 360.522 9.36C361.05 9.36 361.47 9.54 361.782 9.9C362.118 10.236 362.286 10.668 362.286 11.196V34.164ZM370.308 34.164C370.308 34.692 370.14 35.136 369.804 35.496C369.468 35.832 369.036 36 368.508 36C368.004 36 367.572 35.832 367.212 35.496C366.876 35.136 366.708 34.692 366.708 34.164V18.756C366.708 18.228 366.876 17.796 367.212 17.46C367.572 17.1 368.004 16.92 368.508 16.92C369.036 16.92 369.468 17.1 369.804 17.46C370.14 17.796 370.308 18.228 370.308 18.756V34.164ZM368.472 14.544C367.776 14.544 367.272 14.424 366.96 14.184C366.648 13.92 366.492 13.488 366.492 12.888V12.312C366.492 11.712 366.66 11.292 366.996 11.052C367.332 10.812 367.836 10.692 368.508 10.692C369.228 10.692 369.744 10.824 370.056 11.088C370.368 11.328 370.524 11.736 370.524 12.312V12.888C370.524 13.512 370.356 13.944 370.02 14.184C369.708 14.424 369.192 14.544 368.472 14.544Z" fill="white"/>
<path d="M48.2412 84C48.0545 84 47.9012 83.94 47.7812 83.82C47.6745 83.7 47.6212 83.56 47.6212 83.4V70.66H48.8612V83.4C48.8612 83.56 48.8012 83.7 48.6812 83.82C48.5612 83.94 48.4145 84 48.2412 84ZM43.4812 71.14C43.3212 71.14 43.1812 71.0867 43.0612 70.98C42.9412 70.8733 42.8812 70.7333 42.8812 70.56C42.8812 70.4 42.9412 70.2667 43.0612 70.16C43.1812 70.0533 43.3212 70 43.4812 70H53.0012C53.1612 70 53.3012 70.0533 53.4212 70.16C53.5412 70.2667 53.6012 70.4067 53.6012 70.58C53.6012 70.7533 53.5412 70.8933 53.4212 71C53.3012 71.0933 53.1612 71.14 53.0012 71.14H43.4812ZM60.5115 73.7C61.3515 73.7 62.0315 73.88 62.5515 74.24C63.0715 74.6 63.4515 75.0867 63.6915 75.7C63.9448 76.3133 64.0715 76.9933 64.0715 77.74V83.4C64.0715 83.56 64.0115 83.7 63.8915 83.82C63.7715 83.94 63.6315 84 63.4715 84C63.2848 84 63.1382 83.94 63.0315 83.82C62.9248 83.7 62.8715 83.56 62.8715 83.4V77.74C62.8715 77.1933 62.7848 76.7 62.6115 76.26C62.4515 75.82 62.1848 75.4733 61.8115 75.22C61.4382 74.9533 60.9382 74.82 60.3115 74.82C59.7515 74.82 59.2182 74.9533 58.7115 75.22C58.2182 75.4733 57.8182 75.82 57.5115 76.26C57.2048 76.7 57.0515 77.1933 57.0515 77.74V83.4C57.0515 83.56 56.9915 83.7 56.8715 83.82C56.7515 83.94 56.6115 84 56.4515 84C56.2648 84 56.1182 83.94 56.0115 83.82C55.9048 83.7 55.8515 83.56 55.8515 83.4V69.8C55.8515 69.64 55.9048 69.5 56.0115 69.38C56.1315 69.26 56.2782 69.2 56.4515 69.2C56.6248 69.2 56.7648 69.26 56.8715 69.38C56.9915 69.5 57.0515 69.64 57.0515 69.8V76.28L56.5915 76.98C56.6182 76.5667 56.7448 76.1667 56.9715 75.78C57.2115 75.38 57.5182 75.0267 57.8915 74.72C58.2648 74.4 58.6782 74.1533 59.1315 73.98C59.5848 73.7933 60.0448 73.7 60.5115 73.7ZM71.8387 84.2C70.812 84.2 69.9053 83.98 69.1187 83.54C68.332 83.1 67.7187 82.4867 67.2787 81.7C66.8387 80.9133 66.6187 79.9933 66.6187 78.94C66.6187 77.8067 66.8387 76.84 67.2787 76.04C67.732 75.24 68.312 74.6267 69.0187 74.2C69.7387 73.76 70.4987 73.54 71.2987 73.54C71.8853 73.54 72.452 73.6467 72.9987 73.86C73.5587 74.06 74.052 74.3667 74.4787 74.78C74.9187 75.18 75.2653 75.6733 75.5187 76.26C75.7853 76.8467 75.932 77.5267 75.9587 78.3C75.9453 78.46 75.8787 78.6 75.7587 78.72C75.6387 78.8267 75.4987 78.88 75.3387 78.88H67.3187L67.0787 77.8H74.9587L74.6987 78.04V77.64C74.6453 77.0133 74.4453 76.48 74.0987 76.04C73.752 75.6 73.332 75.2667 72.8387 75.04C72.3453 74.8133 71.832 74.7 71.2987 74.7C70.8987 74.7 70.4853 74.78 70.0587 74.94C69.6453 75.1 69.2653 75.3533 68.9187 75.7C68.5853 76.0333 68.312 76.4667 68.0987 77C67.8853 77.52 67.7787 78.14 67.7787 78.86C67.7787 79.6467 67.9387 80.36 68.2587 81C68.5787 81.64 69.0387 82.1467 69.6387 82.52C70.252 82.8933 70.9787 83.08 71.8187 83.08C72.2853 83.08 72.7053 83.0133 73.0787 82.88C73.452 82.7467 73.7787 82.5733 74.0587 82.36C74.3387 82.1333 74.572 81.9 74.7587 81.66C74.9053 81.54 75.052 81.48 75.1987 81.48C75.332 81.48 75.4453 81.5333 75.5387 81.64C75.6453 81.7467 75.6987 81.8667 75.6987 82C75.6987 82.16 75.632 82.3 75.4987 82.42C75.0987 82.9 74.5787 83.32 73.9387 83.68C73.2987 84.0267 72.5987 84.2 71.8387 84.2ZM91.636 73.84C91.8093 73.84 91.9493 73.9 92.056 74.02C92.176 74.14 92.236 74.28 92.236 74.44V80.08C92.236 81.4 91.8627 82.4067 91.116 83.1C90.3693 83.7933 89.3627 84.14 88.096 84.14C86.8427 84.14 85.8427 83.7933 85.096 83.1C84.3627 82.4067 83.996 81.4 83.996 80.08V74.44C83.996 74.28 84.0493 74.14 84.156 74.02C84.276 73.9 84.4227 73.84 84.596 73.84C84.7693 73.84 84.9093 73.9 85.016 74.02C85.136 74.14 85.196 74.28 85.196 74.44V80.08C85.196 81.04 85.4493 81.7733 85.956 82.28C86.476 82.7733 87.1893 83.02 88.096 83.02C89.016 83.02 89.736 82.7733 90.256 82.28C90.776 81.7733 91.036 81.04 91.036 80.08V74.44C91.036 74.28 91.0893 74.14 91.196 74.02C91.3027 73.9 91.4493 73.84 91.636 73.84ZM96.7027 83.4C96.7027 83.56 96.6427 83.7 96.5227 83.82C96.4027 83.94 96.2627 84 96.1027 84C95.9294 84 95.7827 83.94 95.6627 83.82C95.5561 83.7 95.5027 83.56 95.5027 83.4V69.8C95.5027 69.64 95.5627 69.5 95.6827 69.38C95.8027 69.26 95.9427 69.2 96.1027 69.2C96.2761 69.2 96.4161 69.26 96.5227 69.38C96.6427 69.5 96.7027 69.64 96.7027 69.8V83.4ZM99.2735 73.82H103.934C104.094 73.82 104.227 73.88 104.334 74C104.44 74.1067 104.494 74.24 104.494 74.4C104.494 74.5467 104.44 74.6733 104.334 74.78C104.227 74.8867 104.094 74.94 103.934 74.94H99.2735C99.1135 74.94 98.9735 74.8867 98.8535 74.78C98.7468 74.66 98.6935 74.5267 98.6935 74.38C98.6935 74.22 98.7468 74.0867 98.8535 73.98C98.9735 73.8733 99.1135 73.82 99.2735 73.82ZM101.334 71C101.507 71 101.647 71.06 101.754 71.18C101.874 71.3 101.934 71.44 101.934 71.6V81.64C101.934 82.0133 101.98 82.2933 102.074 82.48C102.18 82.6667 102.314 82.7933 102.474 82.86C102.634 82.9133 102.794 82.94 102.954 82.94C103.06 82.94 103.154 82.9267 103.234 82.9C103.327 82.86 103.427 82.84 103.534 82.84C103.654 82.84 103.754 82.8867 103.834 82.98C103.927 83.0733 103.974 83.1933 103.974 83.34C103.974 83.5267 103.867 83.6867 103.654 83.82C103.44 83.94 103.187 84 102.894 84C102.774 84 102.594 83.9933 102.354 83.98C102.114 83.9533 101.867 83.88 101.614 83.76C101.36 83.6267 101.147 83.4 100.974 83.08C100.814 82.76 100.734 82.3 100.734 81.7V71.6C100.734 71.44 100.787 71.3 100.894 71.18C101.014 71.06 101.16 71 101.334 71ZM107.871 83.4C107.871 83.56 107.811 83.7 107.691 83.82C107.571 83.94 107.431 84 107.271 84C107.098 84 106.951 83.94 106.831 83.82C106.724 83.7 106.671 83.56 106.671 83.4V74.2C106.671 74.04 106.724 73.9 106.831 73.78C106.951 73.66 107.098 73.6 107.271 73.6C107.444 73.6 107.584 73.66 107.691 73.78C107.811 73.9 107.871 74.04 107.871 74.2V83.4ZM107.271 72.26C106.991 72.26 106.778 72.2 106.631 72.08C106.498 71.9467 106.431 71.76 106.431 71.52V71.32C106.431 71.08 106.504 70.9 106.651 70.78C106.811 70.6467 107.024 70.58 107.291 70.58C107.544 70.58 107.738 70.6467 107.871 70.78C108.018 70.9 108.091 71.08 108.091 71.32V71.52C108.091 71.76 108.018 71.9467 107.871 72.08C107.738 72.2 107.538 72.26 107.271 72.26ZM115.588 73.7C116.415 73.7 117.122 73.92 117.708 74.36C118.295 74.7867 118.695 75.4267 118.908 76.28L118.628 76.36L118.748 76C118.922 75.6 119.208 75.2267 119.608 74.88C120.022 74.52 120.488 74.2333 121.008 74.02C121.528 73.8067 122.055 73.7 122.588 73.7C123.428 73.7 124.102 73.88 124.608 74.24C125.128 74.6 125.502 75.0867 125.728 75.7C125.968 76.3 126.088 76.98 126.088 77.74V83.4C126.088 83.56 126.028 83.7 125.908 83.82C125.802 83.94 125.662 84 125.488 84C125.315 84 125.168 83.94 125.048 83.82C124.942 83.7 124.888 83.56 124.888 83.4V77.8C124.888 77.2533 124.802 76.7533 124.628 76.3C124.455 75.8467 124.182 75.4867 123.808 75.22C123.435 74.9533 122.935 74.82 122.308 74.82C121.762 74.82 121.235 74.9533 120.728 75.22C120.235 75.4867 119.828 75.8467 119.508 76.3C119.202 76.7533 119.048 77.2533 119.048 77.8V83.4C119.048 83.56 118.988 83.7 118.868 83.82C118.762 83.94 118.622 84 118.448 84C118.275 84 118.128 83.94 118.008 83.82C117.902 83.7 117.848 83.56 117.848 83.4V77.74C117.848 77.1933 117.768 76.7 117.608 76.26C117.448 75.82 117.188 75.4733 116.828 75.22C116.468 74.9533 115.982 74.82 115.368 74.82C114.822 74.82 114.302 74.9533 113.808 75.22C113.328 75.4733 112.935 75.82 112.628 76.26C112.335 76.7 112.188 77.1933 112.188 77.74V83.4C112.188 83.56 112.128 83.7 112.008 83.82C111.888 83.94 111.748 84 111.588 84C111.402 84 111.255 83.94 111.148 83.82C111.042 83.7 110.988 83.56 110.988 83.4V74.44C110.988 74.28 111.042 74.14 111.148 74.02C111.268 73.9 111.415 73.84 111.588 73.84C111.762 73.84 111.902 73.9 112.008 74.02C112.128 74.14 112.188 74.28 112.188 74.44V76.3L111.648 77.04C111.688 76.64 111.815 76.24 112.028 75.84C112.255 75.44 112.548 75.08 112.908 74.76C113.268 74.44 113.675 74.1867 114.128 74C114.595 73.8 115.082 73.7 115.588 73.7ZM137.61 73.78C137.784 73.78 137.924 73.84 138.03 73.96C138.15 74.08 138.21 74.2267 138.21 74.4V83.4C138.21 83.56 138.15 83.7 138.03 83.82C137.91 83.94 137.77 84 137.61 84C137.437 84 137.29 83.94 137.17 83.82C137.064 83.7 137.01 83.56 137.01 83.4V81.02L137.35 80.86C137.35 81.2333 137.244 81.6133 137.03 82C136.83 82.3867 136.55 82.7467 136.19 83.08C135.83 83.4133 135.404 83.6867 134.91 83.9C134.43 84.1 133.91 84.2 133.35 84.2C132.444 84.2 131.63 83.9667 130.91 83.5C130.204 83.0333 129.644 82.3933 129.23 81.58C128.83 80.7667 128.63 79.8533 128.63 78.84C128.63 77.8 128.837 76.8867 129.25 76.1C129.664 75.3 130.224 74.6733 130.93 74.22C131.637 73.7667 132.437 73.54 133.33 73.54C133.904 73.54 134.437 73.64 134.93 73.84C135.437 74.04 135.877 74.3133 136.25 74.66C136.624 75.0067 136.91 75.4067 137.11 75.86C137.324 76.3 137.43 76.76 137.43 77.24L137.01 76.94V74.4C137.01 74.2267 137.064 74.08 137.17 73.96C137.29 73.84 137.437 73.78 137.61 73.78ZM133.45 83.08C134.157 83.08 134.784 82.9 135.33 82.54C135.877 82.1667 136.304 81.66 136.61 81.02C136.93 80.3667 137.09 79.64 137.09 78.84C137.09 78.0533 136.93 77.3467 136.61 76.72C136.304 76.0933 135.877 75.5933 135.33 75.22C134.784 74.8467 134.157 74.66 133.45 74.66C132.757 74.66 132.13 74.84 131.57 75.2C131.024 75.56 130.59 76.0533 130.27 76.68C129.964 77.3067 129.81 78.0267 129.81 78.84C129.81 79.64 129.964 80.3667 130.27 81.02C130.59 81.66 131.024 82.1667 131.57 82.54C132.117 82.9 132.744 83.08 133.45 83.08ZM140.699 73.82H145.359C145.519 73.82 145.653 73.88 145.759 74C145.866 74.1067 145.919 74.24 145.919 74.4C145.919 74.5467 145.866 74.6733 145.759 74.78C145.653 74.8867 145.519 74.94 145.359 74.94H140.699C140.539 74.94 140.399 74.8867 140.279 74.78C140.173 74.66 140.119 74.5267 140.119 74.38C140.119 74.22 140.173 74.0867 140.279 73.98C140.399 73.8733 140.539 73.82 140.699 73.82ZM142.759 71C142.933 71 143.073 71.06 143.179 71.18C143.299 71.3 143.359 71.44 143.359 71.6V81.64C143.359 82.0133 143.406 82.2933 143.499 82.48C143.606 82.6667 143.739 82.7933 143.899 82.86C144.059 82.9133 144.219 82.94 144.379 82.94C144.486 82.94 144.579 82.9267 144.659 82.9C144.753 82.86 144.853 82.84 144.959 82.84C145.079 82.84 145.179 82.8867 145.259 82.98C145.353 83.0733 145.399 83.1933 145.399 83.34C145.399 83.5267 145.293 83.6867 145.079 83.82C144.866 83.94 144.613 84 144.319 84C144.199 84 144.019 83.9933 143.779 83.98C143.539 83.9533 143.293 83.88 143.039 83.76C142.786 83.6267 142.573 83.4 142.399 83.08C142.239 82.76 142.159 82.3 142.159 81.7V71.6C142.159 71.44 142.213 71.3 142.319 71.18C142.439 71.06 142.586 71 142.759 71ZM152.659 84.2C151.632 84.2 150.726 83.98 149.939 83.54C149.152 83.1 148.539 82.4867 148.099 81.7C147.659 80.9133 147.439 79.9933 147.439 78.94C147.439 77.8067 147.659 76.84 148.099 76.04C148.552 75.24 149.132 74.6267 149.839 74.2C150.559 73.76 151.319 73.54 152.119 73.54C152.706 73.54 153.272 73.6467 153.819 73.86C154.379 74.06 154.872 74.3667 155.299 74.78C155.739 75.18 156.086 75.6733 156.339 76.26C156.606 76.8467 156.752 77.5267 156.779 78.3C156.766 78.46 156.699 78.6 156.579 78.72C156.459 78.8267 156.319 78.88 156.159 78.88H148.139L147.899 77.8H155.779L155.519 78.04V77.64C155.466 77.0133 155.266 76.48 154.919 76.04C154.572 75.6 154.152 75.2667 153.659 75.04C153.166 74.8133 152.652 74.7 152.119 74.7C151.719 74.7 151.306 74.78 150.879 74.94C150.466 75.1 150.086 75.3533 149.739 75.7C149.406 76.0333 149.132 76.4667 148.919 77C148.706 77.52 148.599 78.14 148.599 78.86C148.599 79.6467 148.759 80.36 149.079 81C149.399 81.64 149.859 82.1467 150.459 82.52C151.072 82.8933 151.799 83.08 152.639 83.08C153.106 83.08 153.526 83.0133 153.899 82.88C154.272 82.7467 154.599 82.5733 154.879 82.36C155.159 82.1333 155.392 81.9 155.579 81.66C155.726 81.54 155.872 81.48 156.019 81.48C156.152 81.48 156.266 81.5333 156.359 81.64C156.466 81.7467 156.519 81.8667 156.519 82C156.519 82.16 156.452 82.3 156.319 82.42C155.919 82.9 155.399 83.32 154.759 83.68C154.119 84.0267 153.419 84.2 152.659 84.2ZM164.236 82.38C164.13 82.22 164.076 82.0667 164.076 81.92C164.09 81.76 164.176 81.6333 164.336 81.54C164.443 81.4467 164.563 81.4067 164.696 81.42C164.843 81.4333 164.976 81.5 165.096 81.62C165.456 82.0867 165.89 82.4667 166.396 82.76C166.916 83.04 167.53 83.18 168.236 83.18C168.61 83.18 168.976 83.12 169.336 83C169.71 82.8667 170.016 82.6733 170.256 82.42C170.496 82.1533 170.616 81.82 170.616 81.42C170.616 81.0067 170.496 80.6733 170.256 80.42C170.016 80.1667 169.703 79.9667 169.316 79.82C168.943 79.6733 168.543 79.5467 168.116 79.44C167.663 79.32 167.223 79.1867 166.796 79.04C166.37 78.88 165.99 78.6867 165.656 78.46C165.336 78.22 165.076 77.9333 164.876 77.6C164.676 77.2667 164.576 76.86 164.576 76.38C164.576 75.82 164.73 75.3267 165.036 74.9C165.343 74.4733 165.756 74.14 166.276 73.9C166.81 73.66 167.41 73.54 168.076 73.54C168.41 73.54 168.77 73.5867 169.156 73.68C169.543 73.76 169.923 73.9 170.296 74.1C170.67 74.3 171.003 74.5733 171.296 74.92C171.416 75.04 171.476 75.18 171.476 75.34C171.476 75.4867 171.41 75.62 171.276 75.74C171.17 75.82 171.043 75.86 170.896 75.86C170.763 75.86 170.65 75.8067 170.556 75.7C170.236 75.34 169.856 75.0667 169.416 74.88C168.976 74.6933 168.503 74.6 167.996 74.6C167.61 74.6 167.243 74.6667 166.896 74.8C166.563 74.92 166.283 75.1067 166.056 75.36C165.83 75.6133 165.716 75.9467 165.716 76.36C165.743 76.7467 165.876 77.06 166.116 77.3C166.37 77.54 166.696 77.74 167.096 77.9C167.51 78.06 167.97 78.2067 168.476 78.34C168.903 78.4467 169.31 78.5733 169.696 78.72C170.096 78.8667 170.443 79.0533 170.736 79.28C171.043 79.4933 171.283 79.7667 171.456 80.1C171.643 80.4333 171.736 80.8533 171.736 81.36C171.736 81.9467 171.57 82.4533 171.236 82.88C170.916 83.3067 170.483 83.6333 169.936 83.86C169.39 84.0867 168.783 84.2 168.116 84.2C167.396 84.2 166.696 84.06 166.016 83.78C165.35 83.5 164.756 83.0333 164.236 82.38ZM178.691 73.54C179.331 73.54 179.918 73.6133 180.451 73.76C180.985 73.8933 181.411 74.08 181.731 74.32C182.065 74.56 182.231 74.82 182.231 75.1C182.231 75.2333 182.185 75.3667 182.091 75.5C181.998 75.62 181.871 75.68 181.711 75.68C181.551 75.68 181.418 75.64 181.311 75.56C181.218 75.48 181.118 75.3867 181.011 75.28C180.918 75.1733 180.778 75.0733 180.591 74.98C180.418 74.9 180.171 74.8267 179.851 74.76C179.531 74.6933 179.165 74.66 178.751 74.66C178.005 74.66 177.331 74.8467 176.731 75.22C176.131 75.5933 175.658 76.1 175.311 76.74C174.965 77.3667 174.791 78.0733 174.791 78.86C174.791 79.66 174.958 80.38 175.291 81.02C175.625 81.66 176.085 82.1667 176.671 82.54C177.258 82.9 177.945 83.08 178.731 83.08C179.265 83.08 179.678 83.0333 179.971 82.94C180.265 82.8467 180.518 82.74 180.731 82.62C180.985 82.4733 181.165 82.3333 181.271 82.2C181.391 82.0533 181.545 81.98 181.731 81.98C181.905 81.98 182.031 82.0333 182.111 82.14C182.205 82.2333 182.251 82.36 182.251 82.52C182.251 82.7333 182.091 82.9733 181.771 83.24C181.465 83.4933 181.038 83.72 180.491 83.92C179.945 84.1067 179.318 84.2 178.611 84.2C177.611 84.2 176.731 83.9667 175.971 83.5C175.225 83.0333 174.638 82.4 174.211 81.6C173.798 80.7867 173.591 79.8733 173.591 78.86C173.591 77.8867 173.805 77 174.231 76.2C174.658 75.4 175.251 74.76 176.011 74.28C176.785 73.7867 177.678 73.54 178.691 73.54ZM189.203 73.7C190.043 73.7 190.723 73.88 191.243 74.24C191.763 74.6 192.143 75.0867 192.383 75.7C192.636 76.3133 192.763 76.9933 192.763 77.74V83.4C192.763 83.56 192.703 83.7 192.583 83.82C192.463 83.94 192.323 84 192.163 84C191.976 84 191.83 83.94 191.723 83.82C191.616 83.7 191.563 83.56 191.563 83.4V77.74C191.563 77.1933 191.476 76.7 191.303 76.26C191.143 75.82 190.876 75.4733 190.503 75.22C190.13 74.9533 189.63 74.82 189.003 74.82C188.443 74.82 187.91 74.9533 187.403 75.22C186.91 75.4733 186.51 75.82 186.203 76.26C185.896 76.7 185.743 77.1933 185.743 77.74V83.4C185.743 83.56 185.683 83.7 185.563 83.82C185.443 83.94 185.303 84 185.143 84C184.956 84 184.81 83.94 184.703 83.82C184.596 83.7 184.543 83.56 184.543 83.4V69.8C184.543 69.64 184.596 69.5 184.703 69.38C184.823 69.26 184.97 69.2 185.143 69.2C185.316 69.2 185.456 69.26 185.563 69.38C185.683 69.5 185.743 69.64 185.743 69.8V76.28L185.283 76.98C185.31 76.5667 185.436 76.1667 185.663 75.78C185.903 75.38 186.21 75.0267 186.583 74.72C186.956 74.4 187.37 74.1533 187.823 73.98C188.276 73.7933 188.736 73.7 189.203 73.7ZM205.43 78.88C205.43 79.8933 205.21 80.8067 204.77 81.62C204.33 82.42 203.73 83.0533 202.97 83.52C202.21 83.9733 201.343 84.2 200.37 84.2C199.423 84.2 198.563 83.9733 197.79 83.52C197.03 83.0533 196.423 82.42 195.97 81.62C195.53 80.8067 195.31 79.8933 195.31 78.88C195.31 77.8533 195.53 76.94 195.97 76.14C196.423 75.34 197.03 74.7067 197.79 74.24C198.563 73.7733 199.423 73.54 200.37 73.54C201.343 73.54 202.21 73.7733 202.97 74.24C203.73 74.7067 204.33 75.34 204.77 76.14C205.21 76.94 205.43 77.8533 205.43 78.88ZM204.23 78.88C204.23 78.0667 204.063 77.3467 203.73 76.72C203.397 76.08 202.937 75.58 202.35 75.22C201.777 74.8467 201.117 74.66 200.37 74.66C199.65 74.66 198.997 74.8467 198.41 75.22C197.823 75.58 197.357 76.08 197.01 76.72C196.677 77.3467 196.51 78.0667 196.51 78.88C196.51 79.6933 196.677 80.4133 197.01 81.04C197.357 81.6667 197.823 82.1667 198.41 82.54C198.997 82.9 199.65 83.08 200.37 83.08C201.117 83.08 201.777 82.9 202.35 82.54C202.937 82.1667 203.397 81.6667 203.73 81.04C204.063 80.4133 204.23 79.6933 204.23 78.88ZM217.5 78.88C217.5 79.8933 217.28 80.8067 216.84 81.62C216.4 82.42 215.8 83.0533 215.04 83.52C214.28 83.9733 213.414 84.2 212.44 84.2C211.494 84.2 210.634 83.9733 209.86 83.52C209.1 83.0533 208.494 82.42 208.04 81.62C207.6 80.8067 207.38 79.8933 207.38 78.88C207.38 77.8533 207.6 76.94 208.04 76.14C208.494 75.34 209.1 74.7067 209.86 74.24C210.634 73.7733 211.494 73.54 212.44 73.54C213.414 73.54 214.28 73.7733 215.04 74.24C215.8 74.7067 216.4 75.34 216.84 76.14C217.28 76.94 217.5 77.8533 217.5 78.88ZM216.3 78.88C216.3 78.0667 216.134 77.3467 215.8 76.72C215.467 76.08 215.007 75.58 214.42 75.22C213.847 74.8467 213.187 74.66 212.44 74.66C211.72 74.66 211.067 74.8467 210.48 75.22C209.894 75.58 209.427 76.08 209.08 76.72C208.747 77.3467 208.58 78.0667 208.58 78.88C208.58 79.6933 208.747 80.4133 209.08 81.04C209.427 81.6667 209.894 82.1667 210.48 82.54C211.067 82.9 211.72 83.08 212.44 83.08C213.187 83.08 213.847 82.9 214.42 82.54C215.007 82.1667 215.467 81.6667 215.8 81.04C216.134 80.4133 216.3 79.6933 216.3 78.88ZM221.371 83.4C221.371 83.56 221.311 83.7 221.191 83.82C221.071 83.94 220.931 84 220.771 84C220.597 84 220.451 83.94 220.331 83.82C220.224 83.7 220.171 83.56 220.171 83.4V69.8C220.171 69.64 220.231 69.5 220.351 69.38C220.471 69.26 220.611 69.2 220.771 69.2C220.944 69.2 221.084 69.26 221.191 69.38C221.311 69.5 221.371 69.64 221.371 69.8V83.4ZM234.729 73.7C235.555 73.7 236.262 73.92 236.849 74.36C237.435 74.7867 237.835 75.4267 238.049 76.28L237.769 76.36L237.889 76C238.062 75.6 238.349 75.2267 238.749 74.88C239.162 74.52 239.629 74.2333 240.149 74.02C240.669 73.8067 241.195 73.7 241.729 73.7C242.569 73.7 243.242 73.88 243.749 74.24C244.269 74.6 244.642 75.0867 244.869 75.7C245.109 76.3 245.229 76.98 245.229 77.74V83.4C245.229 83.56 245.169 83.7 245.049 83.82C244.942 83.94 244.802 84 244.629 84C244.455 84 244.309 83.94 244.189 83.82C244.082 83.7 244.029 83.56 244.029 83.4V77.8C244.029 77.2533 243.942 76.7533 243.769 76.3C243.595 75.8467 243.322 75.4867 242.949 75.22C242.575 74.9533 242.075 74.82 241.449 74.82C240.902 74.82 240.375 74.9533 239.869 75.22C239.375 75.4867 238.969 75.8467 238.649 76.3C238.342 76.7533 238.189 77.2533 238.189 77.8V83.4C238.189 83.56 238.129 83.7 238.009 83.82C237.902 83.94 237.762 84 237.589 84C237.415 84 237.269 83.94 237.149 83.82C237.042 83.7 236.989 83.56 236.989 83.4V77.74C236.989 77.1933 236.909 76.7 236.749 76.26C236.589 75.82 236.329 75.4733 235.969 75.22C235.609 74.9533 235.122 74.82 234.509 74.82C233.962 74.82 233.442 74.9533 232.949 75.22C232.469 75.4733 232.075 75.82 231.769 76.26C231.475 76.7 231.329 77.1933 231.329 77.74V83.4C231.329 83.56 231.269 83.7 231.149 83.82C231.029 83.94 230.889 84 230.729 84C230.542 84 230.395 83.94 230.289 83.82C230.182 83.7 230.129 83.56 230.129 83.4V74.44C230.129 74.28 230.182 74.14 230.289 74.02C230.409 73.9 230.555 73.84 230.729 73.84C230.902 73.84 231.042 73.9 231.149 74.02C231.269 74.14 231.329 74.28 231.329 74.44V76.3L230.789 77.04C230.829 76.64 230.955 76.24 231.169 75.84C231.395 75.44 231.689 75.08 232.049 74.76C232.409 74.44 232.815 74.1867 233.269 74C233.735 73.8 234.222 73.7 234.729 73.7ZM256.751 73.78C256.924 73.78 257.064 73.84 257.171 73.96C257.291 74.08 257.351 74.2267 257.351 74.4V83.4C257.351 83.56 257.291 83.7 257.171 83.82C257.051 83.94 256.911 84 256.751 84C256.578 84 256.431 83.94 256.311 83.82C256.204 83.7 256.151 83.56 256.151 83.4V81.02L256.491 80.86C256.491 81.2333 256.384 81.6133 256.171 82C255.971 82.3867 255.691 82.7467 255.331 83.08C254.971 83.4133 254.544 83.6867 254.051 83.9C253.571 84.1 253.051 84.2 252.491 84.2C251.584 84.2 250.771 83.9667 250.051 83.5C249.344 83.0333 248.784 82.3933 248.371 81.58C247.971 80.7667 247.771 79.8533 247.771 78.84C247.771 77.8 247.978 76.8867 248.391 76.1C248.804 75.3 249.364 74.6733 250.071 74.22C250.778 73.7667 251.578 73.54 252.471 73.54C253.044 73.54 253.578 73.64 254.071 73.84C254.578 74.04 255.018 74.3133 255.391 74.66C255.764 75.0067 256.051 75.4067 256.251 75.86C256.464 76.3 256.571 76.76 256.571 77.24L256.151 76.94V74.4C256.151 74.2267 256.204 74.08 256.311 73.96C256.431 73.84 256.578 73.78 256.751 73.78ZM252.591 83.08C253.298 83.08 253.924 82.9 254.471 82.54C255.018 82.1667 255.444 81.66 255.751 81.02C256.071 80.3667 256.231 79.64 256.231 78.84C256.231 78.0533 256.071 77.3467 255.751 76.72C255.444 76.0933 255.018 75.5933 254.471 75.22C253.924 74.8467 253.298 74.66 252.591 74.66C251.898 74.66 251.271 74.84 250.711 75.2C250.164 75.56 249.731 76.0533 249.411 76.68C249.104 77.3067 248.951 78.0267 248.951 78.84C248.951 79.64 249.104 80.3667 249.411 81.02C249.731 81.66 250.164 82.1667 250.711 82.54C251.258 82.9 251.884 83.08 252.591 83.08ZM265.32 73.54C266.2 73.54 266.9 73.72 267.42 74.08C267.953 74.4267 268.333 74.9067 268.56 75.52C268.8 76.12 268.92 76.7867 268.92 77.52V83.4C268.92 83.56 268.86 83.7 268.74 83.82C268.62 83.94 268.48 84 268.32 84C268.133 84 267.987 83.94 267.88 83.82C267.773 83.7 267.72 83.56 267.72 83.4V77.58C267.72 77.0467 267.633 76.56 267.46 76.12C267.287 75.68 267 75.3267 266.6 75.06C266.213 74.7933 265.7 74.66 265.06 74.66C264.487 74.66 263.94 74.7933 263.42 75.06C262.913 75.3267 262.5 75.68 262.18 76.12C261.86 76.56 261.7 77.0467 261.7 77.58V83.4C261.7 83.56 261.64 83.7 261.52 83.82C261.4 83.94 261.26 84 261.1 84C260.913 84 260.767 83.94 260.66 83.82C260.553 83.7 260.5 83.56 260.5 83.4V74.44C260.5 74.28 260.553 74.14 260.66 74.02C260.78 73.9 260.927 73.84 261.1 73.84C261.273 73.84 261.413 73.9 261.52 74.02C261.64 74.14 261.7 74.28 261.7 74.44V76.12L261.24 76.84C261.267 76.4133 261.4 76.0067 261.64 75.62C261.893 75.22 262.213 74.8667 262.6 74.56C262.987 74.24 263.413 73.9933 263.88 73.82C264.36 73.6333 264.84 73.54 265.32 73.54ZM280.442 73.78C280.616 73.78 280.756 73.84 280.862 73.96C280.982 74.08 281.042 74.2267 281.042 74.4V83.4C281.042 83.56 280.982 83.7 280.862 83.82C280.742 83.94 280.602 84 280.442 84C280.269 84 280.122 83.94 280.002 83.82C279.896 83.7 279.842 83.56 279.842 83.4V81.02L280.182 80.86C280.182 81.2333 280.076 81.6133 279.862 82C279.662 82.3867 279.382 82.7467 279.022 83.08C278.662 83.4133 278.236 83.6867 277.742 83.9C277.262 84.1 276.742 84.2 276.182 84.2C275.276 84.2 274.462 83.9667 273.742 83.5C273.036 83.0333 272.476 82.3933 272.062 81.58C271.662 80.7667 271.462 79.8533 271.462 78.84C271.462 77.8 271.669 76.8867 272.082 76.1C272.496 75.3 273.056 74.6733 273.762 74.22C274.469 73.7667 275.269 73.54 276.162 73.54C276.736 73.54 277.269 73.64 277.762 73.84C278.269 74.04 278.709 74.3133 279.082 74.66C279.456 75.0067 279.742 75.4067 279.942 75.86C280.156 76.3 280.262 76.76 280.262 77.24L279.842 76.94V74.4C279.842 74.2267 279.896 74.08 280.002 73.96C280.122 73.84 280.269 73.78 280.442 73.78ZM276.282 83.08C276.989 83.08 277.616 82.9 278.162 82.54C278.709 82.1667 279.136 81.66 279.442 81.02C279.762 80.3667 279.922 79.64 279.922 78.84C279.922 78.0533 279.762 77.3467 279.442 76.72C279.136 76.0933 278.709 75.5933 278.162 75.22C277.616 74.8467 276.989 74.66 276.282 74.66C275.589 74.66 274.962 74.84 274.402 75.2C273.856 75.56 273.422 76.0533 273.102 76.68C272.796 77.3067 272.642 78.0267 272.642 78.84C272.642 79.64 272.796 80.3667 273.102 81.02C273.422 81.66 273.856 82.1667 274.402 82.54C274.949 82.9 275.576 83.08 276.282 83.08ZM288.451 73.54C289.051 73.54 289.605 73.6467 290.111 73.86C290.618 74.06 291.058 74.3267 291.431 74.66C291.818 74.98 292.118 75.3267 292.331 75.7C292.545 76.06 292.651 76.4067 292.651 76.74L292.311 76.26V74.4C292.311 74.2267 292.365 74.08 292.471 73.96C292.591 73.84 292.738 73.78 292.911 73.78C293.098 73.78 293.245 73.84 293.351 73.96C293.458 74.08 293.511 74.2267 293.511 74.4V83.06C293.511 84.1267 293.291 85.0267 292.851 85.76C292.411 86.4933 291.811 87.0467 291.051 87.42C290.305 87.8067 289.451 88 288.491 88C288.025 88 287.531 87.94 287.011 87.82C286.505 87.7 286.065 87.5467 285.691 87.36C285.331 87.1733 285.131 86.98 285.091 86.78C284.985 86.66 284.931 86.54 284.931 86.42C284.945 86.3133 285.005 86.22 285.111 86.14C285.245 86.0467 285.385 86.0333 285.531 86.1C285.678 86.18 285.898 86.28 286.191 86.4C286.325 86.44 286.505 86.5 286.731 86.58C286.958 86.66 287.225 86.7267 287.531 86.78C287.851 86.8467 288.185 86.88 288.531 86.88C289.731 86.88 290.658 86.5333 291.311 85.84C291.978 85.16 292.311 84.26 292.311 83.14V81.22L292.531 81.28C292.411 81.76 292.211 82.18 291.931 82.54C291.665 82.9 291.345 83.2067 290.971 83.46C290.598 83.7 290.191 83.88 289.751 84C289.325 84.1333 288.898 84.2 288.471 84.2C287.551 84.2 286.725 83.9667 285.991 83.5C285.258 83.0333 284.671 82.4 284.231 81.6C283.805 80.8 283.591 79.8867 283.591 78.86C283.591 77.8467 283.805 76.94 284.231 76.14C284.671 75.3267 285.251 74.6933 285.971 74.24C286.705 73.7733 287.531 73.54 288.451 73.54ZM288.591 74.66C287.858 74.66 287.198 74.8467 286.611 75.22C286.038 75.58 285.585 76.08 285.251 76.72C284.931 77.3467 284.771 78.06 284.771 78.86C284.771 79.66 284.931 80.38 285.251 81.02C285.585 81.66 286.038 82.1667 286.611 82.54C287.198 82.9 287.858 83.08 288.591 83.08C289.325 83.08 289.978 82.9 290.551 82.54C291.125 82.18 291.578 81.6867 291.911 81.06C292.245 80.42 292.411 79.6867 292.411 78.86C292.411 78.0333 292.245 77.3067 291.911 76.68C291.578 76.04 291.125 75.5467 290.551 75.2C289.978 74.84 289.325 74.66 288.591 74.66ZM300.901 84.2C299.875 84.2 298.968 83.98 298.181 83.54C297.395 83.1 296.781 82.4867 296.341 81.7C295.901 80.9133 295.681 79.9933 295.681 78.94C295.681 77.8067 295.901 76.84 296.341 76.04C296.795 75.24 297.375 74.6267 298.081 74.2C298.801 73.76 299.561 73.54 300.361 73.54C300.948 73.54 301.515 73.6467 302.061 73.86C302.621 74.06 303.115 74.3667 303.541 74.78C303.981 75.18 304.328 75.6733 304.581 76.26C304.848 76.8467 304.995 77.5267 305.021 78.3C305.008 78.46 304.941 78.6 304.821 78.72C304.701 78.8267 304.561 78.88 304.401 78.88H296.381L296.141 77.8H304.021L303.761 78.04V77.64C303.708 77.0133 303.508 76.48 303.161 76.04C302.815 75.6 302.395 75.2667 301.901 75.04C301.408 74.8133 300.895 74.7 300.361 74.7C299.961 74.7 299.548 74.78 299.121 74.94C298.708 75.1 298.328 75.3533 297.981 75.7C297.648 76.0333 297.375 76.4667 297.161 77C296.948 77.52 296.841 78.14 296.841 78.86C296.841 79.6467 297.001 80.36 297.321 81C297.641 81.64 298.101 82.1467 298.701 82.52C299.315 82.8933 300.041 83.08 300.881 83.08C301.348 83.08 301.768 83.0133 302.141 82.88C302.515 82.7467 302.841 82.5733 303.121 82.36C303.401 82.1333 303.635 81.9 303.821 81.66C303.968 81.54 304.115 81.48 304.261 81.48C304.395 81.48 304.508 81.5333 304.601 81.64C304.708 81.7467 304.761 81.8667 304.761 82C304.761 82.16 304.695 82.3 304.561 82.42C304.161 82.9 303.641 83.32 303.001 83.68C302.361 84.0267 301.661 84.2 300.901 84.2ZM312.19 73.7C313.016 73.7 313.723 73.92 314.31 74.36C314.896 74.7867 315.296 75.4267 315.51 76.28L315.23 76.36L315.35 76C315.523 75.6 315.81 75.2267 316.21 74.88C316.623 74.52 317.09 74.2333 317.61 74.02C318.13 73.8067 318.656 73.7 319.19 73.7C320.03 73.7 320.703 73.88 321.21 74.24C321.73 74.6 322.103 75.0867 322.33 75.7C322.57 76.3 322.69 76.98 322.69 77.74V83.4C322.69 83.56 322.63 83.7 322.51 83.82C322.403 83.94 322.263 84 322.09 84C321.916 84 321.77 83.94 321.65 83.82C321.543 83.7 321.49 83.56 321.49 83.4V77.8C321.49 77.2533 321.403 76.7533 321.23 76.3C321.056 75.8467 320.783 75.4867 320.41 75.22C320.036 74.9533 319.536 74.82 318.91 74.82C318.363 74.82 317.836 74.9533 317.33 75.22C316.836 75.4867 316.43 75.8467 316.11 76.3C315.803 76.7533 315.65 77.2533 315.65 77.8V83.4C315.65 83.56 315.59 83.7 315.47 83.82C315.363 83.94 315.223 84 315.05 84C314.876 84 314.73 83.94 314.61 83.82C314.503 83.7 314.45 83.56 314.45 83.4V77.74C314.45 77.1933 314.37 76.7 314.21 76.26C314.05 75.82 313.79 75.4733 313.43 75.22C313.07 74.9533 312.583 74.82 311.97 74.82C311.423 74.82 310.903 74.9533 310.41 75.22C309.93 75.4733 309.536 75.82 309.23 76.26C308.936 76.7 308.79 77.1933 308.79 77.74V83.4C308.79 83.56 308.73 83.7 308.61 83.82C308.49 83.94 308.35 84 308.19 84C308.003 84 307.856 83.94 307.75 83.82C307.643 83.7 307.59 83.56 307.59 83.4V74.44C307.59 74.28 307.643 74.14 307.75 74.02C307.87 73.9 308.016 73.84 308.19 73.84C308.363 73.84 308.503 73.9 308.61 74.02C308.73 74.14 308.79 74.28 308.79 74.44V76.3L308.25 77.04C308.29 76.64 308.416 76.24 308.63 75.84C308.856 75.44 309.15 75.08 309.51 74.76C309.87 74.44 310.276 74.1867 310.73 74C311.196 73.8 311.683 73.7 312.19 73.7ZM330.452 84.2C329.425 84.2 328.519 83.98 327.732 83.54C326.945 83.1 326.332 82.4867 325.892 81.7C325.452 80.9133 325.232 79.9933 325.232 78.94C325.232 77.8067 325.452 76.84 325.892 76.04C326.345 75.24 326.925 74.6267 327.632 74.2C328.352 73.76 329.112 73.54 329.912 73.54C330.499 73.54 331.065 73.6467 331.612 73.86C332.172 74.06 332.665 74.3667 333.092 74.78C333.532 75.18 333.879 75.6733 334.132 76.26C334.399 76.8467 334.545 77.5267 334.572 78.3C334.559 78.46 334.492 78.6 334.372 78.72C334.252 78.8267 334.112 78.88 333.952 78.88H325.932L325.692 77.8H333.572L333.312 78.04V77.64C333.259 77.0133 333.059 76.48 332.712 76.04C332.365 75.6 331.945 75.2667 331.452 75.04C330.959 74.8133 330.445 74.7 329.912 74.7C329.512 74.7 329.099 74.78 328.672 74.94C328.259 75.1 327.879 75.3533 327.532 75.7C327.199 76.0333 326.925 76.4667 326.712 77C326.499 77.52 326.392 78.14 326.392 78.86C326.392 79.6467 326.552 80.36 326.872 81C327.192 81.64 327.652 82.1467 328.252 82.52C328.865 82.8933 329.592 83.08 330.432 83.08C330.899 83.08 331.319 83.0133 331.692 82.88C332.065 82.7467 332.392 82.5733 332.672 82.36C332.952 82.1333 333.185 81.9 333.372 81.66C333.519 81.54 333.665 81.48 333.812 81.48C333.945 81.48 334.059 81.5333 334.152 81.64C334.259 81.7467 334.312 81.8667 334.312 82C334.312 82.16 334.245 82.3 334.112 82.42C333.712 82.9 333.192 83.32 332.552 83.68C331.912 84.0267 331.212 84.2 330.452 84.2ZM341.961 73.54C342.841 73.54 343.541 73.72 344.061 74.08C344.594 74.4267 344.974 74.9067 345.201 75.52C345.441 76.12 345.561 76.7867 345.561 77.52V83.4C345.561 83.56 345.501 83.7 345.381 83.82C345.261 83.94 345.121 84 344.961 84C344.774 84 344.627 83.94 344.521 83.82C344.414 83.7 344.361 83.56 344.361 83.4V77.58C344.361 77.0467 344.274 76.56 344.101 76.12C343.927 75.68 343.641 75.3267 343.241 75.06C342.854 74.7933 342.341 74.66 341.701 74.66C341.127 74.66 340.581 74.7933 340.061 75.06C339.554 75.3267 339.141 75.68 338.821 76.12C338.501 76.56 338.341 77.0467 338.341 77.58V83.4C338.341 83.56 338.281 83.7 338.161 83.82C338.041 83.94 337.901 84 337.741 84C337.554 84 337.407 83.94 337.301 83.82C337.194 83.7 337.141 83.56 337.141 83.4V74.44C337.141 74.28 337.194 74.14 337.301 74.02C337.421 73.9 337.567 73.84 337.741 73.84C337.914 73.84 338.054 73.9 338.161 74.02C338.281 74.14 338.341 74.28 338.341 74.44V76.12L337.881 76.84C337.907 76.4133 338.041 76.0067 338.281 75.62C338.534 75.22 338.854 74.8667 339.241 74.56C339.627 74.24 340.054 73.9933 340.521 73.82C341.001 73.6333 341.481 73.54 341.961 73.54ZM348.043 73.82H352.703C352.863 73.82 352.996 73.88 353.103 74C353.21 74.1067 353.263 74.24 353.263 74.4C353.263 74.5467 353.21 74.6733 353.103 74.78C352.996 74.8867 352.863 74.94 352.703 74.94H348.043C347.883 74.94 347.743 74.8867 347.623 74.78C347.516 74.66 347.463 74.5267 347.463 74.38C347.463 74.22 347.516 74.0867 347.623 73.98C347.743 73.8733 347.883 73.82 348.043 73.82ZM350.103 71C350.276 71 350.416 71.06 350.523 71.18C350.643 71.3 350.703 71.44 350.703 71.6V81.64C350.703 82.0133 350.75 82.2933 350.843 82.48C350.95 82.6667 351.083 82.7933 351.243 82.86C351.403 82.9133 351.563 82.94 351.723 82.94C351.83 82.94 351.923 82.9267 352.003 82.9C352.096 82.86 352.196 82.84 352.303 82.84C352.423 82.84 352.523 82.8867 352.603 82.98C352.696 83.0733 352.743 83.1933 352.743 83.34C352.743 83.5267 352.636 83.6867 352.423 83.82C352.21 83.94 351.956 84 351.663 84C351.543 84 351.363 83.9933 351.123 83.98C350.883 83.9533 350.636 83.88 350.383 83.76C350.13 83.6267 349.916 83.4 349.743 83.08C349.583 82.76 349.503 82.3 349.503 81.7V71.6C349.503 71.44 349.556 71.3 349.663 71.18C349.783 71.06 349.93 71 350.103 71ZM360.289 73.82H364.949C365.109 73.82 365.242 73.88 365.349 74C365.456 74.1067 365.509 74.24 365.509 74.4C365.509 74.5467 365.456 74.6733 365.349 74.78C365.242 74.8867 365.109 74.94 364.949 74.94H360.289C360.129 74.94 359.989 74.8867 359.869 74.78C359.762 74.66 359.709 74.5267 359.709 74.38C359.709 74.22 359.762 74.0867 359.869 73.98C359.989 73.8733 360.129 73.82 360.289 73.82ZM362.349 71C362.522 71 362.662 71.06 362.769 71.18C362.889 71.3 362.949 71.44 362.949 71.6V81.64C362.949 82.0133 362.996 82.2933 363.089 82.48C363.196 82.6667 363.329 82.7933 363.489 82.86C363.649 82.9133 363.809 82.94 363.969 82.94C364.076 82.94 364.169 82.9267 364.249 82.9C364.342 82.86 364.442 82.84 364.549 82.84C364.669 82.84 364.769 82.8867 364.849 82.98C364.942 83.0733 364.989 83.1933 364.989 83.34C364.989 83.5267 364.882 83.6867 364.669 83.82C364.456 83.94 364.202 84 363.909 84C363.789 84 363.609 83.9933 363.369 83.98C363.129 83.9533 362.882 83.88 362.629 83.76C362.376 83.6267 362.162 83.4 361.989 83.08C361.829 82.76 361.749 82.3 361.749 81.7V71.6C361.749 71.44 361.802 71.3 361.909 71.18C362.029 71.06 362.176 71 362.349 71ZM377.149 78.88C377.149 79.8933 376.929 80.8067 376.489 81.62C376.049 82.42 375.449 83.0533 374.689 83.52C373.929 83.9733 373.062 84.2 372.089 84.2C371.142 84.2 370.282 83.9733 369.509 83.52C368.749 83.0533 368.142 82.42 367.689 81.62C367.249 80.8067 367.029 79.8933 367.029 78.88C367.029 77.8533 367.249 76.94 367.689 76.14C368.142 75.34 368.749 74.7067 369.509 74.24C370.282 73.7733 371.142 73.54 372.089 73.54C373.062 73.54 373.929 73.7733 374.689 74.24C375.449 74.7067 376.049 75.34 376.489 76.14C376.929 76.94 377.149 77.8533 377.149 78.88ZM375.949 78.88C375.949 78.0667 375.782 77.3467 375.449 76.72C375.115 76.08 374.655 75.58 374.069 75.22C373.495 74.8467 372.835 74.66 372.089 74.66C371.369 74.66 370.715 74.8467 370.129 75.22C369.542 75.58 369.075 76.08 368.729 76.72C368.395 77.3467 368.229 78.0667 368.229 78.88C368.229 79.6933 368.395 80.4133 368.729 81.04C369.075 81.6667 369.542 82.1667 370.129 82.54C370.715 82.9 371.369 83.08 372.089 83.08C372.835 83.08 373.495 82.9 374.069 82.54C374.655 82.1667 375.115 81.6667 375.449 81.04C375.782 80.4133 375.949 79.6933 375.949 78.88ZM389.219 78.88C389.219 79.8933 388.999 80.8067 388.559 81.62C388.119 82.42 387.519 83.0533 386.759 83.52C385.999 83.9733 385.132 84.2 384.159 84.2C383.212 84.2 382.352 83.9733 381.579 83.52C380.819 83.0533 380.212 82.42 379.759 81.62C379.319 80.8067 379.099 79.8933 379.099 78.88C379.099 77.8533 379.319 76.94 379.759 76.14C380.212 75.34 380.819 74.7067 381.579 74.24C382.352 73.7733 383.212 73.54 384.159 73.54C385.132 73.54 385.999 73.7733 386.759 74.24C387.519 74.7067 388.119 75.34 388.559 76.14C388.999 76.94 389.219 77.8533 389.219 78.88ZM388.019 78.88C388.019 78.0667 387.852 77.3467 387.519 76.72C387.186 76.08 386.726 75.58 386.139 75.22C385.566 74.8467 384.906 74.66 384.159 74.66C383.439 74.66 382.786 74.8467 382.199 75.22C381.612 75.58 381.146 76.08 380.799 76.72C380.466 77.3467 380.299 78.0667 380.299 78.88C380.299 79.6933 380.466 80.4133 380.799 81.04C381.146 81.6667 381.612 82.1667 382.199 82.54C382.786 82.9 383.439 83.08 384.159 83.08C384.906 83.08 385.566 82.9 386.139 82.54C386.726 82.1667 387.186 81.6667 387.519 81.04C387.852 80.4133 388.019 79.6933 388.019 78.88ZM393.089 83.4C393.089 83.56 393.029 83.7 392.909 83.82C392.789 83.94 392.649 84 392.489 84C392.316 84 392.169 83.94 392.049 83.82C391.943 83.7 391.889 83.56 391.889 83.4V69.8C391.889 69.64 391.949 69.5 392.069 69.38C392.189 69.26 392.329 69.2 392.489 69.2C392.663 69.2 392.803 69.26 392.909 69.38C393.029 69.5 393.089 69.64 393.089 69.8V83.4ZM124.134 99.2C124.307 99.2 124.447 99.26 124.554 99.38C124.674 99.4867 124.734 99.6267 124.734 99.8V113.4C124.734 113.56 124.674 113.7 124.554 113.82C124.434 113.94 124.294 114 124.134 114C123.96 114 123.814 113.94 123.694 113.82C123.587 113.7 123.534 113.56 123.534 113.4V111.02L123.874 110.74C123.874 111.113 123.774 111.507 123.574 111.92C123.374 112.32 123.087 112.693 122.714 113.04C122.354 113.387 121.927 113.667 121.434 113.88C120.954 114.093 120.434 114.2 119.874 114.2C118.98 114.2 118.174 113.967 117.454 113.5C116.747 113.033 116.187 112.4 115.774 111.6C115.36 110.8 115.154 109.887 115.154 108.86C115.154 107.847 115.36 106.94 115.774 106.14C116.187 105.327 116.747 104.693 117.454 104.24C118.16 103.773 118.96 103.54 119.854 103.54C120.4 103.54 120.92 103.64 121.414 103.84C121.907 104.04 122.34 104.313 122.714 104.66C123.1 105.007 123.4 105.407 123.614 105.86C123.84 106.3 123.954 106.76 123.954 107.24L123.534 106.94V99.8C123.534 99.64 123.587 99.5 123.694 99.38C123.814 99.26 123.96 99.2 124.134 99.2ZM119.974 113.08C120.694 113.08 121.32 112.9 121.854 112.54C122.4 112.167 122.827 111.667 123.134 111.04C123.454 110.4 123.614 109.673 123.614 108.86C123.614 108.06 123.454 107.347 123.134 106.72C122.827 106.08 122.4 105.58 121.854 105.22C121.307 104.847 120.68 104.66 119.974 104.66C119.28 104.66 118.654 104.847 118.094 105.22C117.547 105.58 117.114 106.08 116.794 106.72C116.487 107.347 116.334 108.06 116.334 108.86C116.334 109.66 116.487 110.38 116.794 111.02C117.114 111.66 117.547 112.167 118.094 112.54C118.654 112.9 119.28 113.08 119.974 113.08ZM132.503 114.2C131.476 114.2 130.569 113.98 129.783 113.54C128.996 113.1 128.383 112.487 127.943 111.7C127.503 110.913 127.283 109.993 127.283 108.94C127.283 107.807 127.503 106.84 127.943 106.04C128.396 105.24 128.976 104.627 129.683 104.2C130.403 103.76 131.163 103.54 131.963 103.54C132.549 103.54 133.116 103.647 133.663 103.86C134.223 104.06 134.716 104.367 135.143 104.78C135.583 105.18 135.929 105.673 136.183 106.26C136.449 106.847 136.596 107.527 136.623 108.3C136.609 108.46 136.543 108.6 136.423 108.72C136.303 108.827 136.163 108.88 136.003 108.88H127.983L127.743 107.8H135.623L135.363 108.04V107.64C135.309 107.013 135.109 106.48 134.763 106.04C134.416 105.6 133.996 105.267 133.503 105.04C133.009 104.813 132.496 104.7 131.963 104.7C131.563 104.7 131.149 104.78 130.723 104.94C130.309 105.1 129.929 105.353 129.583 105.7C129.249 106.033 128.976 106.467 128.763 107C128.549 107.52 128.443 108.14 128.443 108.86C128.443 109.647 128.603 110.36 128.923 111C129.243 111.64 129.703 112.147 130.303 112.52C130.916 112.893 131.643 113.08 132.483 113.08C132.949 113.08 133.369 113.013 133.743 112.88C134.116 112.747 134.443 112.573 134.723 112.36C135.003 112.133 135.236 111.9 135.423 111.66C135.569 111.54 135.716 111.48 135.863 111.48C135.996 111.48 136.109 111.533 136.203 111.64C136.309 111.747 136.363 111.867 136.363 112C136.363 112.16 136.296 112.3 136.163 112.42C135.763 112.9 135.243 113.32 134.603 113.68C133.963 114.027 133.263 114.2 132.503 114.2ZM138.611 112.38C138.505 112.22 138.451 112.067 138.451 111.92C138.465 111.76 138.551 111.633 138.711 111.54C138.818 111.447 138.938 111.407 139.071 111.42C139.218 111.433 139.351 111.5 139.471 111.62C139.831 112.087 140.265 112.467 140.771 112.76C141.291 113.04 141.905 113.18 142.611 113.18C142.985 113.18 143.351 113.12 143.711 113C144.085 112.867 144.391 112.673 144.631 112.42C144.871 112.153 144.991 111.82 144.991 111.42C144.991 111.007 144.871 110.673 144.631 110.42C144.391 110.167 144.078 109.967 143.691 109.82C143.318 109.673 142.918 109.547 142.491 109.44C142.038 109.32 141.598 109.187 141.171 109.04C140.745 108.88 140.365 108.687 140.031 108.46C139.711 108.22 139.451 107.933 139.251 107.6C139.051 107.267 138.951 106.86 138.951 106.38C138.951 105.82 139.105 105.327 139.411 104.9C139.718 104.473 140.131 104.14 140.651 103.9C141.185 103.66 141.785 103.54 142.451 103.54C142.785 103.54 143.145 103.587 143.531 103.68C143.918 103.76 144.298 103.9 144.671 104.1C145.045 104.3 145.378 104.573 145.671 104.92C145.791 105.04 145.851 105.18 145.851 105.34C145.851 105.487 145.785 105.62 145.651 105.74C145.545 105.82 145.418 105.86 145.271 105.86C145.138 105.86 145.025 105.807 144.931 105.7C144.611 105.34 144.231 105.067 143.791 104.88C143.351 104.693 142.878 104.6 142.371 104.6C141.985 104.6 141.618 104.667 141.271 104.8C140.938 104.92 140.658 105.107 140.431 105.36C140.205 105.613 140.091 105.947 140.091 106.36C140.118 106.747 140.251 107.06 140.491 107.3C140.745 107.54 141.071 107.74 141.471 107.9C141.885 108.06 142.345 108.207 142.851 108.34C143.278 108.447 143.685 108.573 144.071 108.72C144.471 108.867 144.818 109.053 145.111 109.28C145.418 109.493 145.658 109.767 145.831 110.1C146.018 110.433 146.111 110.853 146.111 111.36C146.111 111.947 145.945 112.453 145.611 112.88C145.291 113.307 144.858 113.633 144.311 113.86C143.765 114.087 143.158 114.2 142.491 114.2C141.771 114.2 141.071 114.06 140.391 113.78C139.725 113.5 139.131 113.033 138.611 112.38ZM149.726 113.4C149.726 113.56 149.666 113.7 149.546 113.82C149.426 113.94 149.286 114 149.126 114C148.953 114 148.806 113.94 148.686 113.82C148.58 113.7 148.526 113.56 148.526 113.4V104.2C148.526 104.04 148.58 103.9 148.686 103.78C148.806 103.66 148.953 103.6 149.126 103.6C149.3 103.6 149.44 103.66 149.546 103.78C149.666 103.9 149.726 104.04 149.726 104.2V113.4ZM149.126 102.26C148.846 102.26 148.633 102.2 148.486 102.08C148.353 101.947 148.286 101.76 148.286 101.52V101.32C148.286 101.08 148.36 100.9 148.506 100.78C148.666 100.647 148.88 100.58 149.146 100.58C149.4 100.58 149.593 100.647 149.726 100.78C149.873 100.9 149.946 101.08 149.946 101.32V101.52C149.946 101.76 149.873 101.947 149.726 102.08C149.593 102.2 149.393 102.26 149.126 102.26ZM157.104 103.54C157.704 103.54 158.257 103.647 158.764 103.86C159.27 104.06 159.71 104.327 160.084 104.66C160.47 104.98 160.77 105.327 160.984 105.7C161.197 106.06 161.304 106.407 161.304 106.74L160.964 106.26V104.4C160.964 104.227 161.017 104.08 161.124 103.96C161.244 103.84 161.39 103.78 161.564 103.78C161.75 103.78 161.897 103.84 162.004 103.96C162.11 104.08 162.164 104.227 162.164 104.4V113.06C162.164 114.127 161.944 115.027 161.504 115.76C161.064 116.493 160.464 117.047 159.704 117.42C158.957 117.807 158.104 118 157.144 118C156.677 118 156.184 117.94 155.664 117.82C155.157 117.7 154.717 117.547 154.344 117.36C153.984 117.173 153.784 116.98 153.744 116.78C153.637 116.66 153.584 116.54 153.584 116.42C153.597 116.313 153.657 116.22 153.764 116.14C153.897 116.047 154.037 116.033 154.184 116.1C154.33 116.18 154.55 116.28 154.844 116.4C154.977 116.44 155.157 116.5 155.384 116.58C155.61 116.66 155.877 116.727 156.184 116.78C156.504 116.847 156.837 116.88 157.184 116.88C158.384 116.88 159.31 116.533 159.964 115.84C160.63 115.16 160.964 114.26 160.964 113.14V111.22L161.184 111.28C161.064 111.76 160.864 112.18 160.584 112.54C160.317 112.9 159.997 113.207 159.624 113.46C159.25 113.7 158.844 113.88 158.404 114C157.977 114.133 157.55 114.2 157.124 114.2C156.204 114.2 155.377 113.967 154.644 113.5C153.91 113.033 153.324 112.4 152.884 111.6C152.457 110.8 152.244 109.887 152.244 108.86C152.244 107.847 152.457 106.94 152.884 106.14C153.324 105.327 153.904 104.693 154.624 104.24C155.357 103.773 156.184 103.54 157.104 103.54ZM157.244 104.66C156.51 104.66 155.85 104.847 155.264 105.22C154.69 105.58 154.237 106.08 153.904 106.72C153.584 107.347 153.424 108.06 153.424 108.86C153.424 109.66 153.584 110.38 153.904 111.02C154.237 111.66 154.69 112.167 155.264 112.54C155.85 112.9 156.51 113.08 157.244 113.08C157.977 113.08 158.63 112.9 159.204 112.54C159.777 112.18 160.23 111.687 160.564 111.06C160.897 110.42 161.064 109.687 161.064 108.86C161.064 108.033 160.897 107.307 160.564 106.68C160.23 106.04 159.777 105.547 159.204 105.2C158.63 104.84 157.977 104.66 157.244 104.66ZM170.144 103.54C171.024 103.54 171.724 103.72 172.244 104.08C172.777 104.427 173.157 104.907 173.384 105.52C173.624 106.12 173.744 106.787 173.744 107.52V113.4C173.744 113.56 173.684 113.7 173.564 113.82C173.444 113.94 173.304 114 173.144 114C172.957 114 172.811 113.94 172.704 113.82C172.597 113.7 172.544 113.56 172.544 113.4V107.58C172.544 107.047 172.457 106.56 172.284 106.12C172.111 105.68 171.824 105.327 171.424 105.06C171.037 104.793 170.524 104.66 169.884 104.66C169.311 104.66 168.764 104.793 168.244 105.06C167.737 105.327 167.324 105.68 167.004 106.12C166.684 106.56 166.524 107.047 166.524 107.58V113.4C166.524 113.56 166.464 113.7 166.344 113.82C166.224 113.94 166.084 114 165.924 114C165.737 114 165.591 113.94 165.484 113.82C165.377 113.7 165.324 113.56 165.324 113.4V104.44C165.324 104.28 165.377 104.14 165.484 104.02C165.604 103.9 165.751 103.84 165.924 103.84C166.097 103.84 166.237 103.9 166.344 104.02C166.464 104.14 166.524 104.28 166.524 104.44V106.12L166.064 106.84C166.091 106.413 166.224 106.007 166.464 105.62C166.717 105.22 167.037 104.867 167.424 104.56C167.811 104.24 168.237 103.993 168.704 103.82C169.184 103.633 169.664 103.54 170.144 103.54ZM181.507 114.2C180.48 114.2 179.573 113.98 178.787 113.54C178 113.1 177.387 112.487 176.947 111.7C176.507 110.913 176.287 109.993 176.287 108.94C176.287 107.807 176.507 106.84 176.947 106.04C177.4 105.24 177.98 104.627 178.687 104.2C179.407 103.76 180.167 103.54 180.967 103.54C181.553 103.54 182.12 103.647 182.667 103.86C183.227 104.06 183.72 104.367 184.147 104.78C184.587 105.18 184.933 105.673 185.187 106.26C185.453 106.847 185.6 107.527 185.627 108.3C185.613 108.46 185.547 108.6 185.427 108.72C185.307 108.827 185.167 108.88 185.007 108.88H176.987L176.747 107.8H184.627L184.367 108.04V107.64C184.313 107.013 184.113 106.48 183.767 106.04C183.42 105.6 183 105.267 182.507 105.04C182.013 104.813 181.5 104.7 180.967 104.7C180.567 104.7 180.153 104.78 179.727 104.94C179.313 105.1 178.933 105.353 178.587 105.7C178.253 106.033 177.98 106.467 177.767 107C177.553 107.52 177.447 108.14 177.447 108.86C177.447 109.647 177.607 110.36 177.927 111C178.247 111.64 178.707 112.147 179.307 112.52C179.92 112.893 180.647 113.08 181.487 113.08C181.953 113.08 182.373 113.013 182.747 112.88C183.12 112.747 183.447 112.573 183.727 112.36C184.007 112.133 184.24 111.9 184.427 111.66C184.573 111.54 184.72 111.48 184.867 111.48C185 111.48 185.113 111.533 185.207 111.64C185.313 111.747 185.367 111.867 185.367 112C185.367 112.16 185.3 112.3 185.167 112.42C184.767 112.9 184.247 113.32 183.607 113.68C182.967 114.027 182.267 114.2 181.507 114.2ZM196.575 99.2C196.749 99.2 196.889 99.26 196.995 99.38C197.115 99.4867 197.175 99.6267 197.175 99.8V113.4C197.175 113.56 197.115 113.7 196.995 113.82C196.875 113.94 196.735 114 196.575 114C196.402 114 196.255 113.94 196.135 113.82C196.029 113.7 195.975 113.56 195.975 113.4V111.02L196.315 110.74C196.315 111.113 196.215 111.507 196.015 111.92C195.815 112.32 195.529 112.693 195.155 113.04C194.795 113.387 194.369 113.667 193.875 113.88C193.395 114.093 192.875 114.2 192.315 114.2C191.422 114.2 190.615 113.967 189.895 113.5C189.189 113.033 188.629 112.4 188.215 111.6C187.802 110.8 187.595 109.887 187.595 108.86C187.595 107.847 187.802 106.94 188.215 106.14C188.629 105.327 189.189 104.693 189.895 104.24C190.602 103.773 191.402 103.54 192.295 103.54C192.842 103.54 193.362 103.64 193.855 103.84C194.349 104.04 194.782 104.313 195.155 104.66C195.542 105.007 195.842 105.407 196.055 105.86C196.282 106.3 196.395 106.76 196.395 107.24L195.975 106.94V99.8C195.975 99.64 196.029 99.5 196.135 99.38C196.255 99.26 196.402 99.2 196.575 99.2ZM192.415 113.08C193.135 113.08 193.762 112.9 194.295 112.54C194.842 112.167 195.269 111.667 195.575 111.04C195.895 110.4 196.055 109.673 196.055 108.86C196.055 108.06 195.895 107.347 195.575 106.72C195.269 106.08 194.842 105.58 194.295 105.22C193.749 104.847 193.122 104.66 192.415 104.66C191.722 104.66 191.095 104.847 190.535 105.22C189.989 105.58 189.555 106.08 189.235 106.72C188.929 107.347 188.775 108.06 188.775 108.86C188.775 109.66 188.929 110.38 189.235 111.02C189.555 111.66 189.989 112.167 190.535 112.54C191.095 112.9 191.722 113.08 192.415 113.08ZM209.493 99.28C209.693 99.28 209.906 99.3 210.133 99.34C210.373 99.38 210.58 99.4533 210.753 99.56C210.926 99.6533 211.013 99.8 211.013 100C211.013 100.147 210.96 100.28 210.853 100.4C210.746 100.507 210.626 100.56 210.493 100.56C210.36 100.56 210.193 100.527 209.993 100.46C209.793 100.38 209.58 100.34 209.353 100.34C209.073 100.34 208.833 100.407 208.633 100.54C208.433 100.66 208.28 100.84 208.173 101.08C208.066 101.307 208.013 101.587 208.013 101.92V113.4C208.013 113.56 207.953 113.7 207.833 113.82C207.726 113.94 207.586 114 207.413 114C207.24 114 207.093 113.94 206.973 113.82C206.866 113.7 206.813 113.56 206.813 113.4V101.92C206.813 101.067 207.06 100.413 207.553 99.96C208.06 99.5067 208.706 99.28 209.493 99.28ZM210.253 103.98C210.413 103.98 210.546 104.033 210.653 104.14C210.76 104.247 210.813 104.38 210.813 104.54C210.813 104.7 210.76 104.833 210.653 104.94C210.546 105.047 210.413 105.1 210.253 105.1H205.353C205.206 105.1 205.073 105.047 204.953 104.94C204.846 104.82 204.793 104.687 204.793 104.54C204.793 104.367 204.846 104.233 204.953 104.14C205.073 104.033 205.206 103.98 205.353 103.98H210.253ZM221.778 108.88C221.778 109.893 221.558 110.807 221.118 111.62C220.678 112.42 220.078 113.053 219.318 113.52C218.558 113.973 217.691 114.2 216.718 114.2C215.771 114.2 214.911 113.973 214.138 113.52C213.378 113.053 212.771 112.42 212.318 111.62C211.878 110.807 211.658 109.893 211.658 108.88C211.658 107.853 211.878 106.94 212.318 106.14C212.771 105.34 213.378 104.707 214.138 104.24C214.911 103.773 215.771 103.54 216.718 103.54C217.691 103.54 218.558 103.773 219.318 104.24C220.078 104.707 220.678 105.34 221.118 106.14C221.558 106.94 221.778 107.853 221.778 108.88ZM220.578 108.88C220.578 108.067 220.411 107.347 220.078 106.72C219.744 106.08 219.284 105.58 218.698 105.22C218.124 104.847 217.464 104.66 216.718 104.66C215.998 104.66 215.344 104.847 214.758 105.22C214.171 105.58 213.704 106.08 213.358 106.72C213.024 107.347 212.858 108.067 212.858 108.88C212.858 109.693 213.024 110.413 213.358 111.04C213.704 111.667 214.171 112.167 214.758 112.54C215.344 112.9 215.998 113.08 216.718 113.08C217.464 113.08 218.124 112.9 218.698 112.54C219.284 112.167 219.744 111.667 220.078 111.04C220.411 110.413 220.578 109.693 220.578 108.88ZM224.928 114C224.741 114 224.595 113.94 224.488 113.82C224.381 113.7 224.328 113.56 224.328 113.4V104.44C224.328 104.28 224.381 104.14 224.488 104.02C224.608 103.9 224.755 103.84 224.928 103.84C225.101 103.84 225.241 103.9 225.348 104.02C225.468 104.14 225.528 104.28 225.528 104.44V107.44L225.228 107.5C225.268 107.033 225.381 106.573 225.568 106.12C225.768 105.653 226.035 105.227 226.368 104.84C226.701 104.453 227.095 104.14 227.548 103.9C228.015 103.66 228.535 103.54 229.108 103.54C229.348 103.54 229.581 103.593 229.808 103.7C230.035 103.793 230.148 103.953 230.148 104.18C230.148 104.38 230.095 104.533 229.988 104.64C229.881 104.747 229.755 104.8 229.608 104.8C229.488 104.8 229.355 104.767 229.208 104.7C229.075 104.633 228.895 104.6 228.668 104.6C228.295 104.6 227.921 104.713 227.548 104.94C227.175 105.153 226.835 105.447 226.528 105.82C226.221 106.193 225.975 106.613 225.788 107.08C225.615 107.533 225.528 107.993 225.528 108.46V113.4C225.528 113.56 225.468 113.7 225.348 113.82C225.228 113.94 225.088 114 224.928 114ZM242.112 114.2C241.085 114.2 240.179 113.98 239.392 113.54C238.605 113.1 237.992 112.487 237.552 111.7C237.112 110.913 236.892 109.993 236.892 108.94C236.892 107.807 237.112 106.84 237.552 106.04C238.005 105.24 238.585 104.627 239.292 104.2C240.012 103.76 240.772 103.54 241.572 103.54C242.159 103.54 242.725 103.647 243.272 103.86C243.832 104.06 244.325 104.367 244.752 104.78C245.192 105.18 245.539 105.673 245.792 106.26C246.059 106.847 246.205 107.527 246.232 108.3C246.219 108.46 246.152 108.6 246.032 108.72C245.912 108.827 245.772 108.88 245.612 108.88H237.592L237.352 107.8H245.232L244.972 108.04V107.64C244.919 107.013 244.719 106.48 244.372 106.04C244.025 105.6 243.605 105.267 243.112 105.04C242.619 104.813 242.105 104.7 241.572 104.7C241.172 104.7 240.759 104.78 240.332 104.94C239.919 105.1 239.539 105.353 239.192 105.7C238.859 106.033 238.585 106.467 238.372 107C238.159 107.52 238.052 108.14 238.052 108.86C238.052 109.647 238.212 110.36 238.532 111C238.852 111.64 239.312 112.147 239.912 112.52C240.525 112.893 241.252 113.08 242.092 113.08C242.559 113.08 242.979 113.013 243.352 112.88C243.725 112.747 244.052 112.573 244.332 112.36C244.612 112.133 244.845 111.9 245.032 111.66C245.179 111.54 245.325 111.48 245.472 111.48C245.605 111.48 245.719 111.533 245.812 111.64C245.919 111.747 245.972 111.867 245.972 112C245.972 112.16 245.905 112.3 245.772 112.42C245.372 112.9 244.852 113.32 244.212 113.68C243.572 114.027 242.872 114.2 242.112 114.2ZM248.463 103.56C248.57 103.56 248.676 103.593 248.783 103.66C248.89 103.727 248.97 103.827 249.023 103.96L252.523 112.28L252.263 112.44L255.843 103.96C255.95 103.693 256.143 103.567 256.423 103.58C256.556 103.58 256.683 103.627 256.803 103.72C256.923 103.8 256.983 103.92 256.983 104.08C256.983 104.16 256.97 104.227 256.943 104.28C256.93 104.32 256.916 104.367 256.903 104.42L252.983 113.62C252.876 113.86 252.696 113.987 252.443 114C252.323 114.013 252.203 113.987 252.083 113.92C251.976 113.84 251.896 113.74 251.843 113.62L247.903 104.42C247.89 104.393 247.876 104.353 247.863 104.3C247.85 104.247 247.843 104.193 247.843 104.14C247.843 103.993 247.896 103.86 248.003 103.74C248.11 103.62 248.263 103.56 248.463 103.56ZM263.811 114.2C262.785 114.2 261.878 113.98 261.091 113.54C260.305 113.1 259.691 112.487 259.251 111.7C258.811 110.913 258.591 109.993 258.591 108.94C258.591 107.807 258.811 106.84 259.251 106.04C259.705 105.24 260.285 104.627 260.991 104.2C261.711 103.76 262.471 103.54 263.271 103.54C263.858 103.54 264.425 103.647 264.971 103.86C265.531 104.06 266.025 104.367 266.451 104.78C266.891 105.18 267.238 105.673 267.491 106.26C267.758 106.847 267.905 107.527 267.931 108.3C267.918 108.46 267.851 108.6 267.731 108.72C267.611 108.827 267.471 108.88 267.311 108.88H259.291L259.051 107.8H266.931L266.671 108.04V107.64C266.618 107.013 266.418 106.48 266.071 106.04C265.725 105.6 265.305 105.267 264.811 105.04C264.318 104.813 263.805 104.7 263.271 104.7C262.871 104.7 262.458 104.78 262.031 104.94C261.618 105.1 261.238 105.353 260.891 105.7C260.558 106.033 260.285 106.467 260.071 107C259.858 107.52 259.751 108.14 259.751 108.86C259.751 109.647 259.911 110.36 260.231 111C260.551 111.64 261.011 112.147 261.611 112.52C262.225 112.893 262.951 113.08 263.791 113.08C264.258 113.08 264.678 113.013 265.051 112.88C265.425 112.747 265.751 112.573 266.031 112.36C266.311 112.133 266.545 111.9 266.731 111.66C266.878 111.54 267.025 111.48 267.171 111.48C267.305 111.48 267.418 111.533 267.511 111.64C267.618 111.747 267.671 111.867 267.671 112C267.671 112.16 267.605 112.3 267.471 112.42C267.071 112.9 266.551 113.32 265.911 113.68C265.271 114.027 264.571 114.2 263.811 114.2ZM271.1 114C270.913 114 270.767 113.94 270.66 113.82C270.553 113.7 270.5 113.56 270.5 113.4V104.44C270.5 104.28 270.553 104.14 270.66 104.02C270.78 103.9 270.927 103.84 271.1 103.84C271.273 103.84 271.413 103.9 271.52 104.02C271.64 104.14 271.7 104.28 271.7 104.44V107.44L271.4 107.5C271.44 107.033 271.553 106.573 271.74 106.12C271.94 105.653 272.207 105.227 272.54 104.84C272.873 104.453 273.267 104.14 273.72 103.9C274.187 103.66 274.707 103.54 275.28 103.54C275.52 103.54 275.753 103.593 275.98 103.7C276.207 103.793 276.32 103.953 276.32 104.18C276.32 104.38 276.267 104.533 276.16 104.64C276.053 104.747 275.927 104.8 275.78 104.8C275.66 104.8 275.527 104.767 275.38 104.7C275.247 104.633 275.067 104.6 274.84 104.6C274.467 104.6 274.093 104.713 273.72 104.94C273.347 105.153 273.007 105.447 272.7 105.82C272.393 106.193 272.147 106.613 271.96 107.08C271.787 107.533 271.7 107.993 271.7 108.46V113.4C271.7 113.56 271.64 113.7 271.52 113.82C271.4 113.94 271.26 114 271.1 114ZM285.815 103.6C285.989 103.6 286.129 103.66 286.235 103.78C286.355 103.9 286.415 104.04 286.415 104.2V113.02C286.415 114.1 286.202 115.007 285.775 115.74C285.349 116.487 284.775 117.047 284.055 117.42C283.335 117.807 282.515 118 281.595 118C281.022 118 280.489 117.933 279.995 117.8C279.515 117.68 279.122 117.52 278.815 117.32C278.655 117.227 278.535 117.113 278.455 116.98C278.375 116.847 278.369 116.707 278.435 116.56C278.502 116.373 278.602 116.247 278.735 116.18C278.882 116.127 279.029 116.133 279.175 116.2C279.402 116.32 279.729 116.467 280.155 116.64C280.582 116.813 281.069 116.9 281.615 116.9C282.349 116.9 282.982 116.747 283.515 116.44C284.062 116.133 284.482 115.687 284.775 115.1C285.069 114.527 285.215 113.84 285.215 113.04V111.6L285.355 112.08C285.155 112.493 284.869 112.86 284.495 113.18C284.135 113.5 283.715 113.753 283.235 113.94C282.769 114.113 282.269 114.2 281.735 114.2C280.935 114.2 280.269 114.04 279.735 113.72C279.215 113.387 278.829 112.933 278.575 112.36C278.322 111.787 278.195 111.113 278.195 110.34V104.2C278.195 104.04 278.249 103.9 278.355 103.78C278.462 103.66 278.609 103.6 278.795 103.6C278.969 103.6 279.109 103.66 279.215 103.78C279.335 103.9 279.395 104.04 279.395 104.2V110.16C279.395 111.093 279.595 111.813 279.995 112.32C280.409 112.827 281.075 113.08 281.995 113.08C282.569 113.08 283.095 112.947 283.575 112.68C284.055 112.4 284.449 112.04 284.755 111.6C285.062 111.147 285.215 110.667 285.215 110.16V104.2C285.215 104.04 285.269 103.9 285.375 103.78C285.495 103.66 285.642 103.6 285.815 103.6ZM298.985 108.88C298.985 109.893 298.765 110.807 298.325 111.62C297.885 112.42 297.285 113.053 296.525 113.52C295.765 113.973 294.898 114.2 293.925 114.2C292.978 114.2 292.118 113.973 291.345 113.52C290.585 113.053 289.978 112.42 289.525 111.62C289.085 110.807 288.865 109.893 288.865 108.88C288.865 107.853 289.085 106.94 289.525 106.14C289.978 105.34 290.585 104.707 291.345 104.24C292.118 103.773 292.978 103.54 293.925 103.54C294.898 103.54 295.765 103.773 296.525 104.24C297.285 104.707 297.885 105.34 298.325 106.14C298.765 106.94 298.985 107.853 298.985 108.88ZM297.785 108.88C297.785 108.067 297.618 107.347 297.285 106.72C296.951 106.08 296.491 105.58 295.905 105.22C295.331 104.847 294.671 104.66 293.925 104.66C293.205 104.66 292.551 104.847 291.965 105.22C291.378 105.58 290.911 106.08 290.565 106.72C290.231 107.347 290.065 108.067 290.065 108.88C290.065 109.693 290.231 110.413 290.565 111.04C290.911 111.667 291.378 112.167 291.965 112.54C292.551 112.9 293.205 113.08 293.925 113.08C294.671 113.08 295.331 112.9 295.905 112.54C296.491 112.167 296.951 111.667 297.285 111.04C297.618 110.413 297.785 109.693 297.785 108.88ZM306.355 103.54C307.235 103.54 307.935 103.72 308.455 104.08C308.988 104.427 309.368 104.907 309.595 105.52C309.835 106.12 309.955 106.787 309.955 107.52V113.4C309.955 113.56 309.895 113.7 309.775 113.82C309.655 113.94 309.515 114 309.355 114C309.168 114 309.022 113.94 308.915 113.82C308.808 113.7 308.755 113.56 308.755 113.4V107.58C308.755 107.047 308.668 106.56 308.495 106.12C308.322 105.68 308.035 105.327 307.635 105.06C307.248 104.793 306.735 104.66 306.095 104.66C305.522 104.66 304.975 104.793 304.455 105.06C303.948 105.327 303.535 105.68 303.215 106.12C302.895 106.56 302.735 107.047 302.735 107.58V113.4C302.735 113.56 302.675 113.7 302.555 113.82C302.435 113.94 302.295 114 302.135 114C301.948 114 301.802 113.94 301.695 113.82C301.588 113.7 301.535 113.56 301.535 113.4V104.44C301.535 104.28 301.588 104.14 301.695 104.02C301.815 103.9 301.962 103.84 302.135 103.84C302.308 103.84 302.448 103.9 302.555 104.02C302.675 104.14 302.735 104.28 302.735 104.44V106.12L302.275 106.84C302.302 106.413 302.435 106.007 302.675 105.62C302.928 105.22 303.248 104.867 303.635 104.56C304.022 104.24 304.448 103.993 304.915 103.82C305.395 103.633 305.875 103.54 306.355 103.54ZM317.718 114.2C316.691 114.2 315.784 113.98 314.998 113.54C314.211 113.1 313.598 112.487 313.158 111.7C312.718 110.913 312.498 109.993 312.498 108.94C312.498 107.807 312.718 106.84 313.158 106.04C313.611 105.24 314.191 104.627 314.898 104.2C315.618 103.76 316.378 103.54 317.178 103.54C317.764 103.54 318.331 103.647 318.878 103.86C319.438 104.06 319.931 104.367 320.358 104.78C320.798 105.18 321.144 105.673 321.398 106.26C321.664 106.847 321.811 107.527 321.838 108.3C321.824 108.46 321.758 108.6 321.638 108.72C321.518 108.827 321.378 108.88 321.218 108.88H313.198L312.958 107.8H320.838L320.578 108.04V107.64C320.524 107.013 320.324 106.48 319.978 106.04C319.631 105.6 319.211 105.267 318.718 105.04C318.224 104.813 317.711 104.7 317.178 104.7C316.778 104.7 316.364 104.78 315.938 104.94C315.524 105.1 315.144 105.353 314.798 105.7C314.464 106.033 314.191 106.467 313.978 107C313.764 107.52 313.658 108.14 313.658 108.86C313.658 109.647 313.818 110.36 314.138 111C314.458 111.64 314.918 112.147 315.518 112.52C316.131 112.893 316.858 113.08 317.698 113.08C318.164 113.08 318.584 113.013 318.958 112.88C319.331 112.747 319.658 112.573 319.938 112.36C320.218 112.133 320.451 111.9 320.638 111.66C320.784 111.54 320.931 111.48 321.078 111.48C321.211 111.48 321.324 111.533 321.418 111.64C321.524 111.747 321.578 111.867 321.578 112C321.578 112.16 321.511 112.3 321.378 112.42C320.978 112.9 320.458 113.32 319.818 113.68C319.178 114.027 318.478 114.2 317.718 114.2Z" fill="white"/>
</svg>
