<svg viewBox="0 0 720.5002 582.6515" fill="none" xmlns="http://www.w3.org/2000/svg" xmlns:xlink="http://www.w3.org/1999/xlink" id="ea21f0bf" x="0" y="0"><g id="landing page" data-node-id="957:108892" clip-path="url(#clip0_957_108892)"><g id="Middle section" data-node-id="957:109164"><g id="Frame 1618873004" data-node-id="957:109172"><g id="2_2" data-node-id="957:109173" opacity="0.5">
<g id="Group_3" data-node-id="957:109174">
<path id="Vector_47" data-node-id="957:109175" d="M251.9702,164.8328c-2.602,-7.52 -9.633,-6.87 -16.664,-7.19c-11.32,-0.57 -22.64,-0.97 -33.96,-1.3c-22.639,-0.56 -45.279,-0.73 -67.919,-0.48c-21.866,0.16 -43.733,-0.57 -65.529,-2.18c-10.898,-0.81 -21.796,-1.94 -32.694,-3.24c-7.312,-0.89 -17.296,-5.98 -24.397,-2.34c-4.43,2.26 -6.891,10.42 -7.664,15.43c-0.914,5.98 -1.828,11.96 -2.391,18.02c-0.703,7.76 -0.21,16 5.063,21.66c8.156,8.65 22.921,7.11 33.256,8.41c48.444,6.06 97.59,5.89 146.245,2.82c14.343,-0.89 28.757,-1.21 43.1,-2.5c9.913,-0.89 25.1,-0.49 25.592,-15.76c0.282,-9.05 -0.14,-18.5 -1.195,-27.47c-0.14,-1.54 -0.492,-2.75 -0.843,-3.88zM29.7902,198.1228c0.071,-0.16 0.141,-0.24 0.211,-0.4c0.211,0.16 0.422,0.32 0.633,0.48c-0.281,0 -0.562,0 -0.844,-0.08z" fill="#F3E6BE"/>
<path id="Vector_48" data-node-id="957:109176" d="M265.3992,87.3328c-0.422,-11.88 -0.985,-26.75 -5.414,-36.28c-11.32,-24.32 -58.709,-13.17 -76.708,-12.12c-19.476,1.13 -38.952,2.42 -58.428,4.04c-16.663,1.29 -36.139,0 -52.24,5.09c-11.531,3.64 -13.499,16.65 -12.163,28.52c1.335,12.29 1.125,46.95 15.186,48.89c38.108,5.34 76.568,2.43 114.746,0.49c24.116,-1.21 77.2,11.96 75.302,-32.65c-0.211,-1.94 -0.281,-3.96 -0.281,-5.98z" fill="#F5A883"/>
</g>
</g><g id="8" data-node-id="957:109177" opacity="0.6">
<g id="Group_4" data-node-id="957:109178">
<path id="Vector_49" data-node-id="957:109179" d="M728.6602,2.6828v429.08c-2.89,1.18 -5.78,2.22 -8.83,3.1c-21.32,6.2 -45.24,3.4 -67.02,2.51c-47.21,-1.77 -94.28,-5.16 -140.89,-12.25c-46.15,-6.94 -90.62,-20.38 -133.27,-38.98c-22.24,-9.75 -42.95,-22 -58.18,-41.05c-11.58,-14.62 -17.82,-31.16 -18.74,-49.61c-0.76,-14.33 3.36,-29.09 6.1,-43.27c5.02,-25.54 9.74,-50.94 21.93,-74.41c10.81,-20.82 28.63,-38.25 46.61,-53.45c33.2,-28.21 69.6,-53.16 109.05,-72.65c38.99,-19.34 80.88,-34.85 123.98,-42.97c23.46,-4.43 47.53,-7.38 71.59,-8.12c15.99,-0.44 31.83,0.44 47.67,2.07z" fill="#DDE0B6"/>
<path id="Vector_50" data-node-id="957:109180" d="M391.4502,459.0828c-5.64,-11.22 -15.24,-20.67 -25.29,-28.35c-19.49,-14.77 -39.9,-27.61 -62.45,-37.65c-24.822,-10.93 -50.411,-19.94 -77.065,-25.99c-27.111,-6.2 -54.832,-10.19 -82.401,-13.14c-13.403,-1.48 -26.807,7.08 -34.574,16.83c-3.351,3.54 -5.788,7.83 -7.311,12.4c-0.305,0.45 -0.61,1.04 -0.914,1.48c-3.351,6.2 -6.397,12.25 -7.463,19.19c-1.067,7.53 -2.133,14.92 -3.047,22.45c-1.523,12.25 -1.523,24.66 -1.37,37.06c0.152,11.96 1.218,23.92 2.741,35.73c1.828,15.06 2.742,31.45 12.033,44.45c9.595,13.43 23.151,21.7 39.296,26.13c10.51,2.81 21.476,4.28 32.29,5.76c27.721,3.99 55.137,6.35 83.01,6.64c11.576,0.15 23.155,0.15 34.725,-0.59c13.86,-0.88 28.33,-2.21 41.28,-6.94c15.08,-5.46 29.24,-12.7 40.36,-24.21c10.36,-10.63 19.04,-24.22 22.54,-38.54c4.27,-18.31 2.14,-35.88 -6.39,-52.71z" fill="#EFCFD0"/>
</g>
</g></g></g></g><defs><clipPath id="clip0_957_108892">
<rect width="1440" height="3786" fill="white" x="-719.4998" y="-2724.5272"/>
</clipPath></defs></svg>