<svg viewBox="0 0 360.8811 21.301" x="0" y="0" fill="none" xmlns="http://www.w3.org/2000/svg"><g id="Frame 1597881698" xmlns="http://www.w3.org/2000/svg">
<path id="Home" d="M1.5137,16.0053l0.04,-11.104l1.504,0.006l-0.04,11.103zM8.6817,16.0313l0.04,-11.104l1.504,0.005l-0.04,11.104zM2.5557,10.9533l0.005,-1.376l6.512,0.023l-0.005,1.376zM16.0257,16.2173c-0.746,-0.002 -1.418,-0.181 -2.014,-0.535c-0.596,-0.354 -1.069,-0.83 -1.419,-1.429c-0.349,-0.609 -0.523,-1.287 -0.52,-2.034c0.002,-0.736 0.181,-1.397 0.535,-1.982c0.354,-0.596 0.83,-1.069 1.429,-1.419c0.599,-0.35 1.271,-0.523 2.018,-0.521c0.736,0.003 1.402,0.181 1.998,0.536c0.607,0.343 1.085,0.814 1.435,1.413c0.35,0.598 0.523,1.266 0.521,2.002c-0.003,0.746 -0.181,1.423 -0.536,2.03c-0.354,0.596 -0.835,1.069 -1.445,1.419c-0.598,0.349 -1.266,0.523 -2.002,0.52zM16.0307,14.8253c0.48,0.002 0.908,-0.108 1.282,-0.331c0.374,-0.223 0.668,-0.526 0.883,-0.909c0.215,-0.394 0.323,-0.841 0.325,-1.343c0.002,-0.49 -0.109,-0.928 -0.331,-1.313c-0.212,-0.385 -0.505,-0.684 -0.877,-0.899c-0.362,-0.225 -0.783,-0.339 -1.263,-0.341c-0.48,-0.001 -0.907,0.109 -1.281,0.332c-0.374,0.212 -0.669,0.509 -0.883,0.893c-0.215,0.383 -0.323,0.82 -0.325,1.31c-0.002,0.502 0.103,0.95 0.315,1.346c0.212,0.384 0.504,0.689 0.877,0.915c0.372,0.225 0.798,0.339 1.278,0.34zM21.6167,16.0783l0.028,-7.6l1.44,0.005l-0.028,7.6zM26.7527,16.0963l0.017,-4.592c0.002,-0.565 -0.172,-1.009 -0.523,-1.33c-0.34,-0.332 -0.772,-0.499 -1.294,-0.5c-0.352,-0.002 -0.667,0.072 -0.945,0.22c-0.278,0.148 -0.503,0.356 -0.674,0.622c-0.172,0.266 -0.259,0.585 -0.26,0.959l-0.591,-0.29c0.002,-0.576 0.127,-1.077 0.374,-1.503c0.257,-0.426 0.605,-0.755 1.043,-0.988c0.438,-0.244 0.929,-0.365 1.473,-0.363c0.534,0.002 1.013,0.121 1.439,0.357c0.437,0.236 0.777,0.568 1.021,0.996c0.254,0.427 0.38,0.935 0.378,1.521l-0.018,4.896zM31.8887,16.1153l0.017,-4.592c0.002,-0.566 -0.172,-1.009 -0.523,-1.33c-0.34,-0.332 -0.766,-0.499 -1.278,-0.501c-0.352,-0.001 -0.673,0.072 -0.961,0.221c-0.278,0.148 -0.503,0.355 -0.675,0.621c-0.171,0.266 -0.258,0.586 -0.259,0.959l-0.815,-0.291c0.034,-0.586 0.191,-1.087 0.469,-1.502c0.29,-0.426 0.659,-0.755 1.108,-0.988c0.449,-0.244 0.94,-0.365 1.473,-0.363c0.555,0.002 1.051,0.121 1.487,0.358c0.437,0.236 0.782,0.568 1.037,0.995c0.265,0.428 0.396,0.941 0.394,1.538l-0.018,4.88zM38.8237,16.3003c-0.757,-0.003 -1.439,-0.176 -2.046,-0.52c-0.607,-0.354 -1.085,-0.83 -1.435,-1.429c-0.35,-0.599 -0.523,-1.277 -0.52,-2.034c0.002,-0.747 0.175,-1.418 0.519,-2.014c0.354,-0.596 0.825,-1.064 1.413,-1.403c0.599,-0.35 1.266,-0.523 2.002,-0.521c0.704,0.003 1.322,0.165 1.854,0.487c0.543,0.322 0.963,0.766 1.259,1.333c0.308,0.566 0.46,1.207 0.457,1.921c0,0.107 -0.006,0.224 -0.017,0.352c-0.011,0.117 -0.033,0.256 -0.065,0.416l-6.416,-0.023l0.004,-1.2l5.648,0.02l-0.53,0.462c0.002,-0.512 -0.087,-0.944 -0.267,-1.297c-0.18,-0.363 -0.435,-0.641 -0.765,-0.835c-0.33,-0.203 -0.73,-0.306 -1.199,-0.308c-0.491,-0.002 -0.923,0.104 -1.297,0.315c-0.374,0.212 -0.663,0.51 -0.867,0.893c-0.204,0.384 -0.307,0.837 -0.309,1.359c-0.002,0.534 0.103,1.003 0.315,1.409c0.212,0.396 0.514,0.706 0.908,0.932c0.394,0.214 0.847,0.323 1.359,0.325c0.427,0.001 0.816,-0.072 1.169,-0.22c0.363,-0.148 0.673,-0.371 0.93,-0.669l0.925,0.947c-0.364,0.426 -0.813,0.75 -1.348,0.972c-0.523,0.222 -1.083,0.332 -1.681,0.33z" fill="#1C1C1C"/>
<path id="Schools" d="M88.4207,16.4783c-0.875,-0.003 -1.621,-0.165 -2.238,-0.488c-0.618,-0.322 -1.165,-0.788 -1.643,-1.398l1.027,-1.02c0.351,0.492 0.755,0.867 1.212,1.125c0.458,0.247 1.023,0.371 1.695,0.374c0.661,0.002 1.19,-0.14 1.586,-0.427c0.406,-0.286 0.61,-0.68 0.612,-1.181c0.001,-0.416 -0.093,-0.753 -0.284,-1.009c-0.192,-0.257 -0.452,-0.466 -0.782,-0.627c-0.32,-0.172 -0.671,-0.323 -1.055,-0.452c-0.383,-0.14 -0.767,-0.286 -1.15,-0.436c-0.383,-0.162 -0.735,-0.355 -1.054,-0.58c-0.319,-0.236 -0.579,-0.541 -0.781,-0.915c-0.19,-0.374 -0.285,-0.844 -0.283,-1.409c0.003,-0.629 0.154,-1.162 0.454,-1.598c0.311,-0.447 0.728,-0.787 1.252,-1.02c0.534,-0.243 1.132,-0.364 1.793,-0.361c0.726,0.002 1.376,0.149 1.951,0.439c0.575,0.279 1.043,0.649 1.404,1.109l-1.028,1.02c-0.329,-0.385 -0.686,-0.674 -1.069,-0.868c-0.373,-0.193 -0.804,-0.291 -1.295,-0.292c-0.597,-0.003 -1.072,0.129 -1.425,0.394c-0.353,0.255 -0.531,0.617 -0.532,1.087c-0.002,0.373 0.093,0.677 0.284,0.913c0.202,0.224 0.463,0.417 0.782,0.578c0.32,0.162 0.671,0.312 1.055,0.452c0.394,0.13 0.783,0.275 1.166,0.436c0.384,0.162 0.735,0.366 1.054,0.612c0.319,0.247 0.574,0.568 0.765,0.963c0.201,0.385 0.3,0.87 0.298,1.457c-0.003,0.981 -0.347,1.748 -1.032,2.3c-0.674,0.553 -1.587,0.827 -2.739,0.822zM97.3147,16.5113c-0.747,-0.003 -1.424,-0.182 -2.031,-0.536c-0.596,-0.354 -1.069,-0.83 -1.418,-1.429c-0.339,-0.609 -0.508,-1.282 -0.505,-2.018c0.003,-0.746 0.176,-1.418 0.519,-2.014c0.354,-0.596 0.831,-1.064 1.429,-1.403c0.61,-0.35 1.287,-0.523 2.034,-0.52c0.587,0.002 1.13,0.116 1.631,0.341c0.5,0.216 0.931,0.532 1.293,0.949l-0.964,0.957c-0.234,-0.278 -0.521,-0.488 -0.862,-0.627c-0.33,-0.151 -0.698,-0.227 -1.103,-0.228c-0.48,-0.002 -0.907,0.108 -1.281,0.331c-0.374,0.212 -0.669,0.51 -0.883,0.893c-0.215,0.383 -0.323,0.825 -0.325,1.327c-0.002,0.501 0.103,0.944 0.315,1.329c0.212,0.385 0.504,0.69 0.877,0.915c0.372,0.225 0.799,0.339 1.279,0.341c0.405,0.001 0.773,-0.067 1.104,-0.204c0.342,-0.149 0.636,-0.361 0.883,-0.637l0.94,0.963c-0.353,0.404 -0.786,0.717 -1.299,0.939c-0.502,0.223 -1.047,0.333 -1.633,0.331zM107.0467,16.3863l0.016,-4.432c0.002,-0.576 -0.177,-1.052 -0.539,-1.426c-0.361,-0.375 -0.83,-0.563 -1.406,-0.565c-0.384,-0.002 -0.725,0.082 -1.025,0.252c-0.299,0.17 -0.534,0.403 -0.706,0.701c-0.172,0.298 -0.258,0.639 -0.26,1.023l-0.591,-0.338c0.003,-0.576 0.132,-1.087 0.39,-1.534c0.258,-0.447 0.616,-0.798 1.076,-1.052c0.459,-0.265 0.977,-0.397 1.553,-0.395c0.576,0.002 1.082,0.132 1.519,0.39c0.447,0.257 0.798,0.616 1.052,1.076c0.254,0.459 0.38,0.988 0.378,1.585l-0.017,4.72zM101.6707,16.3663l0.041,-11.424l1.44,0.006l-0.041,11.423zM113.9077,16.5703c-0.746,-0.002 -1.418,-0.181 -2.014,-0.535c-0.596,-0.354 -1.069,-0.83 -1.419,-1.429c-0.35,-0.609 -0.523,-1.287 -0.52,-2.034c0.002,-0.736 0.181,-1.397 0.535,-1.982c0.354,-0.596 0.83,-1.069 1.429,-1.419c0.598,-0.35 1.271,-0.523 2.018,-0.521c0.736,0.003 1.402,0.182 1.998,0.536c0.607,0.343 1.085,0.814 1.435,1.413c0.35,0.598 0.523,1.266 0.521,2.002c-0.003,0.746 -0.182,1.423 -0.536,2.03c-0.354,0.596 -0.836,1.069 -1.445,1.419c-0.598,0.349 -1.266,0.523 -2.002,0.52zM113.9127,15.1783c0.48,0.002 0.907,-0.108 1.281,-0.331c0.375,-0.223 0.669,-0.526 0.884,-0.909c0.214,-0.394 0.323,-0.841 0.325,-1.343c0.001,-0.49 -0.109,-0.928 -0.332,-1.313c-0.212,-0.385 -0.504,-0.684 -0.876,-0.899c-0.362,-0.225 -0.783,-0.339 -1.263,-0.341c-0.48,-0.001 -0.907,0.109 -1.281,0.332c-0.375,0.212 -0.669,0.509 -0.884,0.893c-0.214,0.383 -0.323,0.82 -0.324,1.31c-0.002,0.502 0.103,0.95 0.315,1.346c0.212,0.384 0.504,0.689 0.876,0.915c0.373,0.225 0.799,0.339 1.279,0.34zM122.9707,16.6033c-0.747,-0.003 -1.418,-0.181 -2.014,-0.535c-0.596,-0.354 -1.069,-0.831 -1.419,-1.429c-0.35,-0.61 -0.524,-1.288 -0.521,-2.034c0.003,-0.736 0.181,-1.397 0.535,-1.982c0.354,-0.596 0.831,-1.069 1.429,-1.419c0.599,-0.35 1.272,-0.524 2.018,-0.521c0.736,0.003 1.402,0.181 1.998,0.535c0.607,0.344 1.085,0.815 1.435,1.414c0.35,0.598 0.524,1.265 0.521,2.001c-0.003,0.747 -0.181,1.424 -0.535,2.03c-0.354,0.597 -0.836,1.069 -1.445,1.419c-0.599,0.35 -1.266,0.524 -2.002,0.521zM122.9757,15.2113c0.48,0.002 0.907,-0.109 1.281,-0.331c0.374,-0.223 0.668,-0.526 0.883,-0.909c0.215,-0.394 0.323,-0.842 0.325,-1.343c0.002,-0.491 -0.109,-0.928 -0.331,-1.313c-0.212,-0.385 -0.504,-0.685 -0.877,-0.899c-0.362,-0.226 -0.783,-0.339 -1.263,-0.341c-0.48,-0.002 -0.907,0.109 -1.281,0.332c-0.374,0.211 -0.669,0.509 -0.883,0.892c-0.215,0.384 -0.323,0.82 -0.325,1.311c-0.002,0.501 0.103,0.95 0.315,1.345c0.212,0.385 0.504,0.69 0.877,0.915c0.372,0.226 0.799,0.339 1.279,0.341zM128.5617,16.4633l0.041,-11.424l1.44,0.006l-0.041,11.423zM134.5237,16.6453c-0.427,-0.002 -0.832,-0.057 -1.215,-0.165c-0.373,-0.118 -0.719,-0.28 -1.039,-0.483c-0.319,-0.215 -0.595,-0.467 -0.829,-0.755l0.931,-0.925c0.276,0.342 0.596,0.599 0.958,0.771c0.362,0.162 0.767,0.243 1.215,0.245c0.448,0.001 0.795,-0.072 1.04,-0.22c0.246,-0.16 0.37,-0.378 0.371,-0.655c0.001,-0.277 -0.1,-0.491 -0.302,-0.641c-0.191,-0.161 -0.441,-0.29 -0.75,-0.387c-0.309,-0.108 -0.64,-0.21 -0.991,-0.307c-0.341,-0.108 -0.666,-0.243 -0.975,-0.404c-0.309,-0.161 -0.564,-0.381 -0.766,-0.659c-0.191,-0.278 -0.285,-0.646 -0.284,-1.105c0.002,-0.458 0.116,-0.853 0.341,-1.183c0.225,-0.34 0.535,-0.6 0.931,-0.78c0.406,-0.18 0.891,-0.269 1.457,-0.267c0.597,0.002 1.124,0.111 1.582,0.326c0.469,0.204 0.852,0.515 1.149,0.932l-0.931,0.925c-0.213,-0.279 -0.479,-0.493 -0.798,-0.643c-0.309,-0.151 -0.661,-0.227 -1.055,-0.228c-0.416,-0.002 -0.736,0.072 -0.961,0.22c-0.214,0.138 -0.321,0.335 -0.322,0.591c-0.001,0.256 0.094,0.454 0.286,0.593c0.191,0.14 0.441,0.258 0.75,0.355c0.32,0.097 0.65,0.2 0.991,0.308c0.341,0.097 0.666,0.231 0.975,0.403c0.309,0.172 0.558,0.402 0.749,0.691c0.202,0.288 0.302,0.668 0.3,1.137c-0.002,0.715 -0.26,1.279 -0.774,1.693c-0.503,0.414 -1.181,0.62 -2.034,0.617z" fill="#1C1C1C"/>
<g id="Partners">
<path d="M181.5307,12.4303l0.006,-1.6l2.8,0.01c0.384,0.001 0.72,-0.072 1.009,-0.221c0.299,-0.159 0.535,-0.376 0.706,-0.653c0.172,-0.287 0.259,-0.623 0.26,-1.007c0.001,-0.384 -0.083,-0.715 -0.252,-0.993c-0.17,-0.289 -0.404,-0.508 -0.702,-0.659c-0.288,-0.161 -0.623,-0.242 -1.007,-0.243l-2.8,-0.01l0.006,-1.6l2.896,0.01c0.704,0.003 1.332,0.149 1.886,0.439c0.564,0.29 1.005,0.697 1.324,1.221c0.328,0.524 0.491,1.138 0.489,1.842c-0.003,0.704 -0.17,1.316 -0.503,1.838c-0.322,0.521 -0.766,0.925 -1.332,1.211c-0.556,0.286 -1.186,0.428 -1.89,0.425zM180.2517,16.6493l0.041,-11.2l1.84,0.007l-0.041,11.2zM192.4927,16.8533c-0.693,-0.002 -1.322,-0.181 -1.886,-0.535c-0.553,-0.354 -0.994,-0.83 -1.323,-1.428c-0.318,-0.61 -0.475,-1.287 -0.472,-2.034c0.002,-0.757 0.165,-1.434 0.487,-2.03c0.333,-0.607 0.777,-1.086 1.333,-1.436c0.567,-0.36 1.197,-0.539 1.89,-0.537c0.587,0.002 1.104,0.132 1.551,0.39c0.457,0.247 0.819,0.589 1.084,1.028c0.265,0.438 0.397,0.935 0.395,1.489l-0.008,2.208c-0.002,0.555 -0.138,1.05 -0.406,1.487c-0.257,0.436 -0.616,0.782 -1.076,1.036c-0.459,0.244 -0.982,0.364 -1.569,0.362zM192.7867,15.1903c0.651,0.003 1.174,-0.214 1.571,-0.65c0.406,-0.436 0.611,-0.995 0.614,-1.678c0.001,-0.459 -0.088,-0.864 -0.268,-1.217c-0.18,-0.352 -0.435,-0.625 -0.765,-0.819c-0.319,-0.203 -0.698,-0.306 -1.135,-0.308c-0.427,-0.001 -0.806,0.099 -1.137,0.3c-0.321,0.191 -0.578,0.462 -0.771,0.813c-0.183,0.352 -0.275,0.757 -0.276,1.215c-0.002,0.459 0.087,0.865 0.267,1.217c0.191,0.353 0.446,0.631 0.765,0.835c0.33,0.193 0.709,0.291 1.135,0.292zM194.8457,16.7023l0.007,-2.064l0.311,-1.871l-0.297,-1.857l0.006,-1.888l1.76,0.006l-0.027,7.68zM198.5587,16.7153l0.028,-7.68l1.76,0.006l-0.028,7.68zM200.3337,12.4493l-0.607,-0.306c0.004,-0.97 0.22,-1.754 0.649,-2.349c0.439,-0.607 1.097,-0.908 1.971,-0.905c0.384,0.001 0.731,0.072 1.039,0.211c0.309,0.14 0.596,0.365 0.862,0.676l-1.156,1.179c-0.138,-0.149 -0.293,-0.257 -0.463,-0.321c-0.171,-0.065 -0.368,-0.098 -0.592,-0.098c-0.49,-0.002 -0.896,0.151 -1.217,0.459c-0.322,0.308 -0.483,0.793 -0.486,1.454zM206.2577,16.7433l0.039,-10.88l1.76,0.006l-0.039,10.88zM204.4397,10.6563l0.006,-1.6l5.44,0.02l-0.006,1.6zM216.4007,16.7793l0.016,-4.432c0.002,-0.512 -0.162,-0.933 -0.491,-1.265c-0.319,-0.332 -0.735,-0.499 -1.247,-0.501c-0.341,-0.001 -0.645,0.073 -0.912,0.221c-0.268,0.148 -0.476,0.356 -0.627,0.622c-0.15,0.266 -0.226,0.57 -0.227,0.911l-0.687,-0.387c0.002,-0.586 0.132,-1.103 0.39,-1.55c0.258,-0.458 0.611,-0.814 1.06,-1.068c0.459,-0.265 0.972,-0.397 1.537,-0.395c0.576,0.002 1.088,0.153 1.535,0.454c0.447,0.289 0.797,0.669 1.052,1.139c0.254,0.46 0.38,0.94 0.378,1.442l-0.017,4.816zM211.1367,16.7603l0.028,-7.679l1.76,0.006l-0.028,7.68zM223.5167,16.9653c-0.768,-0.003 -1.461,-0.176 -2.078,-0.519c-0.607,-0.355 -1.091,-0.836 -1.451,-1.446c-0.35,-0.609 -0.523,-1.292 -0.521,-2.05c0.003,-0.757 0.181,-1.434 0.536,-2.03c0.354,-0.606 0.83,-1.085 1.429,-1.434c0.609,-0.35 1.282,-0.524 2.018,-0.521c0.714,0.002 1.343,0.17 1.886,0.503c0.553,0.332 0.984,0.787 1.291,1.364c0.318,0.577 0.476,1.234 0.473,1.97c-0.001,0.128 -0.012,0.261 -0.034,0.4c-0.011,0.128 -0.033,0.272 -0.065,0.432l-6.304,-0.023l0.005,-1.44l5.392,0.019l-0.658,0.574c-0.02,-0.469 -0.109,-0.864 -0.268,-1.185c-0.159,-0.321 -0.387,-0.567 -0.685,-0.738c-0.287,-0.172 -0.644,-0.259 -1.071,-0.26c-0.448,-0.002 -0.838,0.093 -1.169,0.283c-0.332,0.191 -0.589,0.462 -0.771,0.814c-0.183,0.34 -0.275,0.751 -0.277,1.231c-0.001,0.48 0.093,0.901 0.284,1.265c0.191,0.363 0.462,0.647 0.813,0.851c0.351,0.193 0.756,0.29 1.215,0.292c0.394,0.001 0.757,-0.067 1.089,-0.204c0.341,-0.137 0.63,-0.339 0.866,-0.605l1.116,1.14c-0.375,0.436 -0.83,0.765 -1.364,0.987c-0.534,0.222 -1.1,0.332 -1.697,0.33zM228.4957,16.8233l0.028,-7.68l1.76,0.006l-0.028,7.68zM230.2717,12.5573l-0.607,-0.306c0.003,-0.97 0.219,-1.754 0.648,-2.349c0.44,-0.607 1.097,-0.908 1.972,-0.905c0.384,0.001 0.73,0.072 1.039,0.211c0.309,0.14 0.596,0.365 0.861,0.676l-1.156,1.179c-0.138,-0.149 -0.292,-0.257 -0.463,-0.321c-0.17,-0.065 -0.367,-0.098 -0.591,-0.098c-0.491,-0.002 -0.897,0.151 -1.218,0.459c-0.321,0.308 -0.483,0.793 -0.485,1.454zM237.3507,17.0153c-0.426,-0.002 -0.837,-0.056 -1.231,-0.164c-0.394,-0.119 -0.756,-0.281 -1.086,-0.484c-0.33,-0.215 -0.617,-0.472 -0.862,-0.771l1.125,-1.116c0.265,0.31 0.568,0.546 0.909,0.707c0.351,0.15 0.746,0.227 1.183,0.228c0.395,0.002 0.694,-0.056 0.897,-0.173c0.203,-0.116 0.305,-0.287 0.306,-0.511c0,-0.234 -0.095,-0.416 -0.286,-0.545c-0.192,-0.128 -0.442,-0.236 -0.751,-0.322c-0.299,-0.097 -0.618,-0.195 -0.959,-0.292c-0.331,-0.097 -0.65,-0.226 -0.959,-0.387c-0.298,-0.172 -0.542,-0.402 -0.733,-0.691c-0.191,-0.289 -0.286,-0.662 -0.284,-1.121c0.001,-0.491 0.115,-0.911 0.34,-1.263c0.236,-0.351 0.563,-0.622 0.979,-0.812c0.428,-0.191 0.935,-0.285 1.521,-0.283c0.619,0.003 1.162,0.117 1.631,0.342c0.479,0.215 0.878,0.542 1.196,0.981l-1.124,1.115c-0.223,-0.278 -0.478,-0.487 -0.765,-0.626c-0.288,-0.14 -0.618,-0.211 -0.992,-0.212c-0.352,-0.001 -0.624,0.051 -0.816,0.157c-0.192,0.106 -0.289,0.26 -0.29,0.463c-0.001,0.213 0.095,0.379 0.286,0.497c0.192,0.118 0.437,0.22 0.735,0.307c0.309,0.086 0.629,0.183 0.959,0.291c0.341,0.098 0.661,0.237 0.959,0.42c0.308,0.172 0.558,0.407 0.749,0.706c0.191,0.289 0.286,0.668 0.284,1.138c-0.003,0.746 -0.266,1.337 -0.79,1.773c-0.525,0.435 -1.235,0.651 -2.131,0.648z" fill="#3498DB"/>
<path d="M179.0287,18.6453l61.708,0.222l-0.003,0.8l-61.708,-0.222z" fill="#3498DB"/>
</g>
<path id="Contact Us" d="M288.5967,17.2003c-0.8,-0.003 -1.54,-0.15 -2.222,-0.44c-0.682,-0.301 -1.277,-0.714 -1.787,-1.239c-0.5,-0.524 -0.887,-1.134 -1.162,-1.828c-0.275,-0.694 -0.411,-1.436 -0.408,-2.225c0.003,-0.8 0.144,-1.547 0.424,-2.239c0.28,-0.692 0.672,-1.294 1.175,-1.804c0.514,-0.521 1.107,-0.924 1.78,-1.209c0.684,-0.297 1.426,-0.443 2.226,-0.44c0.874,0.003 1.642,0.155 2.302,0.456c0.66,0.301 1.246,0.709 1.756,1.222l-1.044,1.037c-0.351,-0.396 -0.782,-0.707 -1.293,-0.933c-0.5,-0.226 -1.076,-0.34 -1.727,-0.342c-0.586,-0.002 -1.125,0.102 -1.617,0.314c-0.491,0.201 -0.919,0.493 -1.283,0.875c-0.364,0.383 -0.648,0.835 -0.853,1.357c-0.194,0.522 -0.292,1.092 -0.294,1.711c-0.002,0.619 0.092,1.19 0.282,1.713c0.201,0.524 0.482,0.978 0.843,1.363c0.361,0.386 0.787,0.686 1.277,0.901c0.49,0.204 1.028,0.308 1.615,0.31c0.693,0.002 1.296,-0.108 1.809,-0.33c0.513,-0.233 0.946,-0.546 1.299,-0.939l1.037,1.028c-0.514,0.531 -1.119,0.945 -1.813,1.241c-0.684,0.296 -1.458,0.443 -2.322,0.44zM297.5227,17.2323c-0.746,-0.003 -1.418,-0.181 -2.014,-0.535c-0.596,-0.355 -1.069,-0.831 -1.419,-1.43c-0.349,-0.609 -0.523,-1.287 -0.52,-2.033c0.002,-0.736 0.181,-1.397 0.535,-1.982c0.354,-0.597 0.83,-1.07 1.429,-1.419c0.599,-0.35 1.271,-0.524 2.018,-0.521c0.736,0.003 1.402,0.181 1.998,0.535c0.607,0.344 1.085,0.815 1.435,1.413c0.35,0.599 0.523,1.266 0.521,2.002c-0.003,0.747 -0.181,1.424 -0.536,2.03c-0.354,0.596 -0.835,1.069 -1.445,1.419c-0.598,0.35 -1.266,0.524 -2.002,0.521zM297.5277,15.8403c0.48,0.002 0.908,-0.109 1.282,-0.332c0.374,-0.222 0.668,-0.525 0.883,-0.908c0.215,-0.394 0.323,-0.842 0.325,-1.343c0.002,-0.491 -0.109,-0.929 -0.331,-1.313c-0.212,-0.385 -0.505,-0.685 -0.877,-0.9c-0.362,-0.225 -0.783,-0.338 -1.263,-0.34c-0.48,-0.002 -0.907,0.109 -1.281,0.331c-0.374,0.212 -0.669,0.51 -0.883,0.893c-0.215,0.383 -0.323,0.82 -0.325,1.311c-0.002,0.501 0.103,0.95 0.315,1.345c0.212,0.385 0.504,0.69 0.877,0.915c0.372,0.226 0.798,0.339 1.278,0.341zM308.4897,17.1113l0.016,-4.432c0.002,-0.576 -0.177,-1.051 -0.538,-1.426c-0.362,-0.374 -0.83,-0.563 -1.406,-0.565c-0.384,-0.001 -0.726,0.083 -1.025,0.253c-0.3,0.169 -0.535,0.403 -0.707,0.701c-0.172,0.298 -0.258,0.639 -0.26,1.023l-0.59,-0.338c0.002,-0.576 0.132,-1.087 0.389,-1.534c0.258,-0.448 0.616,-0.798 1.076,-1.053c0.46,-0.265 0.977,-0.396 1.553,-0.394c0.576,0.002 1.083,0.148 1.519,0.437c0.447,0.29 0.797,0.67 1.052,1.14c0.254,0.46 0.38,0.951 0.378,1.474l-0.017,4.72zM303.1137,17.0923l0.028,-7.6l1.44,0.005l-0.028,7.6zM312.9537,17.1283l0.039,-10.784l1.44,0.005l-0.039,10.784zM311.1047,10.8333l0.005,-1.312l5.184,0.019l-0.005,1.312zM320.6737,17.3153c-0.693,-0.002 -1.322,-0.175 -1.886,-0.518c-0.564,-0.354 -1.011,-0.831 -1.339,-1.429c-0.318,-0.599 -0.476,-1.271 -0.473,-2.018c0.003,-0.747 0.165,-1.418 0.487,-2.014c0.333,-0.596 0.778,-1.069 1.334,-1.419c0.566,-0.35 1.201,-0.524 1.905,-0.522c0.576,0.002 1.088,0.127 1.535,0.374c0.458,0.236 0.825,0.568 1.101,0.996c0.275,0.417 0.428,0.903 0.458,1.458l-0.008,2.288c-0.034,0.543 -0.19,1.028 -0.469,1.454c-0.268,0.426 -0.632,0.76 -1.092,1.004c-0.449,0.233 -0.966,0.348 -1.553,0.346zM320.9187,15.9563c0.714,0.003 1.291,-0.235 1.73,-0.714c0.439,-0.489 0.66,-1.112 0.663,-1.869c0.002,-0.523 -0.098,-0.977 -0.299,-1.361c-0.191,-0.396 -0.467,-0.701 -0.829,-0.915c-0.362,-0.226 -0.782,-0.339 -1.262,-0.341c-0.48,-0.002 -0.908,0.109 -1.282,0.332c-0.363,0.222 -0.652,0.531 -0.867,0.924c-0.204,0.384 -0.307,0.826 -0.309,1.327c-0.002,0.512 0.098,0.966 0.299,1.361c0.212,0.385 0.505,0.69 0.877,0.916c0.373,0.225 0.799,0.338 1.279,0.34zM323.2017,17.1643l0.008,-2.048l0.279,-1.855l-0.266,-1.84l0.007,-1.856l1.456,0.005l-0.028,7.6zM330.2257,17.3503c-0.746,-0.003 -1.423,-0.181 -2.03,-0.536c-0.596,-0.354 -1.069,-0.83 -1.419,-1.429c-0.339,-0.609 -0.507,-1.281 -0.504,-2.017c0.002,-0.747 0.175,-1.419 0.519,-2.015c0.354,-0.596 0.83,-1.063 1.429,-1.402c0.609,-0.35 1.287,-0.524 2.034,-0.521c0.587,0.002 1.13,0.116 1.631,0.342c0.5,0.215 0.931,0.531 1.292,0.948l-0.963,0.957c-0.234,-0.278 -0.521,-0.487 -0.862,-0.627c-0.33,-0.151 -0.698,-0.227 -1.103,-0.228c-0.48,-0.002 -0.907,0.109 -1.281,0.331c-0.374,0.212 -0.669,0.51 -0.884,0.893c-0.214,0.383 -0.323,0.826 -0.324,1.327c-0.002,0.501 0.103,0.944 0.315,1.329c0.212,0.385 0.504,0.69 0.877,0.915c0.372,0.226 0.798,0.339 1.278,0.341c0.406,0.001 0.774,-0.067 1.105,-0.204c0.342,-0.148 0.636,-0.361 0.882,-0.637l0.941,0.963c-0.354,0.404 -0.787,0.718 -1.299,0.94c-0.503,0.222 -1.047,0.332 -1.634,0.33zM335.6567,17.2093l0.039,-10.784l1.44,0.006l-0.039,10.784zM333.8077,10.9153l0.005,-1.312l5.184,0.018l-0.005,1.312zM348.1227,17.4143c-0.821,-0.003 -1.556,-0.187 -2.206,-0.552c-0.638,-0.375 -1.143,-0.884 -1.514,-1.525c-0.371,-0.652 -0.555,-1.389 -0.552,-2.21l0.025,-6.992l1.504,0.005l-0.025,6.96c-0.002,0.587 0.119,1.094 0.362,1.522c0.244,0.427 0.574,0.759 0.989,0.995c0.426,0.236 0.9,0.355 1.423,0.357c0.544,0.002 1.019,-0.113 1.425,-0.347c0.417,-0.233 0.743,-0.562 0.979,-0.988c0.247,-0.426 0.372,-0.927 0.374,-1.503l0.025,-6.976l1.52,0.006l-0.025,7.008c-0.003,0.821 -0.193,1.551 -0.568,2.19c-0.376,0.638 -0.884,1.143 -1.526,1.514c-0.641,0.361 -1.378,0.539 -2.21,0.536zM357.0447,17.4473c-0.426,-0.002 -0.832,-0.057 -1.215,-0.165c-0.373,-0.119 -0.719,-0.28 -1.039,-0.484c-0.319,-0.214 -0.595,-0.466 -0.829,-0.755l0.932,-0.924c0.276,0.342 0.595,0.599 0.957,0.771c0.362,0.162 0.767,0.243 1.215,0.245c0.448,0.001 0.795,-0.072 1.041,-0.221c0.246,-0.159 0.369,-0.377 0.37,-0.654c0.001,-0.278 -0.1,-0.491 -0.302,-0.641c-0.191,-0.161 -0.441,-0.29 -0.75,-0.387c-0.309,-0.108 -0.639,-0.21 -0.991,-0.308c-0.341,-0.108 -0.666,-0.242 -0.975,-0.403c-0.308,-0.161 -0.564,-0.381 -0.765,-0.659c-0.191,-0.278 -0.286,-0.646 -0.284,-1.105c0.001,-0.459 0.115,-0.853 0.34,-1.183c0.225,-0.34 0.535,-0.601 0.931,-0.78c0.406,-0.18 0.891,-0.269 1.457,-0.267c0.597,0.002 1.125,0.111 1.583,0.326c0.468,0.204 0.851,0.515 1.148,0.932l-0.931,0.924c-0.212,-0.278 -0.478,-0.492 -0.798,-0.643c-0.309,-0.15 -0.66,-0.226 -1.055,-0.227c-0.416,-0.002 -0.736,0.072 -0.961,0.22c-0.214,0.138 -0.321,0.335 -0.322,0.591c-0.001,0.256 0.094,0.454 0.286,0.593c0.191,0.139 0.442,0.258 0.751,0.355c0.319,0.097 0.65,0.199 0.991,0.307c0.341,0.098 0.665,0.232 0.974,0.404c0.309,0.172 0.559,0.402 0.75,0.691c0.201,0.288 0.301,0.667 0.3,1.137c-0.003,0.714 -0.261,1.279 -0.775,1.693c-0.502,0.414 -1.181,0.62 -2.034,0.617z" fill="#1C1C1C"/>
</g></svg>