<svg viewBox="0 0 1312 40" x="0" y="0" fill="none" xmlns="http://www.w3.org/2000/svg"><defs><clipPath id="clip11_957_108892" xmlns="http://www.w3.org/2000/svg">
<rect width="36.6667" height="36.6667" fill="white" transform="translate(1054.33, 1.66599999999994)"/>
</clipPath></defs><g id="Logos" xmlns="http://www.w3.org/2000/svg">
<g id="Fictional company logo">
<g id="Logomark">
<path id="Shape" fill-rule="evenodd" clip-rule="evenodd" d="M124.333,38.336c10.126,0 18.334,-8.21 18.334,-18.34c0,-10.12 -8.208,-18.33 -18.334,-18.33c-10.125,0 -18.333,8.21 -18.333,18.33c0,10.13 8.208,18.34 18.333,18.34zM130.053,10.206c0.278,-0.99 -0.682,-1.57 -1.558,-0.95l-12.235,8.72c-0.95,0.67 -0.801,2.02 0.225,2.02h3.222v-0.02h6.279l-5.117,1.8l-2.255,8.02c-0.278,0.99 0.681,1.57 1.558,0.95l12.234,-8.72c0.951,-0.68 0.801,-2.03 -0.224,-2.03h-4.886z" fill="#155EEF"/>
</g>
<g id="Logotype">
<path d="M152.15,28.256v-2.9h2.3v-11.7h-2.3v-2.9h9c1.067,0 1.992,0.18 2.775,0.55c0.8,0.35 1.417,0.86 1.85,1.53c0.45,0.65 0.675,1.43 0.675,2.35v0.25c0,0.8 -0.15,1.45 -0.45,1.97c-0.3,0.5 -0.658,0.89 -1.075,1.18c-0.4,0.26 -0.783,0.45 -1.15,0.57v0.45c0.367,0.1 0.767,0.29 1.2,0.58c0.433,0.26 0.8,0.65 1.1,1.17c0.317,0.52 0.475,1.19 0.475,2.03v0.25c0,0.96 -0.225,1.8 -0.675,2.5c-0.45,0.68 -1.075,1.2 -1.875,1.57c-0.783,0.37 -1.7,0.55 -2.75,0.55zM157.75,25.256h3.1c0.717,0 1.292,-0.17 1.725,-0.52c0.45,-0.35 0.675,-0.85 0.675,-1.5v-0.25c0,-0.65 -0.217,-1.15 -0.65,-1.5c-0.433,-0.35 -1.017,-0.53 -1.75,-0.53h-3.1zM157.75,17.956h3.05c0.683,0 1.242,-0.17 1.675,-0.52c0.45,-0.35 0.675,-0.84 0.675,-1.45v-0.25c0,-0.64 -0.217,-1.12 -0.65,-1.45c-0.433,-0.35 -1,-0.53 -1.7,-0.53h-3.05z" fill="#101828"/>
<path d="M174.002,28.606c-1.234,0 -2.342,-0.25 -3.325,-0.75c-0.984,-0.5 -1.759,-1.22 -2.325,-2.17c-0.567,-0.95 -0.85,-2.1 -0.85,-3.43v-0.4c0,-1.33 0.283,-2.47 0.85,-3.42c0.566,-0.95 1.341,-1.68 2.325,-2.18c0.983,-0.5 2.091,-0.75 3.325,-0.75c1.233,0 2.341,0.25 3.325,0.75c0.983,0.5 1.758,1.23 2.325,2.18c0.566,0.95 0.85,2.09 0.85,3.42v0.4c0,1.33 -0.284,2.48 -0.85,3.43c-0.567,0.95 -1.342,1.67 -2.325,2.17c-0.984,0.5 -2.092,0.75 -3.325,0.75zM174.002,25.806c0.966,0 1.766,-0.31 2.4,-0.92c0.633,-0.64 0.95,-1.54 0.95,-2.7v-0.25c0,-1.17 -0.317,-2.06 -0.95,-2.68c-0.617,-0.63 -1.417,-0.95 -2.4,-0.95c-0.967,0 -1.767,0.32 -2.4,0.95c-0.634,0.62 -0.95,1.51 -0.95,2.68v0.25c0,1.16 0.316,2.06 0.95,2.7c0.633,0.61 1.433,0.92 2.4,0.92z" fill="#101828"/>
<path d="M182.159,28.256v-17.5h3.15v17.5z" fill="#101828"/>
<path d="M192.3,28.256c-0.817,0 -1.484,-0.25 -2,-0.75c-0.5,-0.52 -0.75,-1.2 -0.75,-2.05v-7h-3.1v-2.6h3.1v-3.85h3.15v3.85h3.4v2.6h-3.4v6.45c0,0.5 0.233,0.75 0.7,0.75h2.4v2.6z" fill="#101828"/>
<path d="M202.851,28.606c-1.616,0 -2.941,-0.35 -3.975,-1.05c-1.033,-0.7 -1.658,-1.7 -1.875,-3l2.9,-0.75c0.117,0.58 0.309,1.04 0.575,1.38c0.284,0.33 0.625,0.57 1.025,0.72c0.417,0.13 0.867,0.2 1.35,0.2c0.734,0 1.275,-0.12 1.625,-0.37c0.35,-0.27 0.525,-0.6 0.525,-0.98c0,-0.38 -0.166,-0.67 -0.5,-0.87c-0.333,-0.22 -0.866,-0.4 -1.6,-0.53l-0.7,-0.12c-0.866,-0.17 -1.658,-0.4 -2.375,-0.68c-0.716,-0.3 -1.291,-0.71 -1.725,-1.22c-0.433,-0.52 -0.65,-1.19 -0.65,-2c0,-1.24 0.45,-2.18 1.35,-2.83c0.9,-0.67 2.084,-1 3.55,-1c1.384,0 2.534,0.31 3.45,0.93c0.917,0.61 1.517,1.42 1.8,2.42l-2.925,0.9c-0.133,-0.63 -0.408,-1.08 -0.825,-1.35c-0.4,-0.27 -0.9,-0.4 -1.5,-0.4c-0.6,0 -1.058,0.11 -1.375,0.33c-0.316,0.2 -0.475,0.48 -0.475,0.85c0,0.4 0.167,0.7 0.5,0.9c0.334,0.18 0.784,0.32 1.35,0.42l0.7,0.13c0.934,0.16 1.775,0.39 2.525,0.67c0.767,0.27 1.367,0.66 1.8,1.18c0.45,0.5 0.675,1.18 0.675,2.05c0,1.3 -0.475,2.3 -1.425,3.02c-0.933,0.7 -2.191,1.05 -3.775,1.05z" fill="#101828"/>
<path d="M209.562,28.256v-17.5h3.15v6.63h0.45c0.133,-0.27 0.341,-0.54 0.625,-0.8c0.283,-0.27 0.658,-0.49 1.125,-0.65c0.483,-0.19 1.091,-0.28 1.825,-0.28c0.966,0 1.808,0.23 2.525,0.68c0.733,0.43 1.3,1.04 1.7,1.82c0.4,0.77 0.6,1.67 0.6,2.7v7.4h-3.15v-7.15c0,-0.93 -0.234,-1.63 -0.7,-2.1c-0.45,-0.47 -1.1,-0.7 -1.95,-0.7c-0.967,0 -1.717,0.33 -2.25,0.98c-0.534,0.63 -0.8,1.52 -0.8,2.67v6.3z" fill="#101828"/>
<path d="M223.717,28.256v-12.4h3.15v12.4zM225.292,14.406c-0.567,0 -1.05,-0.18 -1.45,-0.55c-0.384,-0.37 -0.575,-0.85 -0.575,-1.45c0,-0.6 0.191,-1.08 0.575,-1.45c0.4,-0.37 0.883,-0.55 1.45,-0.55c0.583,0 1.066,0.18 1.45,0.55c0.383,0.37 0.575,0.85 0.575,1.45c0,0.6 -0.192,1.08 -0.575,1.45c-0.384,0.37 -0.867,0.55 -1.45,0.55z" fill="#101828"/>
<path d="M231.157,28.256v-9.8h-3.15v-2.6h3.15v-2.3c0,-0.85 0.25,-1.52 0.75,-2.02c0.517,-0.52 1.184,-0.78 2,-0.78h3.25v2.6h-2.15c-0.466,0 -0.7,0.25 -0.7,0.75v1.75h3.25v2.6h-3.25v9.8z" fill="#101828"/>
<path d="M243.252,28.256c-0.817,0 -1.483,-0.25 -2,-0.75c-0.5,-0.52 -0.75,-1.2 -0.75,-2.05v-7h-3.1v-2.6h3.1v-3.85h3.15v3.85h3.4v2.6h-3.4v6.45c0,0.5 0.233,0.75 0.7,0.75h2.4v2.6z" fill="#101828"/>
</g>
</g>
<g id="Fictional company logo_2">
<g id="Logomark_2">
<path id="Shape_2" fill-rule="evenodd" clip-rule="evenodd" d="M304.138,2.876c-0.421,-0.09 -0.855,-0.09 -1.276,0c-0.486,0.1 -0.921,0.34 -1.267,0.53l-0.094,0.06l-11.716,6.5c-0.033,0.02 -0.066,0.04 -0.1,0.06c-0.366,0.2 -0.826,0.45 -1.18,0.84c-0.305,0.33 -0.536,0.72 -0.678,1.15c-0.163,0.5 -0.161,1.02 -0.16,1.44c0,0.04 0,0.08 0,0.11v12.85c0,0.04 0,0.08 0,0.12c-0.001,0.42 -0.003,0.94 0.16,1.44c0.142,0.42 0.373,0.82 0.678,1.15c0.354,0.38 0.814,0.64 1.18,0.84c0.034,0.02 0.067,0.04 0.1,0.05l11.716,6.51l0.094,0.05c0.346,0.2 0.781,0.44 1.267,0.54c0.421,0.09 0.855,0.09 1.276,0c0.486,-0.1 0.921,-0.34 1.267,-0.54l0.094,-0.05l11.716,-6.51c0.015,0 0.029,-0.01 0.044,-0.02c0.019,-0.01 0.037,-0.02 0.056,-0.03c0.366,-0.2 0.827,-0.46 1.18,-0.84c0.305,-0.33 0.537,-0.73 0.678,-1.15c0.164,-0.5 0.162,-1.02 0.16,-1.44c0,-0.04 0,-0.08 0,-0.12v-12.85c0,-0.03 0,-0.07 0,-0.11c0.002,-0.42 0.004,-0.94 -0.16,-1.44c-0.141,-0.43 -0.373,-0.82 -0.678,-1.15c-0.353,-0.39 -0.814,-0.64 -1.18,-0.84h-0.001c-0.034,-0.02 -0.067,-0.04 -0.099,-0.06l-11.716,-6.5l-0.094,-0.06c-0.346,-0.19 -0.781,-0.43 -1.267,-0.53zM303.039,6.226c0.24,-0.13 0.362,-0.2 0.454,-0.24h0.007h0.008c0.091,0.04 0.213,0.11 0.453,0.24l10.528,5.85l-10.989,6.11l-10.989,-6.11zM290.834,14.766l11.083,6.16v12.21l-10.594,-5.89c-0.254,-0.14 -0.383,-0.21 -0.474,-0.27h-0.007l-0.001,-0.01c-0.006,-0.11 -0.007,-0.26 -0.007,-0.55z" fill="#101828"/>
</g>
<g id="Logotype_2">
<path d="M333.743,25.286h5.04v2.97h-8.888v-15.79h3.848z" fill="#101828"/>
<path d="M342.328,14.396c-0.675,0 -1.23,-0.19 -1.665,-0.58c-0.42,-0.41 -0.63,-0.9 -0.63,-1.49c0,-0.6 0.21,-1.09 0.63,-1.48c0.435,-0.41 0.99,-0.61 1.665,-0.61c0.66,0 1.2,0.2 1.62,0.61c0.435,0.39 0.652,0.88 0.652,1.48c0,0.59 -0.217,1.08 -0.652,1.49c-0.42,0.39 -0.96,0.58 -1.62,0.58zM344.24,15.706v12.55h-3.847v-12.55z" fill="#101828"/>
<path d="M351.574,15.526c0.885,0 1.657,0.18 2.317,0.54c0.675,0.36 1.193,0.83 1.553,1.42v-1.78h3.847v12.53c0,1.16 -0.232,2.2 -0.697,3.13c-0.45,0.94 -1.148,1.69 -2.093,2.25c-0.93,0.55 -2.092,0.83 -3.487,0.83c-1.86,0 -3.368,-0.44 -4.523,-1.33c-1.155,-0.87 -1.815,-2.05 -1.98,-3.55h3.803c0.12,0.48 0.405,0.85 0.855,1.12c0.45,0.29 1.005,0.43 1.665,0.43c0.795,0 1.425,-0.23 1.89,-0.7c0.48,-0.45 0.72,-1.17 0.72,-2.18v-1.78c-0.375,0.59 -0.893,1.07 -1.553,1.44c-0.66,0.36 -1.432,0.54 -2.317,0.54c-1.035,0 -1.973,-0.26 -2.813,-0.78c-0.84,-0.54 -1.507,-1.3 -2.002,-2.28c-0.48,-0.99 -0.72,-2.13 -0.72,-3.42c0,-1.29 0.24,-2.42 0.72,-3.39c0.495,-0.98 1.162,-1.73 2.002,-2.25c0.84,-0.53 1.778,-0.79 2.813,-0.79zM355.444,21.986c0,-0.96 -0.27,-1.72 -0.81,-2.28c-0.525,-0.55 -1.17,-0.83 -1.935,-0.83c-0.765,0 -1.418,0.28 -1.958,0.83c-0.525,0.54 -0.787,1.29 -0.787,2.25c0,0.96 0.262,1.73 0.787,2.3c0.54,0.55 1.193,0.83 1.958,0.83c0.765,0 1.41,-0.28 1.935,-0.83c0.54,-0.56 0.81,-1.31 0.81,-2.27z" fill="#101828"/>
<path d="M369.567,15.566c1.44,0 2.595,0.48 3.465,1.44c0.87,0.95 1.305,2.25 1.305,3.92v7.33h-3.825v-6.81c0,-0.84 -0.217,-1.5 -0.652,-1.96c-0.435,-0.47 -1.02,-0.7 -1.755,-0.7c-0.735,0 -1.32,0.23 -1.755,0.7c-0.435,0.46 -0.653,1.12 -0.653,1.96v6.81h-3.847v-16.65h3.847v5.79c0.39,-0.56 0.923,-1 1.598,-1.33c0.675,-0.33 1.432,-0.5 2.272,-0.5z" fill="#101828"/>
<path d="M383.783,24.996v3.26h-1.957c-1.395,0 -2.483,-0.33 -3.263,-1.01c-0.78,-0.69 -1.17,-1.81 -1.17,-3.35v-5h-1.53v-3.19h1.53v-3.06h3.848v3.06h2.52v3.19h-2.52v5.04c0,0.38 0.09,0.65 0.27,0.81c0.18,0.17 0.48,0.25 0.9,0.25z" fill="#101828"/>
<path d="M389.549,17.486c0.36,-0.59 0.877,-1.06 1.552,-1.42c0.675,-0.36 1.448,-0.54 2.318,-0.54c1.035,0 1.972,0.26 2.812,0.79c0.84,0.52 1.5,1.27 1.98,2.25c0.495,0.97 0.743,2.1 0.743,3.39c0,1.29 -0.248,2.43 -0.743,3.42c-0.48,0.98 -1.14,1.74 -1.98,2.28c-0.84,0.52 -1.777,0.78 -2.812,0.78c-0.885,0 -1.658,-0.17 -2.318,-0.51c-0.66,-0.36 -1.177,-0.84 -1.552,-1.42v1.75h-3.848v-16.65h3.848zM395.039,21.956c0,-0.96 -0.27,-1.71 -0.81,-2.25c-0.525,-0.55 -1.178,-0.83 -1.958,-0.83c-0.765,0 -1.417,0.28 -1.957,0.83c-0.525,0.56 -0.788,1.32 -0.788,2.28c0,0.96 0.263,1.71 0.788,2.27c0.54,0.55 1.192,0.83 1.957,0.83c0.765,0 1.418,-0.28 1.958,-0.83c0.54,-0.57 0.81,-1.34 0.81,-2.3z" fill="#101828"/>
<path d="M406.462,28.436c-1.23,0 -2.34,-0.26 -3.33,-0.78c-0.975,-0.53 -1.747,-1.28 -2.317,-2.25c-0.555,-0.98 -0.833,-2.12 -0.833,-3.42c0,-1.29 0.285,-2.43 0.855,-3.4c0.57,-0.99 1.35,-1.75 2.34,-2.27c0.99,-0.53 2.1,-0.79 3.33,-0.79c1.23,0 2.34,0.26 3.33,0.79c0.99,0.52 1.77,1.28 2.34,2.27c0.57,0.97 0.855,2.11 0.855,3.4c0,1.29 -0.292,2.43 -0.877,3.42c-0.57,0.97 -1.358,1.72 -2.363,2.25c-0.99,0.52 -2.1,0.78 -3.33,0.78zM406.462,25.106c0.735,0 1.358,-0.27 1.868,-0.81c0.525,-0.54 0.787,-1.31 0.787,-2.31c0,-1.01 -0.255,-1.78 -0.765,-2.32c-0.495,-0.54 -1.11,-0.81 -1.845,-0.81c-0.75,0 -1.372,0.27 -1.867,0.81c-0.495,0.52 -0.743,1.3 -0.743,2.32c0,1 0.24,1.77 0.72,2.31c0.495,0.54 1.11,0.81 1.845,0.81z" fill="#101828"/>
<path d="M422.273,28.256l-2.407,-3.48l-2.025,3.48h-4.163l4.14,-6.41l-4.252,-6.14h4.32l2.407,3.46l2.025,-3.46h4.163l-4.208,6.32l4.32,6.23z" fill="#101828"/>
</g>
</g>
<g id="Fictional company logo_3">
<g id="Logomark_3">
<path id="Shape_3" d="M497.089,9.306c-0.36,-0.36 -0.721,-0.72 -1.081,-1.08c-1.08,-1.16 -2.233,-2.31 -3.674,-3.03c-1.656,-0.86 -3.457,-0.65 -5.258,-0.65c-2.738,0 -9.581,0 -13.615,0l2.737,3.68c4.971,0 12.751,0 16.352,0c1.513,0 2.81,0.29 4.035,1.08c0.216,0.07 0.432,0.07 0.504,0z" fill="#66C61C"/>
<path id="Shape_4" d="M500.114,15.206c-0.36,-0.36 -0.72,-0.72 -1.08,-1.08c-1.081,-1.15 -2.233,-2.3 -3.674,-3.02c-1.657,-0.87 -3.458,-0.65 -5.259,-0.65c-2.377,0 -8.068,0 -12.102,0l2.737,3.67c4.899,0 11.598,0 14.912,0c1.513,0 2.809,0.29 4.034,1.08c0.144,0.08 0.288,0.08 0.432,0z" fill="#4CA30D"/>
<path id="Shape_5" d="M503.5,20.976c-0.36,-0.36 -0.72,-0.72 -1.08,-1.08c-1.081,-1.16 -2.234,-2.31 -3.674,-3.03c-1.657,-0.86 -3.458,-0.65 -5.259,-0.65c-2.233,0 -7.132,0 -11.094,0l2.738,3.68c4.754,0 10.805,0 13.831,0c1.513,0 2.809,0.29 4.034,1.08c0.216,0.07 0.36,0.14 0.504,0z" fill="#3B7C0F"/>
<path id="Shape_6" d="M473.173,30.696c0.36,0.36 0.72,0.72 1.08,1.08c1.081,1.15 2.233,2.31 3.674,3.03c1.657,0.86 3.458,0.64 5.259,0.64h13.615l-2.738,-3.67c-4.97,0 -12.75,0 -16.352,0c-1.513,0 -2.809,-0.29 -4.034,-1.08c-0.216,-0.07 -0.36,-0.07 -0.504,0z" fill="#66C61C"/>
<path id="Shape_7" d="M470.147,24.786c0.36,0.36 0.72,0.72 1.081,1.08c1.08,1.16 2.233,2.31 3.674,3.03c1.656,0.86 3.457,0.65 5.258,0.65h12.102l-2.737,-3.68c-4.899,0 -11.598,0 -14.912,0c-1.512,0 -2.809,-0.28 -4.034,-1.08c-0.144,-0.07 -0.288,-0.07 -0.432,0z" fill="#4CA30D"/>
<path id="Shape_8" d="M466.833,18.956c0.361,0.36 0.721,0.72 1.081,1.08c1.08,1.15 2.233,2.3 3.674,3.02c1.657,0.87 3.458,0.65 5.258,0.65h11.094l-2.737,-3.67c-4.755,0 -10.806,0 -13.831,0c-1.513,0 -2.81,-0.29 -4.034,-1.08c-0.216,-0.07 -0.361,-0.07 -0.505,0z" fill="#3B7C0F"/>
</g>
<g id="Logotype_3">
<path d="M511.777,11.676v16.66h3.663v-6.89h6.977v-2.84h-6.977v-3.85h8.05v-3.08z" fill="#101828"/>
<path d="M532.678,21.006h-5.39c0.016,-0.23 0.062,-0.5 0.14,-0.79c0.093,-0.3 0.241,-0.58 0.443,-0.84c0.218,-0.27 0.498,-0.48 0.84,-0.66c0.358,-0.18 0.802,-0.28 1.33,-0.28c0.809,0 1.408,0.22 1.797,0.66c0.405,0.43 0.685,1.07 0.84,1.91zM527.288,23.106h8.703c0.063,-0.93 -0.015,-1.83 -0.233,-2.68c-0.218,-0.86 -0.575,-1.62 -1.073,-2.29c-0.482,-0.67 -1.105,-1.2 -1.867,-1.59c-0.762,-0.4 -1.657,-0.6 -2.683,-0.6c-0.918,0 -1.758,0.16 -2.52,0.49c-0.747,0.32 -1.392,0.78 -1.937,1.35c-0.544,0.56 -0.964,1.23 -1.26,2.01c-0.295,0.78 -0.443,1.62 -0.443,2.52c0,0.93 0.14,1.79 0.42,2.56c0.295,0.78 0.708,1.45 1.236,2.01c0.529,0.56 1.175,1 1.937,1.31c0.762,0.29 1.618,0.44 2.567,0.44c1.369,0 2.535,-0.31 3.5,-0.93c0.964,-0.62 1.68,-1.66 2.146,-3.11h-2.916c-0.109,0.38 -0.405,0.74 -0.887,1.08c-0.482,0.32 -1.058,0.49 -1.727,0.49c-0.933,0 -1.648,-0.24 -2.146,-0.73c-0.498,-0.48 -0.77,-1.26 -0.817,-2.33z" fill="#101828"/>
<path d="M537.117,19.976c0.046,-0.77 0.241,-1.42 0.583,-1.93c0.342,-0.52 0.778,-0.93 1.307,-1.24c0.528,-0.31 1.12,-0.53 1.773,-0.65c0.669,-0.14 1.338,-0.21 2.007,-0.21c0.606,0 1.221,0.04 1.843,0.14c0.622,0.08 1.19,0.24 1.703,0.49c0.514,0.25 0.934,0.6 1.26,1.05c0.327,0.43 0.49,1.02 0.49,1.75v6.27c0,0.55 0.031,1.07 0.094,1.57c0.062,0.5 0.171,0.87 0.326,1.12h-3.36c-0.062,-0.19 -0.116,-0.38 -0.163,-0.56c-0.031,-0.2 -0.055,-0.41 -0.07,-0.61c-0.529,0.55 -1.151,0.93 -1.867,1.14c-0.715,0.22 -1.446,0.33 -2.193,0.33c-0.576,0 -1.112,-0.07 -1.61,-0.21c-0.498,-0.14 -0.933,-0.36 -1.307,-0.65c-0.373,-0.3 -0.669,-0.67 -0.886,-1.12c-0.203,-0.45 -0.304,-0.99 -0.304,-1.61c0,-0.69 0.117,-1.25 0.35,-1.68c0.249,-0.45 0.56,-0.81 0.934,-1.08c0.388,-0.26 0.824,-0.45 1.306,-0.58c0.498,-0.14 0.996,-0.25 1.494,-0.33c0.497,-0.07 0.987,-0.14 1.47,-0.18c0.482,-0.05 0.91,-0.12 1.283,-0.21c0.373,-0.1 0.669,-0.23 0.887,-0.4c0.217,-0.19 0.318,-0.45 0.303,-0.79c0,-0.36 -0.062,-0.64 -0.187,-0.84c-0.109,-0.22 -0.264,-0.38 -0.466,-0.49c-0.187,-0.13 -0.413,-0.2 -0.677,-0.24c-0.249,-0.04 -0.521,-0.07 -0.817,-0.07c-0.653,0 -1.166,0.14 -1.54,0.42c-0.373,0.28 -0.591,0.75 -0.653,1.4zM544.77,22.426c-0.14,0.13 -0.319,0.23 -0.537,0.31c-0.202,0.06 -0.428,0.11 -0.676,0.16c-0.234,0.05 -0.483,0.09 -0.747,0.12c-0.265,0.03 -0.529,0.07 -0.793,0.11c-0.249,0.05 -0.498,0.11 -0.747,0.19c-0.233,0.08 -0.443,0.19 -0.63,0.33c-0.171,0.12 -0.311,0.29 -0.42,0.49c-0.109,0.2 -0.163,0.46 -0.163,0.77c0,0.29 0.054,0.54 0.163,0.74c0.109,0.21 0.257,0.37 0.443,0.49c0.187,0.11 0.405,0.19 0.654,0.24c0.248,0.04 0.505,0.07 0.77,0.07c0.653,0 1.158,-0.11 1.516,-0.33c0.358,-0.22 0.622,-0.47 0.794,-0.77c0.171,-0.31 0.272,-0.62 0.303,-0.93c0.047,-0.31 0.07,-0.56 0.07,-0.75z" fill="#101828"/>
<path d="M554.155,16.266v-3.61h-3.313v3.61h-2.007v2.22h2.007v7.12c0,0.6 0.101,1.09 0.303,1.47c0.202,0.37 0.474,0.66 0.817,0.86c0.357,0.2 0.762,0.34 1.213,0.4c0.467,0.08 0.957,0.11 1.47,0.11c0.327,0 0.661,0 1.003,-0.02c0.343,-0.01 0.654,-0.05 0.934,-0.09v-2.57c-0.156,0.03 -0.319,0.06 -0.49,0.07c-0.171,0.02 -0.35,0.02 -0.537,0.02c-0.56,0 -0.933,-0.09 -1.12,-0.28c-0.187,-0.18 -0.28,-0.56 -0.28,-1.12v-5.97h2.427v-2.22z" fill="#101828"/>
<path d="M557.458,11.676v16.66h3.313v-6.33c0,-1.22 0.203,-2.1 0.607,-2.63c0.405,-0.55 1.058,-0.82 1.96,-0.82c0.793,0 1.346,0.25 1.657,0.75c0.311,0.48 0.466,1.22 0.466,2.21v6.82h3.314v-7.42c0,-0.75 -0.07,-1.43 -0.21,-2.03c-0.125,-0.62 -0.35,-1.15 -0.677,-1.57c-0.327,-0.43 -0.778,-0.77 -1.353,-1c-0.56,-0.25 -1.284,-0.37 -2.17,-0.37c-0.622,0 -1.26,0.16 -1.914,0.49c-0.653,0.31 -1.19,0.81 -1.61,1.51h-0.07v-6.27z" fill="#101828"/>
<path d="M578.709,21.006h-5.39c0.016,-0.23 0.063,-0.5 0.14,-0.79c0.094,-0.3 0.242,-0.58 0.444,-0.84c0.218,-0.27 0.498,-0.48 0.84,-0.66c0.358,-0.18 0.801,-0.28 1.33,-0.28c0.809,0 1.408,0.22 1.796,0.66c0.405,0.43 0.685,1.07 0.84,1.91zM573.319,23.106h8.704c0.062,-0.93 -0.016,-1.83 -0.234,-2.68c-0.217,-0.86 -0.575,-1.62 -1.073,-2.29c-0.482,-0.67 -1.104,-1.2 -1.867,-1.59c-0.762,-0.4 -1.656,-0.6 -2.683,-0.6c-0.918,0 -1.758,0.16 -2.52,0.49c-0.747,0.32 -1.392,0.78 -1.937,1.35c-0.544,0.56 -0.964,1.23 -1.26,2.01c-0.295,0.78 -0.443,1.62 -0.443,2.52c0,0.93 0.14,1.79 0.42,2.56c0.296,0.78 0.708,1.45 1.237,2.01c0.529,0.56 1.174,1 1.936,1.31c0.763,0.29 1.618,0.44 2.567,0.44c1.369,0 2.536,-0.31 3.5,-0.93c0.965,-0.62 1.68,-1.66 2.147,-3.11h-2.917c-0.109,0.38 -0.404,0.74 -0.887,1.08c-0.482,0.32 -1.057,0.49 -1.726,0.49c-0.934,0 -1.649,-0.24 -2.147,-0.73c-0.498,-0.48 -0.77,-1.26 -0.817,-2.33z" fill="#101828"/>
<path d="M583.288,16.266v12.07h3.313v-5.44c0,-0.54 0.055,-1.05 0.164,-1.52c0.108,-0.46 0.287,-0.87 0.536,-1.21c0.265,-0.36 0.607,-0.64 1.027,-0.84c0.42,-0.2 0.933,-0.3 1.54,-0.3c0.202,0 0.412,0.01 0.63,0.04c0.218,0.02 0.404,0.04 0.56,0.07v-3.08c-0.265,-0.07 -0.506,-0.11 -0.723,-0.11c-0.42,0 -0.825,0.06 -1.214,0.18c-0.389,0.13 -0.754,0.31 -1.096,0.54c-0.343,0.22 -0.646,0.49 -0.91,0.82c-0.265,0.31 -0.475,0.65 -0.63,1.02h-0.047v-2.24z" fill="#101828"/>
<path d="M595.67,25.256v-10.5h2.614c0.902,0 1.656,0.13 2.263,0.39c0.622,0.25 1.12,0.62 1.493,1.1c0.374,0.48 0.638,1.07 0.794,1.75c0.171,0.67 0.256,1.42 0.256,2.26c0,0.92 -0.116,1.7 -0.35,2.34c-0.233,0.64 -0.544,1.16 -0.933,1.56c-0.389,0.39 -0.832,0.67 -1.33,0.84c-0.498,0.17 -1.011,0.26 -1.54,0.26zM592.007,11.676v16.66h7.187c1.275,0 2.38,-0.21 3.313,-0.63c0.949,-0.44 1.734,-1.03 2.357,-1.78c0.637,-0.74 1.112,-1.63 1.423,-2.66c0.311,-1.02 0.467,-2.14 0.467,-3.36c0,-1.38 -0.195,-2.59 -0.584,-3.61c-0.373,-1.03 -0.902,-1.88 -1.586,-2.57c-0.669,-0.68 -1.47,-1.2 -2.404,-1.54c-0.918,-0.34 -1.913,-0.51 -2.986,-0.51z" fill="#101828"/>
<path d="M616.372,21.006h-5.39c0.015,-0.23 0.062,-0.5 0.14,-0.79c0.093,-0.3 0.241,-0.58 0.443,-0.84c0.218,-0.27 0.498,-0.48 0.84,-0.66c0.358,-0.18 0.801,-0.28 1.33,-0.28c0.809,0 1.408,0.22 1.797,0.66c0.404,0.43 0.684,1.07 0.84,1.91zM610.982,23.106h8.703c0.062,-0.93 -0.015,-1.83 -0.233,-2.68c-0.218,-0.86 -0.576,-1.62 -1.073,-2.29c-0.483,-0.67 -1.105,-1.2 -1.867,-1.59c-0.762,-0.4 -1.657,-0.6 -2.683,-0.6c-0.918,0 -1.758,0.16 -2.52,0.49c-0.747,0.32 -1.393,0.78 -1.937,1.35c-0.545,0.56 -0.965,1.23 -1.26,2.01c-0.296,0.78 -0.443,1.62 -0.443,2.52c0,0.93 0.14,1.79 0.42,2.56c0.295,0.78 0.707,1.45 1.236,2.01c0.529,0.56 1.175,1 1.937,1.31c0.762,0.29 1.618,0.44 2.567,0.44c1.368,0 2.535,-0.31 3.5,-0.93c0.964,-0.62 1.68,-1.66 2.146,-3.11h-2.916c-0.109,0.38 -0.405,0.74 -0.887,1.08c-0.482,0.32 -1.058,0.49 -1.727,0.49c-0.933,0 -1.649,-0.24 -2.146,-0.73c-0.498,-0.48 -0.77,-1.26 -0.817,-2.33z" fill="#101828"/>
<path d="M627.624,28.336l4.083,-12.07h-3.29l-2.543,8.24h-0.047l-2.543,-8.24h-3.477l4.13,12.07z" fill="#101828"/>
</g>
</g>
<g id="Fictional company logo_4">
<g id="Logomark_4">
<circle id="Shape_9" cx="690.167" cy="20.205999999999904" r="17.0833" stroke="#6927DA" stroke-width="2.5"/>
<path id="Shape_10" d="M702.246,8.126c1.676,1.68 2.197,4.51 1.294,8.02c-0.895,3.48 -3.147,7.39 -6.596,10.84c-3.45,3.45 -7.358,5.7 -10.838,6.6c-3.512,0.9 -6.343,0.38 -8.02,-1.3c-1.676,-1.67 -2.195,-4.51 -1.292,-8.02c0.895,-3.48 3.147,-7.39 6.596,-10.83c3.45,-3.45 7.358,-5.71 10.838,-6.6c3.511,-0.9 6.342,-0.38 8.018,1.29z" stroke="#6927DA" stroke-width="2.5"/>
<path id="Shape_11" d="M678.087,8.126c1.676,-1.67 4.507,-2.19 8.019,-1.29c3.48,0.9 7.388,3.15 10.837,6.6c3.449,3.45 5.702,7.35 6.597,10.83c0.903,3.52 0.382,6.35 -1.294,8.02c-1.676,1.68 -4.507,2.2 -8.018,1.3c-3.48,-0.9 -7.389,-3.15 -10.838,-6.6c-3.449,-3.45 -5.701,-7.36 -6.596,-10.84c-0.903,-3.51 -0.383,-6.34 1.293,-8.02z" stroke="#6927DA" stroke-width="2.5"/>
</g>
<g id="Logotype_4">
<path d="M724.208,28.536c3.925,0 6.575,-2.05 6.575,-5.33c0,-6.92 -9.2,-3.97 -9.2,-7.62c0,-1.03 0.925,-1.73 2.4,-1.73c1.675,0 2.725,0.9 2.85,2.28h3.575c-0.1,-3.33 -2.65,-5.5 -6.425,-5.5c-3.55,0 -6.05,2.05 -6.05,4.95c0,6.87 9.075,4.25 9.075,7.67c0,1.33 -1.125,2.03 -2.8,2.03c-1.85,0 -3.025,-1.13 -3.175,-2.9h-3.6c0.15,3.72 2.8,6.15 6.775,6.15z" fill="#101828"/>
<path d="M731.634,33.436h3.475v-6.23c0.675,0.85 1.9,1.33 3.325,1.33c3.625,0 6.075,-2.58 6.075,-6.5c0,-3.93 -2.25,-6.5 -5.775,-6.5c-1.625,0 -2.875,0.6 -3.625,1.57v-1.37h-3.475zM738.009,25.536c-1.875,0 -3.1,-1.4 -3.1,-3.5c0,-2.13 1.225,-3.53 3.1,-3.53c1.825,0 3.075,1.4 3.075,3.53c0,2.1 -1.25,3.5 -3.075,3.5z" fill="#101828"/>
<path d="M745.349,28.336h3.475v-6.9c0,-1.63 1.075,-2.8 2.6,-2.8c1.45,0 2.45,1.1 2.45,2.62v7.08h3.475v-7.85c0,-2.9 -1.85,-4.95 -4.675,-4.95c-1.75,0 -3.125,0.72 -3.85,1.95v-7.23h-3.475z" fill="#101828"/>
<path d="M767.07,24.056c-0.275,1.08 -1.2,1.63 -2.6,1.63c-1.75,0 -2.875,-1.1 -3.125,-2.88h9.05c0.025,-0.27 0.05,-0.65 0.05,-1.12c0,-2.88 -1.775,-6.15 -6.225,-6.15c-4.275,0 -6.225,3.27 -6.225,6.47c0,3.18 2.2,6.53 6.475,6.53c3.1,0 5.5,-1.75 6,-4.48zM764.22,18.086c1.675,0 2.65,1.12 2.75,2.52h-5.575c0.3,-1.75 1.25,-2.52 2.825,-2.52z" fill="#101828"/>
<path d="M779.559,18.636v-2.9h-1.793c-1.525,0 -2.475,0.52 -3.15,2.1v-2.1h-3.5v12.6h3.5v-6.13c0,-2.15 0.775,-3.57 2.5,-3.57z" fill="#101828"/>
<path d="M791.559,15.736h-3.5v6.9c0,1.6 -1.075,2.8 -2.6,2.8c-1.425,0 -2.425,-1.1 -2.425,-2.63v-7.07h-3.475v7.85c0,2.87 1.85,4.95 4.675,4.95c1.725,0 3.125,-0.75 3.825,-1.95v1.75h3.5z" fill="#101828"/>
<path d="M793.059,28.336h3.475v-18.08h-3.475z" fill="#101828"/>
<path d="M806.455,24.056c-0.275,1.08 -1.2,1.63 -2.6,1.63c-1.75,0 -2.875,-1.1 -3.125,-2.88h9.05c0.025,-0.27 0.05,-0.65 0.05,-1.12c0,-2.88 -1.775,-6.15 -6.225,-6.15c-4.275,0 -6.225,3.27 -6.225,6.47c0,3.18 2.2,6.53 6.475,6.53c3.1,0 5.5,-1.75 6,-4.48zM803.605,18.086c1.675,0 2.65,1.12 2.75,2.52h-5.575c0.3,-1.75 1.25,-2.52 2.825,-2.52z" fill="#101828"/>
</g>
</g>
<g id="Fictional company logo_5">
<g id="Logomark_5">
<path id="Shape_12" d="M875.524,1.666h-14.048l-11.309,11.31v14.05l11.309,11.31h14.048l11.309,-11.31v-14.05zM863.42,27.196l-7.245,-7.24l7.245,-7.25c2.739,-2.73 7.245,-2.73 9.984,0l7.245,7.25l-7.245,7.24c-2.739,2.74 -7.157,2.74 -9.984,0z" fill="#444CE7"/>
</g>
<g id="Logotype_5">
<path d="M902.95,28.536c2.25,0 4.1,-1.15 4.675,-2.88v2.68h3.325v-6.75c0,-1.53 -1.2,-2.83 -2.825,-2.83h-4.75v2.83h3.375c0.425,0 0.7,0.27 0.7,0.7c0,1.62 -2.15,3.2 -4.325,3.2c-2.9,0 -5.2,-2.28 -5.2,-5.9c0,-3.63 2.3,-5.73 5.275,-5.73c2.25,0 3.8,1.23 4.075,3.1h3.725c-0.225,-3.75 -3.375,-6.32 -7.775,-6.32c-4.625,0 -8.875,2.97 -8.875,8.95c0,5.97 4.125,8.95 8.6,8.95z" fill="#101828"/>
<path d="M912.377,28.336h3.475v-18.08h-3.475z" fill="#101828"/>
<path d="M923.348,28.536c3.875,0 6.65,-2.75 6.65,-6.5c0,-3.75 -2.775,-6.5 -6.65,-6.5c-3.875,0 -6.65,2.75 -6.65,6.5c0,3.75 2.775,6.5 6.65,6.5zM923.348,25.536c-1.875,0 -3.15,-1.43 -3.15,-3.5c0,-2.1 1.275,-3.53 3.15,-3.53c1.875,0 3.15,1.43 3.15,3.53c0,2.07 -1.275,3.5 -3.15,3.5z" fill="#101828"/>
<path d="M937.77,28.536c3.73,0 5.95,-2.58 5.95,-6.5c0,-3.93 -2.22,-6.5 -5.9,-6.5c-1.57,0 -2.796,0.6 -3.496,1.52v-6.8h-3.475v18.08h3.475v-1.38c0.7,0.98 1.996,1.58 3.446,1.58zM937.22,25.536c-1.871,0 -3.096,-1.4 -3.096,-3.5c0,-2.13 1.225,-3.53 3.096,-3.53c1.83,0 3.08,1.4 3.08,3.53c0,2.1 -1.25,3.5 -3.08,3.5z" fill="#101828"/>
<path d="M949.54,15.536c-3.45,0 -5.5,2.02 -5.65,4.55h3.1c0.05,-1.05 0.83,-2 2.35,-2c1.43,0 2.25,0.72 2.25,1.77c0,0.53 -0.32,0.93 -0.95,0.93h-2.12c-2.75,0 -4.6,1.5 -4.6,3.97c0,2.15 1.67,3.78 4.12,3.78c1.73,0 3.13,-0.78 3.55,-1.95v1.75h3.45v-8.1c0,-2.85 -2.32,-4.7 -5.5,-4.7zM948.92,26.006c-0.98,0 -1.68,-0.57 -1.68,-1.4c0,-0.97 0.75,-1.62 1.8,-1.62h2.55v0.17c0,1.6 -0.97,2.85 -2.67,2.85z" fill="#101828"/>
<path d="M956.38,28.336h3.47v-18.08h-3.47z" fill="#101828"/>
<path d="M961.7,28.336h7.15c3.7,0 6.25,-1.9 6.25,-5.23c0,-2.3 -1.35,-3.7 -2.95,-4.32c1.02,-0.55 2.05,-1.8 2.05,-3.45c0,-2.93 -2.38,-4.5 -5.55,-4.5h-6.95zM965.4,17.506v-3.7h2.9c1.67,0 2.42,0.68 2.42,1.85c0,1.18 -0.75,1.85 -2.35,1.85zM965.4,25.086v-4.4h3.12c2.08,0 3,0.8 3,2.22c0,1.43 -0.92,2.18 -3,2.18z" fill="#101828"/>
<path d="M981.14,15.536c-3.45,0 -5.5,2.02 -5.65,4.55h3.1c0.05,-1.05 0.83,-2 2.35,-2c1.43,0 2.25,0.72 2.25,1.77c0,0.53 -0.32,0.93 -0.95,0.93h-2.12c-2.75,0 -4.6,1.5 -4.6,3.97c0,2.15 1.67,3.78 4.12,3.78c1.73,0 3.13,-0.78 3.55,-1.95v1.75h3.45v-8.1c0,-2.85 -2.32,-4.7 -5.5,-4.7zM980.52,26.006c-0.98,0 -1.68,-0.57 -1.68,-1.4c0,-0.97 0.75,-1.62 1.8,-1.62h2.55v0.17c0,1.6 -0.97,2.85 -2.67,2.85z" fill="#101828"/>
<path d="M987.78,28.336h3.5v-6.9c0,-1.63 1.07,-2.8 2.6,-2.8c1.45,0 2.42,1.1 2.42,2.62v7.08h3.5v-7.85c0,-2.9 -1.85,-4.95 -4.7,-4.95c-1.72,0 -3.12,0.72 -3.82,1.95v-1.75h-3.5z" fill="#101828"/>
<path d="M1009.78,28.336h4.2l-5.43,-7.65l5.03,-4.95h-4.4l-4.38,4.3v-9.78h-3.5v18.08h3.5v-3.95l1.4,-1.38z" fill="#101828"/>
</g>
</g>
<g id="Fictional company logo_6">
<g id="Logomark_6" clip-path="url(#clip11_957_108892)">
<g id="Shape_13">
<path d="M1077.06,3.436l-3.52,-0.94l-2.96,11.06l-2.68,-9.99l-3.52,0.94l2.89,10.79l-7.2,-7.2l-2.57,2.58l7.9,7.9l-9.84,-2.64l-0.94,3.52l10.75,2.88c-0.13,-0.53 -0.19,-1.09 -0.19,-1.65c0,-4.03 3.26,-7.29 7.28,-7.29c4.02,0 7.28,3.26 7.28,7.29c0,0.56 -0.06,1.11 -0.18,1.64l9.77,2.62l0.94,-3.52l-10.79,-2.89l9.83,-2.64l-0.94,-3.52l-10.79,2.89l7.2,-7.2l-2.57,-2.57l-7.79,7.79z" fill="#FF4405"/>
<path d="M1079.55,22.366c-0.3,1.27 -0.94,2.42 -1.81,3.34l7.07,7.07l2.58,-2.57z" fill="#FF4405"/>
<path d="M1077.66,25.776c-0.88,0.9 -2,1.58 -3.25,1.92l2.57,9.62l3.52,-0.95z" fill="#FF4405"/>
<path d="M1074.28,27.736c-0.58,0.15 -1.19,0.23 -1.82,0.23c-0.67,0 -1.32,-0.09 -1.94,-0.26l-2.58,9.62l3.52,0.94z" fill="#FF4405"/>
<path d="M1070.39,27.666c-1.23,-0.36 -2.33,-1.05 -3.19,-1.95l-7.1,7.09l2.58,2.58z" fill="#FF4405"/>
<path d="M1067.14,25.656c-0.85,-0.91 -1.47,-2.05 -1.77,-3.3l-9.8,2.63l0.94,3.51z" fill="#FF4405"/>
</g>
</g>
<g id="Logotype_6">
<path d="M1111.43,10.756v12.67l-8.12,-12.67h-3.25v17.5h3.25v-12.58l8.12,12.58h3.25v-17.5z" fill="#101828"/>
<path d="M1116.15,14.026h3.35v-3.27h-3.35zM1116.2,28.256v-12.5h3.25v12.5z" fill="#101828"/>
<path d="M1133.43,22.006c0,-4.33 -3.07,-6.38 -6.32,-6.4c-3.28,-0.03 -6.3,2.07 -6.3,6.4c0,4.32 3.02,6.42 6.3,6.4c2.97,-0.03 5.02,-1.4 5.97,-3.68l-2.52,-1.05c-0.78,1.55 -2,2.1 -3.45,2.13c-1.25,0.02 -2.68,-0.58 -2.98,-2.8h9.23c0.05,-0.33 0.07,-0.65 0.07,-1zM1127.11,18.176c1.25,0.03 2.52,0.7 2.92,2.5h-5.85c0.43,-1.82 1.7,-2.52 2.93,-2.5z" fill="#101828"/>
<path d="M1140.94,18.076v-2.47h-2.05v-3.35l-3.25,1v2.35h-2.05v2.47h2.05v6.48c0,2.45 0.2,3.7 4,3.7h0.88v-2.85h-0.88c-0.6,0 -0.75,-0.1 -0.75,-0.85v-6.48z" fill="#101828"/>
<path d="M1145.77,25.526l6.9,-7.05v-2.72h-10.35v2.72h6.7l-6.9,7.05v2.73h10.63v-2.73z" fill="#101828"/>
<path d="M1153.91,24.726l3.28,-0.5c0.22,1.25 1.7,1.73 2.6,1.73c0.92,0 2.52,-0.2 2.52,-1.7c0,-2.93 -8.02,0.72 -8.02,-4.88c0,-3.6 4.17,-3.8 5.5,-3.8c1.25,0 4.87,0.2 5.62,3.1l-3.1,0.65c-0.27,-1.32 -1.67,-1.57 -2.42,-1.57c-0.75,0 -2.35,0.17 -2.35,1.62c0,2.9 8.02,-0.8 8.02,4.88c0,3.82 -4.4,4.15 -5.77,4.15c-1.25,0 -5.23,-0.33 -5.88,-3.68z" fill="#101828"/>
<path d="M1169.78,22.006c0,3.05 1.63,3.97 3.33,3.95c1.52,-0.03 2.57,-0.65 3.2,-2.4l2.67,1.3c-0.97,2.55 -3.35,3.52 -5.87,3.55c-3.28,0.02 -6.58,-2.08 -6.58,-6.4c0,-4.33 3.3,-6.43 6.58,-6.4c2.52,0.02 4.9,1 5.87,3.55l-2.67,1.3c-0.63,-1.75 -1.68,-2.38 -3.2,-2.4c-1.7,-0.03 -3.33,0.9 -3.33,3.95z" fill="#101828"/>
<path d="M1187.71,15.556c-1.68,0 -3.2,0.87 -4.18,2.75v-7.55h-3.25v17.5h3.25v-4.43c0,-5.72 2.38,-6.2 3.25,-6.2c1.4,0 1.6,1.45 1.6,3.58v7.05h3.25v-7.05c0,-2.65 -0.42,-5.65 -3.92,-5.65z" fill="#101828"/>
<path d="M1205.36,22.006c0,-4.33 -3.08,-6.38 -6.33,-6.4c-3.27,-0.03 -6.3,2.07 -6.3,6.4c0,4.32 3.03,6.42 6.3,6.4c2.98,-0.03 5.03,-1.4 5.98,-3.68l-2.53,-1.05c-0.77,1.55 -2,2.1 -3.45,2.13c-1.25,0.02 -2.67,-0.58 -2.97,-2.8h9.22c0.05,-0.33 0.08,-0.65 0.08,-1zM1199.03,18.176c1.25,0.03 2.53,0.7 2.93,2.5h-5.85c0.42,-1.82 1.7,-2.52 2.92,-2.5z" fill="#101828"/>
</g>
</g>
</g></svg>