<svg viewBox="0 0 297.2525 58.415" x="0" y="0" fill="none" xmlns="http://www.w3.org/2000/svg"><g id="Group 1597880435" xmlns="http://www.w3.org/2000/svg">
<path id="Vector_59" d="M52.4313,1.8741h-49.3045c-1.7269,0 -3.1268,1.4 -3.1268,3.12v48.42c0,1.73 1.3999,3.13 3.1268,3.13h49.3045c1.7268,0 3.1267,-1.4 3.1267,-3.13v-48.42c0,-1.72 -1.3999,-3.12 -3.1267,-3.12z" fill="#3498DB" stroke="white" stroke-width="1.10356"/>
<path id="Vector_60" d="M27.8511,46.4741c-2.2373,0 -4.251,-0.27 -6.0417,-0.8c-1.7899,-0.56 -3.4997,-1.52 -5.13,-2.89c-0.4157,-0.35 -0.7357,-0.73 -0.9594,-1.17c-0.2237,-0.44 -0.3355,-0.87 -0.3355,-1.31c0,-0.72 0.256,-1.34 0.7673,-1.87c0.5437,-0.56 1.2147,-0.84 2.0137,-0.84c0.6077,0 1.1506,0.19 1.6303,0.56c1.2147,0.97 2.4131,1.7 3.5961,2.2c1.2147,0.5 2.7016,0.74 4.4592,0.74c1.183,0 2.2696,-0.17 3.2606,-0.51c0.991,-0.37 1.79,-0.86 2.3977,-1.45c0.607,-0.62 0.9108,-1.32 0.9108,-2.1c0,-0.93 -0.2877,-1.73 -0.863,-2.38c-0.5753,-0.66 -1.4545,-1.2 -2.6375,-1.64c-1.1823,-0.47 -2.6846,-0.82 -4.5069,-1.07c-1.726,-0.25 -3.2445,-0.63 -4.5548,-1.12c-1.311,-0.53 -2.4138,-1.19 -3.3085,-1.97c-0.8637,-0.81 -1.5185,-1.74 -1.9665,-2.8c-0.4473,-1.09 -0.671,-2.31 -0.671,-3.65c0,-2.02 0.5275,-3.75 1.5825,-5.18c1.0867,-1.43 2.5412,-2.53 4.3635,-3.27c1.8216,-0.75 3.8353,-1.12 6.0409,-1.12c2.0784,0 3.9964,0.31 5.754,0.93c1.7899,0.59 3.2444,1.36 4.3634,2.29c0.927,0.72 1.3905,1.54 1.3905,2.48c0,0.68 -0.2714,1.31 -0.8151,1.87c-0.5437,0.56 -1.1823,0.84 -1.918,0.84c-0.4797,0 -0.9108,-0.14 -1.2949,-0.42c-0.5113,-0.44 -1.1984,-0.85 -2.0614,-1.22c-0.863,-0.4 -1.7738,-0.73 -2.7332,-0.98c-0.9586,-0.28 -1.8539,-0.42 -2.6853,-0.42c-1.3743,0 -2.5411,0.17 -3.4998,0.51c-0.927,0.35 -1.6303,0.81 -2.11,1.41c-0.4796,0.59 -0.7188,1.27 -0.7188,2.05c0,0.94 0.2715,1.71 0.8145,2.34c0.576,0.59 1.3912,1.07 2.4455,1.45c1.055,0.34 2.3174,0.65 3.7881,0.93c1.918,0.34 3.5962,0.75 5.0345,1.22c1.4706,0.46 2.6853,1.07 3.6439,1.82c0.9594,0.71 1.6789,1.63 2.1578,2.75c0.4797,1.09 0.7196,2.43 0.7196,4.02c0,2.03 -0.5753,3.77 -1.726,5.24c-1.1514,1.46 -2.6691,2.58 -4.5555,3.36c-1.854,0.78 -3.8676,1.17 -6.0416,1.17z" fill="white"/>
<path id="Vector_61" d="M8.2251,11.1341c-0.3076,0 -0.579,-0.05 -0.8123,-0.16c-0.2288,-0.11 -0.42,-0.26 -0.5738,-0.45c-0.1486,-0.19 -0.2604,-0.4 -0.3348,-0.64c-0.0691,-0.24 -0.1037,-0.49 -0.1037,-0.74c0,-0.25 0.0324,-0.53 0.0957,-0.82c0.064,-0.29 0.1618,-0.6 0.295,-0.9c0.1324,-0.3 0.295,-0.59 0.4863,-0.86c0.1964,-0.27 0.4223,-0.51 0.6768,-0.72c0.2605,-0.22 0.5525,-0.39 0.8762,-0.51c0.0376,-0.01 0.0692,-0.02 0.0957,-0.02c0.0691,0 0.128,0.02 0.1758,0.06c0.053,0.03 0.0795,0.1 0.0795,0.19c0,0.05 -0.0184,0.1 -0.0559,0.14c-0.0317,0.04 -0.0766,0.07 -0.1354,0.09c-0.2229,0.09 -0.4436,0.23 -0.6614,0.4c-0.2178,0.18 -0.4194,0.38 -0.6055,0.61c-0.1861,0.23 -0.345,0.48 -0.4782,0.74c-0.1273,0.26 -0.2178,0.53 -0.2708,0.8l-0.175,0.1c0.0956,-0.17 0.2177,-0.33 0.3663,-0.46c0.1538,-0.14 0.3297,-0.25 0.5261,-0.33c0.1964,-0.08 0.409,-0.12 0.6371,-0.12c0.2391,0 0.4598,0.05 0.6614,0.15c0.2016,0.1 0.3745,0.24 0.5179,0.41c0.1487,0.17 0.2627,0.36 0.3429,0.58c0.0846,0.22 0.1272,0.45 0.1272,0.68c0,0.31 -0.0772,0.61 -0.2309,0.88c-0.1487,0.27 -0.3561,0.49 -0.6217,0.66c-0.2605,0.16 -0.5606,0.24 -0.9005,0.24zM8.2177,10.6741c0.2442,0 0.462,-0.05 0.6533,-0.16c0.1913,-0.12 0.3399,-0.27 0.4459,-0.47c0.1118,-0.2 0.1677,-0.43 0.1677,-0.69c0,-0.24 -0.0478,-0.46 -0.1435,-0.66c-0.0904,-0.21 -0.2288,-0.38 -0.4149,-0.5c-0.1803,-0.14 -0.4061,-0.2 -0.6769,-0.2c-0.2817,0 -0.526,0.06 -0.7335,0.19c-0.2015,0.13 -0.3582,0.3 -0.4701,0.51c-0.1059,0.21 -0.1589,0.43 -0.1589,0.68c0,0.23 0.053,0.44 0.1589,0.64c0.1067,0.2 0.2583,0.36 0.4547,0.48c0.2016,0.12 0.4407,0.18 0.7173,0.18z" fill="white"/>
<path id="Vector_62" d="M4.7903,11.0541c-0.0743,0 -0.1354,-0.02 -0.1832,-0.07c-0.0478,-0.05 -0.0721,-0.1 -0.0721,-0.16v-4.8l0.0883,0.08l-1.0602,0.71c-0.0426,0.03 -0.0875,0.04 -0.1354,0.04c-0.064,0 -0.1221,-0.02 -0.175,-0.07c-0.0479,-0.06 -0.0722,-0.12 -0.0722,-0.18c0,-0.09 0.0427,-0.15 0.1281,-0.2l1.3301,-0.88c0.0324,-0.02 0.064,-0.04 0.0957,-0.04c0.0375,-0.01 0.0691,-0.01 0.0956,0c0.0692,0 0.1221,0.03 0.1596,0.08c0.0368,0.04 0.0559,0.09 0.0559,0.16v5.1c0,0.06 -0.0242,0.11 -0.072,0.16c-0.0478,0.05 -0.1089,0.07 -0.1832,0.07z" fill="white"/>
<path id="Vector_63" d="M111.7486,1.8741h-49.3048c-1.7269,0 -3.1268,1.4 -3.1268,3.12v48.42c0,1.73 1.3999,3.13 3.1268,3.13h49.3048c1.727,0 3.126,-1.4 3.126,-3.13v-48.42c0,-1.72 -1.399,-3.12 -3.126,-3.12z" fill="#3498DB" stroke="#F1C40F" stroke-width="1.10356"/>
<path id="Vector_64" d="M96.3426,13.3641c0.91,0 1.662,0.3 2.257,0.91c0.594,0.61 0.891,1.39 0.891,2.35v32.78c0,0.93 -0.297,1.7 -0.891,2.3c-0.595,0.65 -1.347,0.97 -2.257,0.97c-0.91,0 -1.662,-0.32 -2.257,-0.97c-0.594,-0.6 -0.892,-1.37 -0.892,-2.3v-13.31l1.155,0.48c0,0.46 -0.245,1.03 -0.735,1.71c-0.489,0.64 -1.155,1.28 -1.994,1.93c-0.839,0.64 -1.837,1.19 -2.991,1.65c-1.12,0.43 -2.344,0.65 -3.674,0.65c-2.414,0 -4.6,-0.63 -6.559,-1.88c-1.96,-1.28 -3.516,-3.03 -4.671,-5.24c-1.119,-2.24 -1.679,-4.81 -1.679,-7.7c0,-2.92 0.56,-5.49 1.679,-7.7c1.155,-2.24 2.694,-3.99 4.618,-5.24c1.924,-1.28 4.059,-1.92 6.403,-1.92c1.504,0 2.886,0.23 4.145,0.69c1.26,0.46 2.344,1.05 3.254,1.77c0.944,0.71 1.662,1.44 2.152,2.19c0.524,0.71 0.787,1.32 0.787,1.82l-1.89,0.69v-3.37c0,-0.92 0.298,-1.69 0.892,-2.3c0.595,-0.64 1.347,-0.96 2.257,-0.96zM85.7416,36.6241c1.54,0 2.887,-0.39 4.041,-1.17c1.155,-0.79 2.047,-1.86 2.676,-3.21c0.666,-1.36 0.997,-2.87 0.997,-4.55c0,-1.71 -0.331,-3.24 -0.997,-4.6c-0.629,-1.35 -1.521,-2.42 -2.676,-3.2c-1.154,-0.79 -2.501,-1.18 -4.041,-1.18c-1.504,0 -2.833,0.39 -3.988,1.18c-1.154,0.78 -2.064,1.85 -2.729,3.2c-0.629,1.36 -0.944,2.89 -0.944,4.6c0,1.68 0.315,3.19 0.944,4.55c0.665,1.35 1.575,2.42 2.729,3.21c1.155,0.78 2.484,1.17 3.988,1.17z" fill="white"/>
<path id="Vector_65" d="M170.1816,1.8741h-49.305c-1.727,0 -3.127,1.4 -3.127,3.12v48.42c0,1.73 1.4,3.13 3.127,3.13h49.305c1.727,0 3.126,-1.4 3.126,-3.13v-48.42c0,-1.72 -1.399,-3.12 -3.126,-3.12z" fill="#3498DB" stroke="#2ECC71" stroke-width="1.10356"/>
<path id="Vector_66" d="M163.0906,29.6541c0,2.33 -0.39,4.51 -1.169,6.54c-0.778,2.02 -1.884,3.82 -3.317,5.37c-1.402,1.53 -3.084,2.73 -5.046,3.6c-1.932,0.87 -4.05,1.31 -6.355,1.31c-2.305,0 -4.423,-0.44 -6.355,-1.31c-1.932,-0.87 -3.613,-2.07 -5.047,-3.6c-1.401,-1.55 -2.491,-3.35 -3.27,-5.37c-0.779,-2.03 -1.168,-4.21 -1.168,-6.54c0,-2.34 0.389,-4.52 1.168,-6.54c0.779,-2.03 1.869,-3.8 3.27,-5.33c1.434,-1.56 3.115,-2.77 5.047,-3.65c1.932,-0.87 4.05,-1.3 6.355,-1.3c2.305,0 4.423,0.43 6.355,1.3c1.962,0.88 3.644,2.09 5.046,3.65c1.433,1.53 2.539,3.3 3.317,5.33c0.779,2.02 1.169,4.2 1.169,6.54zM157.0166,29.6541c0,-2.09 -0.421,-3.97 -1.262,-5.66c-0.841,-1.71 -1.994,-3.06 -3.458,-4.06c-1.464,-1 -3.162,-1.5 -5.093,-1.5c-1.932,0 -3.63,0.5 -5.094,1.5c-1.464,1 -2.616,2.33 -3.457,4.02c-0.81,1.68 -1.215,3.58 -1.215,5.7c0,2.08 0.405,3.98 1.215,5.7c0.841,1.68 1.993,3.02 3.457,4.02c1.464,0.99 3.162,1.49 5.094,1.49c1.931,0 3.629,-0.5 5.093,-1.49c1.464,-1 2.617,-2.34 3.458,-4.02c0.841,-1.72 1.262,-3.62 1.262,-5.7z" fill="white"/>
<path id="Vector_67" d="M126.2956,9.1441l-0.024,-0.08c0.181,0.07 0.346,0.18 0.494,0.32c0.149,0.13 0.269,0.29 0.359,0.47c0.09,0.18 0.135,0.38 0.135,0.6c0,0.29 -0.077,0.55 -0.231,0.78c-0.149,0.24 -0.353,0.42 -0.614,0.56c-0.259,0.14 -0.549,0.21 -0.868,0.21c-0.324,0 -0.616,-0.07 -0.876,-0.21c-0.255,-0.14 -0.46,-0.32 -0.614,-0.56c-0.149,-0.23 -0.223,-0.49 -0.223,-0.78c0,-0.23 0.045,-0.44 0.135,-0.62c0.096,-0.19 0.218,-0.34 0.367,-0.47c0.154,-0.13 0.314,-0.23 0.478,-0.3l-0.024,0.08c-0.143,-0.07 -0.279,-0.16 -0.406,-0.27c-0.122,-0.13 -0.224,-0.27 -0.303,-0.44c-0.079,-0.17 -0.119,-0.35 -0.119,-0.55c0,-0.29 0.068,-0.55 0.207,-0.78c0.143,-0.22 0.334,-0.41 0.573,-0.54c0.245,-0.13 0.513,-0.2 0.805,-0.2c0.292,0 0.555,0.07 0.789,0.2c0.239,0.13 0.427,0.32 0.566,0.54c0.143,0.23 0.215,0.49 0.215,0.78c0,0.2 -0.04,0.39 -0.12,0.55c-0.079,0.17 -0.183,0.31 -0.31,0.44c-0.128,0.11 -0.258,0.2 -0.391,0.27zM124.4546,7.8841c0,0.21 0.051,0.4 0.152,0.55c0.101,0.16 0.234,0.29 0.398,0.38c0.165,0.09 0.346,0.13 0.542,0.13c0.192,0 0.37,-0.04 0.534,-0.13c0.164,-0.09 0.295,-0.22 0.39,-0.38c0.101,-0.15 0.152,-0.34 0.152,-0.55c0,-0.32 -0.101,-0.57 -0.303,-0.77c-0.202,-0.19 -0.459,-0.29 -0.773,-0.29c-0.324,0 -0.587,0.1 -0.788,0.29c-0.203,0.2 -0.304,0.45 -0.304,0.77zM125.5466,11.5441c0.362,0 0.654,-0.1 0.876,-0.31c0.229,-0.21 0.343,-0.47 0.343,-0.78c0,-0.21 -0.056,-0.4 -0.167,-0.57c-0.112,-0.17 -0.26,-0.31 -0.446,-0.4c-0.186,-0.1 -0.388,-0.14 -0.606,-0.14c-0.218,0 -0.42,0.04 -0.605,0.14c-0.186,0.09 -0.335,0.23 -0.447,0.4c-0.111,0.17 -0.167,0.36 -0.167,0.57c0,0.31 0.111,0.57 0.335,0.78c0.223,0.21 0.518,0.31 0.884,0.31z" fill="white"/>
<path id="Vector_68" d="M230.2926,0.2141l-49.184,3.44c-1.723,0.12 -3.021,1.62 -2.901,3.34l3.378,48.3c0.12,1.72 1.614,3.02 3.337,2.9l49.184,-3.44c1.723,-0.12 3.022,-1.61 2.901,-3.33l-3.377,-48.31c-0.121,-1.72 -1.615,-3.02 -3.338,-2.9z" fill="#3498DB" stroke="#2ECC71" stroke-width="1.10356"/>
<path id="Vector_69" d="M224.2726,28.4841c0.162,2.33 -0.073,4.54 -0.706,6.61c-0.64,2.07 -1.611,3.94 -2.935,5.59c-1.295,1.62 -2.884,2.94 -4.783,3.94c-1.868,1.01 -3.95,1.59 -6.246,1.75c-2.302,0.16 -4.446,-0.12 -6.433,-0.86c-1.988,-0.74 -3.75,-1.81 -5.285,-3.24c-1.508,-1.45 -2.72,-3.16 -3.638,-5.13c-0.918,-1.97 -1.459,-4.11 -1.622,-6.44c-0.163,-2.33 0.074,-4.54 0.71,-6.61c0.635,-2.08 1.599,-3.92 2.891,-5.54c1.32,-1.66 2.914,-2.99 4.78,-3.99c1.866,-1.01 3.948,-1.59 6.247,-1.75c2.299,-0.16 4.447,0.13 6.433,0.86c2.016,0.74 3.782,1.83 5.283,3.29c1.537,1.42 2.766,3.11 3.686,5.08c0.919,1.96 1.456,4.11 1.618,6.44zM218.2176,28.9141c-0.147,-2.08 -0.699,-3.94 -1.655,-5.56c-0.956,-1.65 -2.2,-2.92 -3.73,-3.81c-1.53,-0.89 -3.259,-1.27 -5.188,-1.14c-1.927,0.14 -3.586,0.75 -4.977,1.85c-1.391,1.1 -2.447,2.51 -3.169,4.25c-0.691,1.74 -0.961,3.66 -0.814,5.77c0.145,2.08 0.682,3.95 1.609,5.6c0.957,1.62 2.2,2.88 3.73,3.77c1.53,0.89 3.259,1.27 5.182,1.14c1.928,-0.14 3.59,-0.75 4.981,-1.85c1.39,-1.1 2.442,-2.51 3.171,-4.25c0.713,-1.77 1,-3.69 0.86,-5.77z" fill="white"/>
<path id="Vector_70" d="M184.3726,10.7141l-0.029,-0.07c0.185,0.06 0.356,0.15 0.515,0.28c0.157,0.12 0.287,0.27 0.39,0.45c0.103,0.17 0.162,0.37 0.177,0.59c0.02,0.28 -0.039,0.55 -0.176,0.79c-0.132,0.24 -0.323,0.44 -0.573,0.6c-0.25,0.16 -0.534,0.24 -0.852,0.27c-0.323,0.02 -0.62,-0.03 -0.889,-0.15c-0.264,-0.12 -0.48,-0.29 -0.65,-0.51c-0.165,-0.23 -0.258,-0.48 -0.278,-0.77c-0.016,-0.23 0.014,-0.44 0.092,-0.63c0.083,-0.19 0.194,-0.35 0.333,-0.49c0.145,-0.14 0.297,-0.25 0.456,-0.33l-0.018,0.08c-0.148,-0.06 -0.29,-0.14 -0.425,-0.25c-0.13,-0.11 -0.241,-0.25 -0.332,-0.4c-0.091,-0.17 -0.144,-0.35 -0.158,-0.55c-0.02,-0.29 0.031,-0.55 0.152,-0.79c0.128,-0.24 0.306,-0.43 0.535,-0.58c0.235,-0.15 0.498,-0.23 0.789,-0.25c0.291,-0.02 0.558,0.02 0.801,0.14c0.247,0.12 0.448,0.28 0.602,0.5c0.159,0.22 0.249,0.47 0.268,0.76c0.015,0.2 -0.012,0.39 -0.08,0.56c-0.067,0.17 -0.161,0.32 -0.28,0.45c-0.118,0.13 -0.242,0.23 -0.37,0.3zM182.4486,9.5841c0.015,0.22 0.078,0.4 0.19,0.55c0.112,0.15 0.253,0.27 0.424,0.35c0.17,0.07 0.354,0.11 0.549,0.09c0.191,-0.01 0.365,-0.07 0.523,-0.17c0.158,-0.1 0.279,-0.24 0.364,-0.4c0.089,-0.17 0.127,-0.36 0.112,-0.57c-0.022,-0.31 -0.14,-0.56 -0.356,-0.74c-0.215,-0.18 -0.479,-0.26 -0.791,-0.24c-0.323,0.02 -0.579,0.14 -0.766,0.35c-0.188,0.21 -0.271,0.47 -0.249,0.78zM183.7926,13.1641c0.361,-0.02 0.645,-0.15 0.853,-0.37c0.213,-0.22 0.31,-0.49 0.288,-0.8c-0.015,-0.21 -0.084,-0.4 -0.207,-0.56c-0.124,-0.16 -0.281,-0.29 -0.473,-0.37c-0.192,-0.08 -0.398,-0.11 -0.615,-0.1c-0.217,0.02 -0.414,0.08 -0.593,0.19c-0.179,0.11 -0.319,0.25 -0.418,0.43c-0.099,0.17 -0.141,0.37 -0.127,0.58c0.022,0.31 0.151,0.56 0.389,0.76c0.237,0.19 0.538,0.27 0.903,0.24z" fill="white"/>
<path id="Vector_71" d="M294.1256,1.8741h-49.304c-1.727,0 -3.127,1.4 -3.127,3.12v48.42c0,1.73 1.4,3.13 3.127,3.13h49.304c1.727,0 3.127,-1.4 3.127,-3.13v-48.42c0,-1.72 -1.4,-3.12 -3.127,-3.12z" fill="#3498DB" stroke="#E67E22" stroke-width="1.10356"/>
<path id="Vector_72" d="M277.4136,18.3741c1.776,0 3.215,-1.44 3.215,-3.22c0,-1.77 -1.439,-3.21 -3.215,-3.21c-1.776,0 -3.216,1.44 -3.216,3.21c0,1.78 1.44,3.22 3.216,3.22z" fill="white"/>
<path id="Vector_73" d="M279.6426,47.9641c0.603,-0.64 0.897,-1.41 0.897,-2.33v-21.82c0,-0.91 -0.294,-1.67 -0.897,-2.27c-0.596,-0.63 -1.354,-0.95 -2.274,-0.95c-0.912,0 -1.67,0.32 -2.273,0.95c-0.596,0.6 -0.897,1.36 -0.897,2.27v21.82c0,0.92 0.301,1.69 0.897,2.33c0.603,0.59 1.361,0.89 2.273,0.89c0.92,0 1.678,-0.3 2.274,-0.89z" fill="white"/>
<path id="Vector_74" d="M267.7016,45.9941c0,0.89 -0.309,1.64 -0.927,2.26c-0.581,0.58 -1.324,0.87 -2.222,0.87c-0.86,0 -1.581,-0.29 -2.17,-0.87c-0.581,-0.62 -0.875,-1.37 -0.875,-2.26v-31.8c0,-0.89 0.294,-1.63 0.875,-2.21c0.625,-0.62 1.383,-0.93 2.273,-0.93c0.898,0 1.619,0.31 2.171,0.93c0.588,0.58 0.875,1.32 0.875,2.21z" fill="white"/>
<path id="Vector_75" d="M248.0506,12.0041c0.03,0 0.052,0.01 0.081,0.02c0.03,0.01 0.066,0.04 0.111,0.07c0.11,0.12 0.242,0.21 0.397,0.27c0.154,0.06 0.331,0.09 0.53,0.09c0.257,0 0.493,-0.06 0.706,-0.17c0.221,-0.12 0.39,-0.28 0.515,-0.49c0.132,-0.21 0.191,-0.46 0.191,-0.73c0,-0.3 -0.066,-0.55 -0.206,-0.74c-0.132,-0.19 -0.302,-0.33 -0.515,-0.42c-0.206,-0.09 -0.419,-0.14 -0.64,-0.14c-0.059,0 -0.118,0 -0.176,0.01c-0.052,0.01 -0.103,0.02 -0.148,0.03c-0.051,0.01 -0.088,0.01 -0.11,0.01c-0.074,0 -0.125,-0.02 -0.162,-0.06c-0.037,-0.05 -0.059,-0.11 -0.059,-0.18c0,-0.03 0.015,-0.06 0.03,-0.09c0.014,-0.03 0.037,-0.07 0.059,-0.11l1.618,-1.76l0.096,0.13h-2.413c-0.067,0 -0.118,-0.02 -0.17,-0.06c-0.036,-0.05 -0.058,-0.11 -0.058,-0.17c0,-0.06 0.022,-0.12 0.058,-0.16c0.052,-0.04 0.103,-0.06 0.17,-0.06h2.678c0.088,0 0.154,0.03 0.191,0.09c0.037,0.05 0.059,0.1 0.059,0.15c0,0.04 -0.015,0.07 -0.03,0.1c-0.014,0.03 -0.036,0.06 -0.058,0.09l-1.619,1.76l-0.177,-0.11c0.015,-0.01 0.067,-0.03 0.162,-0.04c0.096,-0.02 0.169,-0.03 0.221,-0.03c0.294,0 0.566,0.06 0.824,0.2c0.257,0.14 0.463,0.34 0.625,0.6c0.162,0.25 0.25,0.57 0.25,0.95c0,0.37 -0.088,0.7 -0.264,0.98c-0.177,0.27 -0.412,0.49 -0.707,0.64c-0.301,0.16 -0.632,0.23 -0.993,0.23c-0.213,0 -0.434,-0.03 -0.647,-0.11c-0.206,-0.07 -0.398,-0.18 -0.552,-0.33c-0.037,-0.03 -0.066,-0.07 -0.081,-0.1c-0.015,-0.03 -0.022,-0.06 -0.022,-0.09c0,-0.07 0.015,-0.13 0.059,-0.18c0.051,-0.06 0.11,-0.09 0.176,-0.09z" fill="white"/>
</g></svg>