<svg viewBox="0 0 206.9646 40" x="0" y="0" fill="none" xmlns="http://www.w3.org/2000/svg"><defs><linearGradient id="paint0_linear_957_108892" x1="19.027800000000003" y1="32.06590000000001" x2="19.027800000000003" y2="8.554900000000004" gradientUnits="userSpaceOnUse" xmlns="http://www.w3.org/2000/svg">
<stop stop-color="#3498DB"/>
<stop offset="1" stop-color="#5AB5F2"/>
</linearGradient><linearGradient id="paint1_linear_957_108892" x1="59.553700000000006" y1="36.3969" x2="59.553700000000006" y2="8.554900000000004" gradientUnits="userSpaceOnUse" xmlns="http://www.w3.org/2000/svg">
<stop stop-color="#3498DB"/>
<stop offset="1" stop-color="#5AB5F2"/>
</linearGradient><linearGradient id="paint2_linear_957_108892" x1="102.50370000000001" y1="32.06590000000001" x2="102.50370000000001" y2="8.554900000000004" gradientUnits="userSpaceOnUse" xmlns="http://www.w3.org/2000/svg">
<stop stop-color="#3498DB"/>
<stop offset="1" stop-color="#5AB5F2"/>
</linearGradient><linearGradient id="paint3_linear_957_108892" x1="146.10670000000002" y1="31.996899999999997" x2="144.4687" y2="8.542900000000003" gradientUnits="userSpaceOnUse" xmlns="http://www.w3.org/2000/svg">
<stop stop-color="#3498DB"/>
<stop offset="1" stop-color="#5AB5F2"/>
</linearGradient><linearGradient id="paint4_linear_957_108892" x1="193.4857" y1="12.429900000000004" x2="193.4857" y2="7.934899999999999" gradientUnits="userSpaceOnUse" xmlns="http://www.w3.org/2000/svg">
<stop stop-color="#3498DB"/>
<stop offset="1" stop-color="#5AB5F2"/>
</linearGradient><linearGradient id="paint5_linear_957_108892" x1="193.4547" y1="33.734899999999996" x2="193.4547" y2="13.9829" gradientUnits="userSpaceOnUse" xmlns="http://www.w3.org/2000/svg">
<stop stop-color="#3498DB"/>
<stop offset="1" stop-color="#5AB5F2"/>
</linearGradient><linearGradient id="paint6_linear_957_108892" x1="184.53470000000002" y1="33.9209" x2="184.53470000000002" y2="7.315899999999999" gradientUnits="userSpaceOnUse" xmlns="http://www.w3.org/2000/svg">
<stop stop-color="#3498DB"/>
<stop offset="1" stop-color="#5AB5F2"/>
</linearGradient></defs><g id="Group 1597880515" xmlns="http://www.w3.org/2000/svg">
<path id="Vector" d="M36.2558,1.2829h-34.4563c-0.9938,0 -1.7995,0.806 -1.7995,1.8v33.837c0,0.994 0.8057,1.8 1.7995,1.8h34.4563c0.9939,0 1.7995,-0.806 1.7995,-1.8v-33.837c0,-0.994 -0.8056,-1.8 -1.7995,-1.8z" fill="white" stroke="#3498DB" stroke-width="1.54246"/>
<path id="Vector_2" d="M19.0782,32.0659c-1.5641,0 -2.9713,-0.185 -4.2223,-0.555c-1.2509,-0.392 -2.4463,-1.067 -3.5857,-2.025c-0.2905,-0.239 -0.5136,-0.511 -0.6699,-0.816c-0.1563,-0.305 -0.2344,-0.609 -0.2344,-0.914c0,-0.501 0.1784,-0.936 0.5357,-1.307c0.38,-0.391 0.8489,-0.587 1.4077,-0.587c0.4242,0 0.8042,0.13 1.1394,0.391c0.8489,0.676 1.6864,1.187 2.5132,1.535c0.8488,0.349 1.8874,0.523 3.1163,0.523c0.8262,0 1.5856,-0.12 2.2782,-0.359c0.6925,-0.261 1.2509,-0.599 1.6756,-1.013c0.4247,-0.435 0.6365,-0.925 0.6365,-1.469c0,-0.653 -0.201,-1.208 -0.6031,-1.665c-0.402,-0.458 -1.0165,-0.839 -1.8427,-1.143c-0.8268,-0.327 -1.8767,-0.577 -3.1502,-0.752c-1.2062,-0.173 -2.2674,-0.435 -3.1831,-0.783c-0.9157,-0.37 -1.6865,-0.827 -2.3122,-1.371c-0.6031,-0.567 -1.0612,-1.219 -1.3738,-1.96c-0.3126,-0.762 -0.4689,-1.611 -0.4689,-2.547c0,-1.415 0.3681,-2.623 1.1054,-3.625c0.76,-1.001 1.7759,-1.763 3.0495,-2.285c1.2735,-0.523 2.6808,-0.784 4.2222,-0.784c1.452,0 2.7923,0.218 4.0212,0.653c1.2509,0.414 2.2674,0.947 3.0489,1.6c0.6478,0.501 0.9717,1.077 0.9717,1.731c0,0.479 -0.1897,0.914 -0.5697,1.306c-0.3794,0.392 -0.8262,0.588 -1.3403,0.588c-0.3348,0 -0.6366,-0.098 -0.9044,-0.294c-0.3574,-0.305 -0.8381,-0.588 -1.4412,-0.849c-0.6031,-0.283 -1.2396,-0.512 -1.9101,-0.686c-0.6699,-0.196 -1.2956,-0.294 -1.8761,-0.294c-0.961,0 -1.7759,0.12 -2.4463,0.36c-0.6479,0.239 -1.1394,0.566 -1.4741,0.979c-0.3352,0.414 -0.5029,0.893 -0.5029,1.437c0,0.653 0.1898,1.197 0.5697,1.632c0.4021,0.414 0.9718,0.752 1.7091,1.013c0.7372,0.239 1.6195,0.457 2.6468,0.653c1.3404,0.239 2.5132,0.522 3.5189,0.849c1.0272,0.327 1.8761,0.751 2.5466,1.273c0.6699,0.501 1.1727,1.143 1.5075,1.927c0.3352,0.762 0.5028,1.698 0.5028,2.809c0,1.415 -0.4021,2.634 -1.2062,3.657c-0.8042,1.023 -1.8653,1.806 -3.1836,2.351c-1.2957,0.544 -2.7029,0.816 -4.2217,0.816z" fill="url(#paint0_linear_957_108892)"/>
<path id="Vector_3" d="M5.3626,7.3729c-0.2149,0 -0.4046,-0.039 -0.5676,-0.116c-0.1599,-0.078 -0.2936,-0.182 -0.401,-0.312c-0.1039,-0.134 -0.182,-0.284 -0.234,-0.451c-0.0483,-0.167 -0.0725,-0.338 -0.0725,-0.513c0,-0.178 0.0227,-0.369 0.0669,-0.573c0.0447,-0.208 0.1131,-0.418 0.2062,-0.63c0.0925,-0.211 0.2061,-0.411 0.3398,-0.601c0.1373,-0.189 0.2951,-0.358 0.473,-0.507c0.182,-0.152 0.3861,-0.271 0.6124,-0.356c0.0262,-0.008 0.0483,-0.011 0.0668,-0.011c0.0483,0 0.0895,0.013 0.1229,0.039c0.037,0.026 0.0555,0.07 0.0555,0.134c0,0.037 -0.0128,0.07 -0.0391,0.1c-0.0221,0.026 -0.0539,0.046 -0.0946,0.061c-0.1558,0.067 -0.31,0.161 -0.4622,0.284c-0.1522,0.122 -0.293,0.264 -0.4231,0.423c-0.1301,0.16 -0.2411,0.332 -0.3342,0.518c-0.089,0.182 -0.1522,0.367 -0.1892,0.557l-0.1224,0.072c0.0668,-0.122 0.1522,-0.23 0.256,-0.323c0.1075,-0.096 0.2304,-0.173 0.3677,-0.228c0.1373,-0.059 0.2858,-0.089 0.4452,-0.089c0.1671,0 0.3214,0.035 0.4622,0.106c0.1409,0.07 0.2618,0.166 0.362,0.289c0.1039,0.119 0.1836,0.254 0.2396,0.407c0.0591,0.152 0.0889,0.31 0.0889,0.473c0,0.219 -0.0539,0.423 -0.1614,0.612c-0.1038,0.19 -0.2488,0.344 -0.4345,0.463c-0.182,0.115 -0.3917,0.172 -0.6293,0.172zM5.3575,7.0499c0.1707,0 0.3229,-0.039 0.4565,-0.117c0.1337,-0.077 0.2376,-0.185 0.3116,-0.323c0.0782,-0.141 0.1173,-0.302 0.1173,-0.484c0,-0.167 -0.0335,-0.321 -0.1003,-0.462c-0.0632,-0.145 -0.1599,-0.262 -0.29,-0.351c-0.126,-0.093 -0.2838,-0.139 -0.473,-0.139c-0.1969,0 -0.3676,0.045 -0.5126,0.134c-0.1409,0.088 -0.2504,0.207 -0.3285,0.356c-0.0741,0.145 -0.1111,0.304 -0.1111,0.478c0,0.157 0.037,0.305 0.1111,0.446c0.0745,0.138 0.1804,0.249 0.3177,0.334c0.1409,0.086 0.308,0.128 0.5013,0.128z" fill="#F1C40F"/>
<path id="Vector_4" d="M2.962,7.3169c-0.0519,0 -0.0946,-0.017 -0.128,-0.05c-0.0334,-0.034 -0.0504,-0.072 -0.0504,-0.117v-3.352l0.0617,0.055l-0.7409,0.496c-0.0298,0.022 -0.0612,0.033 -0.0946,0.033c-0.0447,0 -0.0853,-0.018 -0.1224,-0.055c-0.0334,-0.037 -0.0503,-0.078 -0.0503,-0.123c0,-0.059 0.0298,-0.106 0.0894,-0.139l0.9296,-0.618c0.0226,-0.015 0.0447,-0.024 0.0668,-0.028c0.0263,-0.004 0.0484,-0.004 0.0669,0c0.0483,0.004 0.0853,0.022 0.1115,0.056c0.0258,0.03 0.0391,0.067 0.0391,0.111v3.564c0,0.045 -0.0169,0.083 -0.0504,0.117c-0.0334,0.033 -0.0761,0.05 -0.128,0.05z" fill="#F1C40F"/>
<path id="Vector_5" d="M77.7097,1.2829h-34.4562c-0.9938,0 -1.7995,0.806 -1.7995,1.8v33.837c0,0.994 0.8057,1.8 1.7995,1.8h34.4562c0.994,0 1.8,-0.806 1.8,-1.8v-33.837c0,-0.994 -0.806,-1.8 -1.8,-1.8z" fill="white" stroke="#F1C40F" stroke-width="1.54246"/>
<path id="Vector_6" d="M66.9431,8.9289c0.6355,0 1.1616,0.211 1.5766,0.635c0.416,0.424 0.624,0.972 0.624,1.644v22.909c0,0.648 -0.208,1.184 -0.624,1.608c-0.415,0.448 -0.9411,0.672 -1.5766,0.672c-0.6355,0 -1.1615,-0.224 -1.5769,-0.672c-0.4154,-0.424 -0.6236,-0.96 -0.6236,-1.608v-9.305l0.8072,0.336c0,0.324 -0.1712,0.723 -0.5137,1.196c-0.3424,0.448 -0.8067,0.897 -1.3933,1.345c-0.5872,0.449 -1.2838,0.835 -2.0906,1.159c-0.7825,0.299 -1.638,0.448 -2.5671,0.448c-1.6869,0 -3.215,-0.436 -4.5842,-1.308c-1.3692,-0.896 -2.4571,-2.117 -3.2638,-3.662c-0.7826,-1.57 -1.1738,-3.364 -1.1738,-5.382c0,-2.042 0.3912,-3.836 1.1738,-5.381c0.8067,-1.57 1.8823,-2.791 3.2273,-3.663c1.3445,-0.896 2.8361,-1.345 4.4741,-1.345c1.051,0 2.0171,0.162 2.8973,0.486c0.8797,0.324 1.6376,0.735 2.2736,1.233c0.6601,0.498 1.1615,1.009 1.5034,1.532c0.3671,0.498 0.5501,0.922 0.5501,1.271l-1.3203,0.486v-2.355c0,-0.648 0.2082,-1.183 0.6236,-1.606c0.4154,-0.449 0.9414,-0.673 1.5769,-0.673zM59.5352,25.1859c1.0756,0 2.017,-0.274 2.8237,-0.823c0.8067,-0.548 1.4304,-1.295 1.8705,-2.242c0.4643,-0.947 0.6967,-2.006 0.6967,-3.177c0,-1.196 -0.2324,-2.267 -0.6967,-3.214c-0.4401,-0.946 -1.0638,-1.694 -1.8705,-2.242c-0.8067,-0.548 -1.7481,-0.822 -2.8237,-0.822c-1.0514,0 -1.9805,0.274 -2.7872,0.822c-0.8067,0.548 -1.4427,1.296 -1.907,2.242c-0.4401,0.947 -0.6601,2.018 -0.6601,3.214c0,1.171 0.22,2.23 0.6601,3.177c0.4643,0.947 1.1003,1.694 1.907,2.242c0.8067,0.549 1.7358,0.823 2.7872,0.823z" fill="url(#paint1_linear_957_108892)"/>
<path id="Vector_7" d="M118.5447,1.2829h-34.456c-0.994,0 -1.8,0.806 -1.8,1.8v33.837c0,0.994 0.806,1.8 1.8,1.8h34.456c0.994,0 1.8,-0.806 1.8,-1.8v-33.837c0,-0.994 -0.806,-1.8 -1.8,-1.8z" fill="white" stroke="#2ECC71" stroke-width="1.54246"/>
<path id="Vector_8" d="M113.5897,20.3099c0,1.633 -0.272,3.157 -0.816,4.572c-0.545,1.415 -1.317,2.667 -2.319,3.756c-0.979,1.066 -2.155,1.905 -3.527,2.514c-1.349,0.61 -2.829,0.914 -4.44,0.914c-1.612,0 -3.092,-0.304 -4.441,-0.914c-1.35,-0.609 -2.526,-1.448 -3.527,-2.514c-0.98,-1.089 -1.741,-2.341 -2.286,-3.756c-0.544,-1.415 -0.816,-2.939 -0.816,-4.572c0,-1.632 0.272,-3.156 0.816,-4.571c0.545,-1.415 1.306,-2.656 2.286,-3.723c1.001,-1.088 2.177,-1.937 3.527,-2.547c1.349,-0.609 2.829,-0.914 4.441,-0.914c1.611,0 3.091,0.305 4.44,0.914c1.372,0.61 2.548,1.459 3.527,2.547c1.002,1.067 1.774,2.308 2.319,3.723c0.544,1.415 0.816,2.939 0.816,4.571zM109.3447,20.3099c0,-1.458 -0.294,-2.775 -0.882,-3.951c-0.587,-1.197 -1.393,-2.144 -2.416,-2.841c-1.023,-0.696 -2.21,-1.044 -3.559,-1.044c-1.35,0 -2.537,0.348 -3.56,1.044c-1.023,0.697 -1.829,1.633 -2.416,2.809c-0.566,1.175 -0.849,2.503 -0.849,3.983c0,1.459 0.283,2.787 0.849,3.985c0.587,1.175 1.393,2.111 2.416,2.808c1.023,0.697 2.21,1.045 3.56,1.045c1.349,0 2.536,-0.348 3.559,-1.045c1.023,-0.697 1.829,-1.633 2.416,-2.808c0.588,-1.198 0.882,-2.526 0.882,-3.985z" fill="url(#paint2_linear_957_108892)"/>
<path id="Vector_9" d="M87.8757,5.9749l-0.017,-0.05c0.127,0.048 0.242,0.12 0.346,0.217c0.103,0.093 0.187,0.204 0.25,0.334c0.063,0.126 0.095,0.266 0.095,0.418c0,0.2 -0.054,0.382 -0.162,0.545c-0.104,0.164 -0.247,0.293 -0.429,0.39c-0.181,0.097 -0.384,0.145 -0.606,0.145c-0.227,0 -0.431,-0.048 -0.613,-0.145c-0.178,-0.097 -0.321,-0.226 -0.428,-0.39c-0.105,-0.163 -0.157,-0.345 -0.157,-0.545c0,-0.164 0.032,-0.309 0.095,-0.435c0.067,-0.13 0.153,-0.239 0.256,-0.328c0.108,-0.089 0.219,-0.158 0.335,-0.206l-0.017,0.055c-0.101,-0.048 -0.195,-0.113 -0.284,-0.195c-0.086,-0.085 -0.156,-0.185 -0.212,-0.3c-0.056,-0.119 -0.083,-0.249 -0.083,-0.39c0,-0.2 0.048,-0.381 0.144,-0.54c0.1,-0.16 0.234,-0.286 0.401,-0.379c0.171,-0.093 0.359,-0.139 0.563,-0.139c0.204,0 0.387,0.046 0.551,0.139c0.167,0.093 0.299,0.219 0.395,0.379c0.1,0.159 0.15,0.34 0.15,0.54c0,0.145 -0.027,0.275 -0.083,0.39c-0.055,0.115 -0.128,0.215 -0.217,0.3c-0.089,0.082 -0.18,0.145 -0.273,0.19zM86.5897,5.0949c0,0.148 0.035,0.278 0.106,0.39c0.07,0.111 0.163,0.199 0.278,0.262c0.115,0.062 0.241,0.094 0.379,0.094c0.133,0 0.258,-0.032 0.373,-0.094c0.115,-0.063 0.206,-0.151 0.272,-0.262c0.071,-0.112 0.106,-0.242 0.106,-0.39c0,-0.219 -0.07,-0.397 -0.211,-0.534c-0.141,-0.138 -0.321,-0.207 -0.54,-0.207c-0.227,0 -0.411,0.069 -0.552,0.207c-0.141,0.137 -0.211,0.315 -0.211,0.534zM87.3527,7.6559c0.252,0 0.456,-0.072 0.612,-0.217c0.16,-0.145 0.24,-0.326 0.24,-0.545c0,-0.149 -0.039,-0.282 -0.117,-0.401c-0.078,-0.119 -0.182,-0.212 -0.312,-0.279c-0.13,-0.067 -0.271,-0.1 -0.423,-0.1c-0.153,0 -0.293,0.033 -0.423,0.1c-0.131,0.067 -0.234,0.16 -0.313,0.279c-0.077,0.119 -0.116,0.252 -0.116,0.401c0,0.219 0.077,0.4 0.234,0.545c0.155,0.145 0.362,0.217 0.618,0.217z" fill="#F1C40F"/>
<path id="Vector_10" d="M160.5807,0.1269l-34.372,2.404c-0.992,0.069 -1.739,0.929 -1.67,1.92l2.361,33.756c0.069,0.991 0.929,1.739 1.92,1.669l34.373,-2.403c0.991,-0.07 1.739,-0.93 1.669,-1.921l-2.36,-33.755c-0.069,-0.992 -0.929,-1.739 -1.921,-1.67z" fill="white" stroke="#2ECC71" stroke-width="1.54246"/>
<path id="Vector_11" d="M156.3487,19.4959c0.113,1.629 -0.052,3.169 -0.494,4.618c-0.447,1.449 -1.131,2.752 -2.051,3.908c-0.905,1.132 -2.021,2.05 -3.342,2.754c-1.306,0.702 -2.761,1.11 -4.371,1.222c-1.605,0.113 -3.103,-0.088 -4.492,-0.602c-1.389,-0.514 -2.62,-1.268 -3.693,-2.262c-1.054,-1.018 -1.901,-2.214 -2.543,-3.587c-0.642,-1.374 -1.019,-2.875 -1.133,-4.504c-0.114,-1.628 0.051,-3.168 0.496,-4.617c0.444,-1.45 1.117,-2.741 2.02,-3.873c0.923,-1.156 2.036,-2.085 3.341,-2.787c1.304,-0.702 2.759,-1.109 4.366,-1.222c1.608,-0.112 3.104,0.088 4.492,0.602c1.414,0.513 2.643,1.278 3.697,2.295c1.074,0.995 1.933,2.179 2.571,3.552c0.642,1.374 1.023,2.875 1.136,4.503zM152.1117,19.7929c-0.103,-1.456 -0.483,-2.749 -1.152,-3.88c-0.673,-1.154 -1.542,-2.042 -2.611,-2.666c-1.07,-0.623 -2.278,-0.888 -3.623,-0.794c-1.346,0.094 -2.506,0.524 -3.477,1.291c-0.973,0.766 -1.711,1.756 -2.215,2.97c-0.483,1.212 -0.672,2.557 -0.569,4.033c0.101,1.455 0.477,2.76 1.124,3.915c0.669,1.132 1.538,2.009 2.607,2.633c1.069,0.624 2.277,0.888 3.623,0.794c1.347,-0.094 2.504,-0.525 3.481,-1.291c0.972,-0.766 1.707,-1.756 2.211,-2.97c0.503,-1.235 0.704,-2.58 0.601,-4.035z" fill="url(#paint3_linear_957_108892)"/>
<path id="Vector_12" d="M128.4627,7.0779l-0.02,-0.049c0.129,0.039 0.249,0.103 0.359,0.192c0.111,0.086 0.202,0.191 0.274,0.316c0.071,0.122 0.113,0.259 0.123,0.41c0.014,0.2 -0.027,0.385 -0.123,0.556c-0.092,0.17 -0.226,0.31 -0.4,0.419c-0.175,0.109 -0.374,0.171 -0.596,0.186c-0.225,0.016 -0.433,-0.018 -0.621,-0.101c-0.184,-0.084 -0.336,-0.204 -0.455,-0.36c-0.115,-0.155 -0.179,-0.333 -0.193,-0.533c-0.012,-0.163 0.01,-0.309 0.064,-0.44c0.057,-0.134 0.135,-0.249 0.232,-0.345c0.101,-0.096 0.208,-0.173 0.319,-0.229l-0.013,0.056c-0.103,-0.041 -0.202,-0.099 -0.296,-0.174c-0.092,-0.079 -0.169,-0.174 -0.233,-0.285c-0.063,-0.115 -0.1,-0.242 -0.11,-0.383c-0.014,-0.2 0.021,-0.383 0.107,-0.549c0.089,-0.166 0.213,-0.302 0.373,-0.406c0.164,-0.104 0.348,-0.164 0.552,-0.178c0.203,-0.014 0.39,0.019 0.559,0.1c0.173,0.082 0.314,0.198 0.421,0.35c0.111,0.153 0.174,0.329 0.188,0.529c0.01,0.145 -0.009,0.276 -0.056,0.395c-0.048,0.118 -0.113,0.224 -0.196,0.315c-0.083,0.087 -0.17,0.157 -0.259,0.208zM127.1177,6.2899c0.011,0.148 0.055,0.275 0.133,0.381c0.078,0.107 0.177,0.187 0.296,0.242c0.119,0.055 0.247,0.077 0.385,0.068c0.133,-0.01 0.255,-0.05 0.365,-0.121c0.11,-0.071 0.195,-0.164 0.254,-0.28c0.062,-0.116 0.089,-0.248 0.078,-0.396c-0.015,-0.218 -0.098,-0.391 -0.248,-0.519c-0.151,-0.127 -0.335,-0.183 -0.553,-0.167c-0.226,0.016 -0.405,0.097 -0.536,0.244c-0.131,0.147 -0.189,0.329 -0.174,0.548zM128.0577,8.7919c0.252,-0.018 0.45,-0.104 0.596,-0.26c0.149,-0.155 0.216,-0.342 0.201,-0.561c-0.011,-0.148 -0.059,-0.278 -0.145,-0.391c-0.086,-0.114 -0.196,-0.199 -0.331,-0.256c-0.134,-0.058 -0.277,-0.082 -0.428,-0.071c-0.153,0.01 -0.291,0.054 -0.416,0.13c-0.125,0.075 -0.222,0.175 -0.291,0.299c-0.07,0.124 -0.1,0.26 -0.089,0.408c0.015,0.219 0.106,0.395 0.271,0.528c0.166,0.134 0.377,0.191 0.632,0.174z" fill="#F1C40F"/>
<path id="Vector_13" d="M205.1647,1.2829h-34.456c-0.994,0 -1.799,0.806 -1.799,1.8v33.837c0,0.994 0.805,1.8 1.799,1.8h34.456c0.994,0 1.8,-0.806 1.8,-1.8v-33.837c0,-0.994 -0.806,-1.8 -1.8,-1.8z" fill="white" stroke="#E67E22" stroke-width="1.54246"/>
<path id="Vector_14" d="M193.4857,12.4299c1.241,0 2.247,-1.006 2.247,-2.247c0,-1.241 -1.006,-2.247 -2.247,-2.247c-1.241,0 -2.247,1.006 -2.247,2.247c0,1.241 1.006,2.247 2.247,2.247z" fill="url(#paint4_linear_957_108892)"/>
<path id="Vector_15" d="M195.0437,33.1069c0.416,-0.443 0.627,-0.984 0.627,-1.624v-15.248c0,-0.64 -0.211,-1.169 -0.627,-1.588c-0.422,-0.443 -0.951,-0.664 -1.589,-0.664c-0.642,0 -1.172,0.221 -1.588,0.664c-0.422,0.419 -0.628,0.948 -0.628,1.588v15.248c0,0.64 0.206,1.181 0.628,1.624c0.416,0.418 0.946,0.628 1.588,0.628c0.638,0 1.167,-0.21 1.589,-0.628z" fill="url(#paint5_linear_957_108892)"/>
<path id="Vector_16" d="M186.6987,31.7279c0,0.623 -0.216,1.151 -0.648,1.582c-0.411,0.407 -0.925,0.611 -1.552,0.611c-0.602,0 -1.106,-0.204 -1.517,-0.611c-0.406,-0.431 -0.612,-0.959 -0.612,-1.582v-22.219c0,-0.623 0.206,-1.138 0.612,-1.546c0.432,-0.431 0.961,-0.647 1.589,-0.647c0.627,0 1.131,0.216 1.516,0.647c0.407,0.408 0.612,0.923 0.612,1.546z" fill="url(#paint6_linear_957_108892)"/>
<path id="Vector_17" d="M172.9657,7.9799c0.016,0 0.036,0.004 0.057,0.012c0.02,0.007 0.046,0.024 0.077,0.05c0.077,0.081 0.17,0.145 0.278,0.189c0.107,0.041 0.231,0.062 0.365,0.062c0.185,0 0.349,-0.042 0.498,-0.123c0.149,-0.082 0.273,-0.195 0.36,-0.34c0.088,-0.148 0.134,-0.317 0.134,-0.507c0,-0.215 -0.046,-0.387 -0.144,-0.517c-0.093,-0.134 -0.216,-0.232 -0.36,-0.296c-0.149,-0.066 -0.293,-0.1 -0.447,-0.1c-0.041,0 -0.083,0.004 -0.124,0.012c-0.036,0.003 -0.072,0.009 -0.102,0.016c-0.036,0.007 -0.062,0.011 -0.083,0.011c-0.046,0 -0.082,-0.015 -0.108,-0.044c-0.025,-0.034 -0.041,-0.074 -0.041,-0.123c0,-0.026 0.005,-0.048 0.016,-0.067c0.015,-0.022 0.025,-0.046 0.046,-0.072l1.131,-1.231l0.067,0.089h-1.687c-0.046,0 -0.082,-0.014 -0.118,-0.044c-0.031,-0.034 -0.046,-0.073 -0.046,-0.117c0,-0.045 0.015,-0.082 0.046,-0.112c0.036,-0.029 0.072,-0.044 0.118,-0.044h1.872c0.062,0 0.108,0.02 0.134,0.061c0.025,0.037 0.036,0.074 0.036,0.111c0,0.023 -0.006,0.045 -0.016,0.067c-0.01,0.019 -0.026,0.039 -0.046,0.061l-1.131,1.231l-0.119,-0.072c0.011,-0.011 0.047,-0.022 0.108,-0.034c0.067,-0.014 0.119,-0.022 0.16,-0.022c0.2,0 0.396,0.049 0.571,0.145c0.185,0.096 0.329,0.236 0.442,0.418c0.113,0.178 0.169,0.399 0.169,0.662c0,0.26 -0.061,0.488 -0.18,0.685c-0.123,0.193 -0.288,0.343 -0.498,0.451c-0.206,0.108 -0.437,0.162 -0.689,0.162c-0.155,0 -0.304,-0.026 -0.453,-0.078c-0.149,-0.052 -0.277,-0.13 -0.391,-0.234c-0.025,-0.022 -0.041,-0.045 -0.051,-0.067c-0.015,-0.022 -0.02,-0.044 -0.02,-0.067c0,-0.044 0.015,-0.085 0.046,-0.122c0.031,-0.041 0.072,-0.062 0.123,-0.062z" fill="#F1C40F"/>
</g></svg>